<?xml version="1.0" standalone="no"?>
<!DOCTYPE svg PUBLIC "-//W3C//DTD SVG 1.1//EN" "http://www.w3.org/Graphics/SVG/1.1/DTD/svg11.dtd" >
<svg>
<metadata>
Created by FontForge 20090622 at Fri Jun  9 17:34:34 2017
 By deploy user
Copyright (c) 2017 by Misti's Fonts. All rights reserved.
</metadata>
<defs>
<font id="WhiteChocolateMint-Regular" horiz-adv-x="376" >
  <font-face 
    font-family="White Chocolate Mint"
    font-weight="400"
    font-stretch="normal"
    units-per-em="1000"
    panose-1="0 0 0 0 0 0 0 0 0 0"
    ascent="800"
    descent="-200"
    x-height="445"
    cap-height="673"
    bbox="-29 -366 816 975"
    underline-thickness="50"
    underline-position="-50"
    unicode-range="U+000D-U+FB00"
  />
<missing-glyph horiz-adv-x="340" 
 />
    <glyph glyph-name="t_t" unicode="tt" horiz-adv-x="578" 
d="M528 427q16 0 28 -11.5t12 -28.5q0 -73 -137 -95q-4 0 -6 -1q0 -68 4.5 -118.5t10.5 -74.5t14 -38.5t12.5 -17t7.5 -2.5q16 0 28 -12t12 -28t-12 -28t-28 -12q-65 0 -96.5 69t-31.5 239v16h-12q-22 0 -67 3.5t-70 3.5q0 -68 4.5 -118.5t10.5 -74.5t14 -38.5t12.5 -17
t7.5 -2.5q16 0 28 -12t12 -28t-12 -28t-28 -12q-64 0 -96.5 76.5t-32.5 247.5q-22 -1 -69 -1q-16 0 -28 11.5t-12 28.5q0 41 70 41h39q1 23 3.5 93t4.5 108l3 50q1 16 12 27.5t27 11.5q18 0 29.5 -12.5t11.5 -29.5l-3 -51q-5 -82 -7 -194q9 0 54.5 -2t74.5 -2h19
q1 102 7 202l3 50q1 16 12 27.5t27 11.5q18 0 29.5 -12.5t11.5 -29.5l-3 -51q-5 -84 -7 -188q1 0 2 -1q39 7 61 20q1 15 12.5 25t26.5 10z" />
    <glyph glyph-name="f_f" unicode="ff" horiz-adv-x="650" 
d="M222 467q-14 11 -14 30q0 14 9 26q29 34 29 70q0 21 -27 21q-34 0 -58 -97.5t-29 -247.5q68 -7 167 -7q51 0 67 1q11 221 51.5 326t113.5 105q47 0 77 -29t30 -76q0 -9 -5.5 -37t-25 -61.5t-47.5 -33.5q-17 0 -28.5 12t-11.5 28q0 14 9 26q29 34 29 70q0 21 -27 21
q-34 0 -58 -97.5t-29 -247.5q32 0 57.5 5.5t34.5 11.5l10 6q1 17 12.5 28t27.5 11t28 -11.5t12 -28.5q0 -46 -44 -71q-41 -23 -140 -32q0 -76 5 -186q0 -17 -10.5 -29t-27.5 -13h-2q-27 0 -36 28t-9 84q0 76 1 111q-17 -1 -66 -1q-103 0 -167 6q0 -76 5 -186
q0 -17 -10.5 -29t-27.5 -13h-2q-27 0 -36 28t-9 84q0 17 0.5 55.5t0.5 59.5q-15 2 -25.5 13t-10.5 26q0 16 10.5 27t26.5 13q13 428 167 428q47 0 77 -29t30 -76q0 -9 -5.5 -37t-25 -61.5t-47.5 -33.5q-16 0 -26 10z" />
    <glyph glyph-name=".notdef" horiz-adv-x="340" 
 />
    <glyph glyph-name=".null" horiz-adv-x="0" 
 />
    <glyph glyph-name="nonmarkingreturn" horiz-adv-x="333" 
 />
    <glyph glyph-name="NULL" horiz-adv-x="0" 
 />
    <glyph glyph-name="NULL" horiz-adv-x="0" 
 />
    <glyph glyph-name="CR" unicode="&#xd;" horiz-adv-x="340" 
 />
    <glyph glyph-name="space" unicode=" " horiz-adv-x="340" 
 />
    <glyph glyph-name="exclam" unicode="!" horiz-adv-x="142" 
d="M108 78q16 -12 16 -31q0 -20 -11.5 -34.5t-31.5 -14.5q-16 0 -26.5 10t-12.5 25l-3 7q-2 8 -2 11q0 16 12 28t29 12q15 0 25 -10zM46 691q11 11 28 11q16 0 28.5 -11t12.5 -28q0 -4 -2 -12v-5q0 -6 -0.5 -16t-1 -23.5t-1 -31t-0.5 -36t-0.5 -40l-1 -43t-0.5 -44v-43.5
q0 -60 3 -107.5t6 -65.5l3 -18q0 -16 -11.5 -27.5t-27.5 -11.5q-34 0 -43.5 51t-9.5 192q0 63 2 135t3.5 114t2.5 43q4 10 10 17z" />
    <glyph glyph-name="quotedbl" unicode="&#x22;" horiz-adv-x="290" 
d="M56 631q11 11 28 11q16 0 28.5 -11t12.5 -28q0 -1 -0.5 -3.5t-1.5 -9.5t-2.5 -19t-2 -36t-0.5 -55q0 -30 6 -65t6 -37q0 -16 -11.5 -27.5t-27.5 -11.5q-33 0 -43 38.5t-10 108.5q0 67 4 101t5.5 35.5zM186 631q11 11 28 11q16 0 28.5 -11t12.5 -28q0 -1 -0.5 -3.5
t-1.5 -9.5t-2.5 -19t-2 -36t-0.5 -55q0 -30 6 -65t6 -37q0 -16 -11.5 -27.5t-27.5 -11.5q-33 0 -43 38.5t-10 108.5q0 67 4 101t5.5 35.5z" />
    <glyph glyph-name="numbersign" unicode="#" horiz-adv-x="511" 
d="M34 444q-11 10 -11 28q0 16 11 28.5t28 12.5q6 0 6 -1q1 -2 68 -4q34 108 36 110q10 21 34 21q16 0 29 -11.5t13 -28.5v-9q1 -1 0 -1q-7 -10 -29 -83h117q35 111 36 112q10 21 34 21q16 0 29 -11.5t13 -28.5q0 -6 1 -9q0 -1 -1 -3q-8 -16 -27 -74q28 5 29 5
q17 0 28.5 -11.5t11.5 -27.5q0 -23 -23 -34.5t-72 -15.5l-15 -50q19 1 36 3.5t25 4t9 1.5q17 0 28.5 -11.5t11.5 -27.5q0 -28 -31 -39t-102 -13q-21 -78 -21 -107q0 -3 1 -8t1 -8q0 -15 -11 -26.5t-27 -11.5q-19 0 -30.5 12.5t-11.5 33.5q0 37 18 114q-45 0 -119 2
q-21 -78 -21 -108q0 -3 1 -8t1 -8q0 -15 -11 -26.5t-27 -11.5q-19 0 -30.5 12.5t-11.5 33.5q0 38 20 120q-32 1 -43.5 10t-11.5 30q0 16 11 28.5t28 12.5q3 0 8 -1.5t28 -1.5l14 50q-27 1 -40 1t-21 1.5t-9.5 2t-3.5 4t-4 5.5zM195 427l-15 -50q36 -1 113 -1h4q3 12 14 50
h-29q-59 0 -87 1z" />
    <glyph glyph-name="dollar" unicode="$" 
d="M358 132q0 -54 -36 -92t-93 -46q2 -12 4 -20.5t2 -13.5q0 -16 -11.5 -27.5t-27.5 -11.5q-19 0 -29.5 18t-15.5 61q-63 19 -102 77t-42 141q0 16 11.5 29t27.5 13q17 0 29 -11.5t12 -27.5q0 -90 58 -131q-2 104 -2 204q-109 96 -109 187q0 63 32.5 107.5t82.5 49.5
q1 50 8.5 63t31.5 13q16 0 28.5 -11t12.5 -28v-6l-3 -48q100 -56 130 -233q0 -20 -10 -33.5t-30 -13.5q-14 0 -25.5 9.5t-13.5 24.5q-15 91 -52 142q-2 -110 -2 -186q64 -53 99 -98.5t35 -100.5zM114 480q0 -38 30 -76q2 95 3 151q-33 -17 -33 -75zM225 74q52 13 52 59
q0 44 -54 93q0 -66 2 -152z" />
    <glyph glyph-name="percent" unicode="%" horiz-adv-x="519" 
d="M445 678q2 1 8 1q15 0 27.5 -12t12.5 -29q0 -18 -16 -31l-91 -131l-185 -273.5t-98 -161.5q-7 -34 -39 -34q-17 0 -29 13.5t-12 30.5q0 25 101 180.5l199 294.5t103 144q14 7 19 8zM475 78q16 -12 16 -31q0 -20 -11.5 -34.5t-31.5 -14.5q-16 0 -26.5 10t-12.5 25l-3 7
q-2 8 -2 11q0 16 12 28t29 12q15 0 25 -10zM105 668q16 -12 16 -31q0 -20 -11.5 -34.5t-31.5 -14.5q-16 0 -26.5 10t-12.5 25l-3 7q-2 8 -2 11q0 16 12 28t29 12q15 0 25 -10z" />
    <glyph glyph-name="ampersand" unicode="&#x26;" horiz-adv-x="501" 
d="M423 -13q-63 0 -122 90q-109 -69 -177 -69q-56 0 -77 29t-21 66q0 74 112 281q-30 75 -30 141q0 75 33 122.5t85 47.5q40 0 65 -30t25 -73q0 -26 -13 -61.5t-25.5 -59l-49.5 -91.5q16 -33 49 -93.5t49 -92.5q40 35 61 67.5t22.5 49.5t9.5 27t29 10q16 0 28 -12t12 -28
q0 -84 -122 -185q12 -20 24.5 -33.5t20 -17.5t11.5 -4q2 0 5 0.5t5 0.5q16 0 28.5 -12t12.5 -29q0 -19 -14 -30t-36 -11zM181 295q-35 -65 -55 -120.5t-20 -72.5q0 -10 2 -12t11 -2q52 0 142 58q-11 19 -37.5 70t-42.5 79zM226 616q-6 0 -14 -7t-16 -29t-8 -55q0 -14 4 -44
q44 80 44 111q0 24 -10 24z" />
    <glyph glyph-name="quotesingle" unicode="'" horiz-adv-x="144" 
d="M47 631q11 11 28 11q16 0 28.5 -11t12.5 -28q0 -1 -0.5 -3.5t-2 -9.5t-2.5 -19t-1.5 -36t-0.5 -55q0 -30 6 -65t6 -37q0 -16 -11.5 -27.5t-27.5 -11.5q-33 0 -43 38.5t-10 108.5q0 67 4 101t5.5 35.5z" />
    <glyph glyph-name="parenleft" unicode="(" horiz-adv-x="298" 
d="M233 -48q-18 0 -30 14q-109 125 -150.5 201.5t-41.5 151.5q0 73 38.5 148.5t129.5 183.5q12 14 30 14q16 0 28 -12t12 -28q0 -15 -9 -26q-79 -93 -114 -158.5t-35 -120.5q0 -61 43 -131.5t130 -169.5q9 -12 9 -26q0 -17 -11.5 -29t-28.5 -12z" />
    <glyph glyph-name="parenright" unicode=")" horiz-adv-x="300" 
d="M97 -68q-17 0 -28.5 12t-11.5 28q0 12 5 19q80 145 113.5 221.5t33.5 131.5q0 52 -37.5 106.5t-135.5 145.5q-13 12 -13 30q0 16 12 27.5t29 11.5q16 0 26 -10q114 -105 155 -168.5t44 -135.5q0 -69 -33.5 -152t-123.5 -246q-12 -21 -35 -21z" />
    <glyph glyph-name="asterisk" unicode="*" horiz-adv-x="337" 
d="M188 294q-11 -11 -28 -11q-16 0 -28.5 11t-12.5 27l1 1q0 1 0.5 5t1 9.5t1 15.5t1.5 22q-44 -22 -66 -22q-16 0 -28.5 12.5t-12.5 28.5q0 17 8 24.5t32 16.5t40 18q-12 8 -23 17l-19.5 15.5l-15 11.5t-9.5 8l-3 3q-10 12 -10 25q0 16 12 28.5t29 12.5q10 0 14 -1.5
t7 -4.5t15.5 -13.5t30.5 -23.5q-2 22 -5 42t-5 31t-2 13q0 17 11.5 28.5t27.5 11.5q29 0 40 -33t13 -99q18 13 31.5 24t17 15t8.5 7t7.5 3h11.5q17 0 29 -12.5t12 -28.5q0 -13 -10 -25l-70 -55q16 -10 39 -18.5t31.5 -15.5t8.5 -25q0 -16 -12 -28.5t-28 -12.5q-28 0 -77 28
q-4 -74 -16 -86z" />
    <glyph glyph-name="plus" unicode="+" horiz-adv-x="364" 
d="M205 137q-11 -11 -28 -11q-16 0 -28.5 11t-12.5 27l5 66q1 13 1 27q-52 1 -80.5 4.5t-32 6t-8.5 7.5q-11 10 -11 28q0 16 11 28.5t28 12.5h1q1 -1 3.5 -1.5t7 -1t11.5 -1t16.5 -1t23.5 -1.5t31 -1q0 31 -3.5 59.5t-6.5 44.5t-3 18q0 17 11.5 28.5t27.5 11.5
q32 0 42.5 -39.5t11.5 -122.5q21 1 42 4t33 5.5t15 2.5q17 0 28.5 -11.5t11.5 -27.5q0 -30 -34 -41t-97 -12q-3 -106 -17 -120z" />
    <glyph glyph-name="comma" unicode="," horiz-adv-x="197" 
d="M75 -186q-16 0 -28 12.5t-12 27.5q0 14 16 30.5t32 39.5t16 54q0 34 -11 34q-7 0 -15 -2t-11 -2q-16 0 -28 11t-12 28q0 44 64 44q42 0 67.5 -30.5t25.5 -82.5q0 -64 -37.5 -114t-66.5 -50z" />
    <glyph glyph-name="hyphen" unicode="-" horiz-adv-x="293" 
d="M30 245q-11 10 -11 28q0 16 11 28.5t28 12.5q2 0 7 -2t24.5 -3.5t57.5 -1.5q21 0 50.5 6t34.5 6q17 0 28.5 -11.5t11.5 -27.5q0 -53 -128 -53q-23 0 -46.5 2t-36.5 3.5t-14 2.5q-11 3 -17 10z" />
    <glyph glyph-name="period" unicode="." horiz-adv-x="133" 
d="M94 78q16 -12 16 -31q0 -20 -11.5 -34.5t-31.5 -14.5q-16 0 -26.5 10t-12.5 25l-3 7q-2 8 -2 11q0 16 12 28t29 12q15 0 25 -10z" />
    <glyph glyph-name="zero" unicode="0" horiz-adv-x="458" 
d="M444 359q0 -54 -13.5 -112.5t-39 -112t-68.5 -88t-95 -34.5q-61 1 -110 50.5t-75 127.5t-28 167q0 142 59 239.5t153 103.5q18 0 30 -11.5t12 -30.5q78 -25 125 -106.5t50 -192.5zM286 120q36 36 57 104t21 129q0 98 -43 165.5t-110 67.5h-7q-18 0 -27 11
q-40 -31 -61 -94.5t-21 -138.5q0 -30 6.5 -71.5t20.5 -88.5t42 -79.5t64 -32.5q30 0 58 28z" />
    <glyph glyph-name="one" unicode="1" horiz-adv-x="244" 
d="M127 2q-17 0 -28.5 12t-11.5 28q0 6 1 9q61 268 61 463q0 38 -5 80q-40 -77 -57 -119q-10 -24 -37 -24q-17 0 -28.5 11.5t-11.5 27.5q0 9 3 16q41 102 74.5 145t66.5 43q25 0 41.5 -15.5t23 -43.5t8.5 -50t2 -53q0 -233 -63 -499q-3 -13 -14.5 -22t-24.5 -9z" />
    <glyph glyph-name="two" unicode="2" horiz-adv-x="459" 
d="M172 -4q-161 0 -161 83q0 41 47 116t123.5 178.5t109.5 159.5q39 66 39 94q-8 4 -23 4q-25 0 -58.5 -25.5t-56.5 -68.5q-11 -21 -35 -21q-18 0 -29 12.5t-11 27.5q0 12 5 19q33 61 84 98.5t101 37.5q60 0 81.5 -27.5t21.5 -59.5q0 -44 -45 -120.5t-128 -189.5t-109 -154
q-25 -39 -37 -75q20 -9 79 -9q87 0 224 21l3 1q1 0 3.5 0.5t3.5 0.5q16 0 28 -12t12 -29q0 -14 -10 -25.5t-24 -13.5q-143 -23 -238 -23z" />
    <glyph glyph-name="three" unicode="3" horiz-adv-x="412" 
d="M216 0q-82 0 -144 40.5t-62 96.5q0 17 12 28.5t28 11.5t28 -11.5t12 -28.5q0 -18 40 -37.5t86 -19.5q50 0 76.5 32t26.5 74q0 52 -37.5 84t-100.5 32q-17 0 -28.5 11.5t-11.5 28.5q0 25 22 36q43 22 78.5 78t35.5 109q0 55 -57 55q-25 0 -63.5 -12t-43.5 -12
q-16 0 -28 11.5t-12 28.5q0 18 18 31.5t44.5 19.5t48 9t37.5 3q62 0 98.5 -36t36.5 -99q0 -48 -22 -103t-59 -95q61 -24 92.5 -72t31.5 -108q0 -78 -52.5 -132t-130.5 -54z" />
    <glyph glyph-name="four" unicode="4" horiz-adv-x="475" 
d="M428 286q16 0 28 -12t12 -28q0 -42 -71 -42q-7 0 -20 0.5t-19 0.5h-10q0 -28 3.5 -81t3.5 -77q0 -15 -10 -27t-25 -12q-41 0 -44 36q-6 60 -8 160h-25q-4 0 -17.5 -0.5t-22.5 -0.5q-185 0 -185 108q0 48 52 124q58 85 208 232q0 18 11 30.5t28 12.5t29 -11.5t12 -27.5
q0 -51 -5 -182t-5 -204q26 1 80 1zM157 287q46 -4 80 -4q5 0 15 0.5t16 0.5q0 44 3 133.5t3 132.5q-99 -102 -139 -160q-37 -53 -37 -79l1 -4q0 -1 3 -4t17.5 -8t37.5 -8z" />
    <glyph glyph-name="five" unicode="5" horiz-adv-x="418" 
d="M149 -1q-133 0 -133 52q0 18 12 29.5t28 11.5q7 0 10 -1q43 -12 83 -12q69 0 115.5 37.5t46.5 98.5q0 51 -37 81t-97 30q-13 0 -44 -6t-48 -6q-62 0 -62 99q0 63 11.5 117t23 79t19.5 31q32 26 86.5 38t140.5 20q15 1 28.5 3l20 3t8.5 1q16 0 28 -11.5t12 -28.5
q0 -30 -28 -38q-3 -1 -52.5 -5t-105.5 -14t-84 -28q-6 -15 -17 -74.5t-11 -93.5v-13q42 8 73 8q95 0 155 -55t60 -137q0 -92 -70.5 -154t-171.5 -62z" />
    <glyph glyph-name="six" unicode="6" horiz-adv-x="430" 
d="M197 -9q-85 0 -133.5 76t-48.5 207q0 104 32 201t94 161.5t138 64.5q16 0 28 -11.5t12 -28.5q0 -15 -10 -27t-26 -13q-62 -6 -107 -67.5t-66 -152.5q51 17 94 17q89 0 144.5 -63.5t55.5 -151.5q0 -94 -59 -153t-148 -59zM96 311q-1 -17 -1 -49q3 -77 26 -133t65 -58
q63 0 100.5 33.5t37.5 98.5q0 56 -33 95.5t-88 39.5q-43 0 -96 -24q-4 -3 -11 -3z" />
    <glyph glyph-name="seven" unicode="7" horiz-adv-x="392" 
d="M71 3q-17 0 -28.5 12t-11.5 27q0 6 3 14q41 115 131.5 286.5t120.5 253.5q10 26 10 39q-15 0 -102 -27t-140 -27q-16 0 -28 12t-12 28q0 15 10 26.5t25 13.5q35 5 122 29.5t122 24.5q34 0 58.5 -19.5t24.5 -57.5q0 -31 -15 -70q-32 -86 -122 -256.5t-130 -282.5
q-10 -26 -38 -26z" />
    <glyph glyph-name="eight" unicode="8" horiz-adv-x="436" 
d="M422 200v-6q0 -73 -62 -130t-143 -57q-92 0 -147.5 62t-55.5 128q0 116 89 159q-54 64 -54 144q0 69 29 112t84 54q9 28 36 28q79 0 130.5 -58t51.5 -141q0 -82 -56 -142q42 -21 69 -64.5t29 -88.5zM311 126q31 32 31 67q0 39 -31 72.5t-90 37.5q-4 0 -11 -2.5t-11 -2.5
q-105 -4 -105 -96q0 -39 34 -77t88 -38q58 0 95 39zM145 569q-16 -20 -16 -67q0 -43 25 -81q3 -5 6 -9t5.5 -7t6 -5.5t5 -4t6 -3t6 -2.5t7 -2t7 -1.5t8.5 -2t9 -1.5q36 4 58 41t22 72q0 38 -18 69t-49 44q-11 -18 -32 -18q-39 0 -56 -22z" />
    <glyph glyph-name="nine" unicode="9" horiz-adv-x="414" 
d="M134 1q-78 0 -78 45q0 17 12 28.5t28 11.5q7 0 20 -2.5t19 -2.5q48 0 88 43t67 118q-37 -9 -71 -9q-92 0 -146 58.5t-54 152.5q0 103 53 179.5t124 76.5q87 0 143.5 -88t56.5 -213q0 -163 -78.5 -280.5t-183.5 -117.5zM198 620q-38 0 -68.5 -54.5t-30.5 -119.5
q0 -62 30 -97.5t88 -35.5q41 0 94 18q5 38 5 69q0 85 -34 152.5t-84 67.5z" />
    <glyph glyph-name="colon" unicode=":" horiz-adv-x="140" 
d="M98 438q16 -12 16 -31q0 -20 -11.5 -34.5t-31.5 -14.5q-16 0 -26.5 10t-12.5 25l-3 7q-2 8 -2 11q0 16 12 28t29 12q15 0 25 -10zM98 78q16 -12 16 -31q0 -20 -11.5 -34.5t-31.5 -14.5q-16 0 -26.5 10t-12.5 25l-3 7q-2 8 -2 11q0 16 12 28t29 12q15 0 25 -10z" />
    <glyph glyph-name="semicolon" unicode=";" horiz-adv-x="197" 
d="M75 -186q-16 0 -28 12.5t-12 27.5q0 14 16 30.5t32 39.5t16 54q0 34 -11 34q-7 0 -15 -2t-11 -2q-16 0 -28 11t-12 28q0 44 64 44q42 0 67.5 -30.5t25.5 -82.5q0 -64 -37.5 -114t-66.5 -50zM98 438q16 -12 16 -31q0 -20 -11.5 -34.5t-31.5 -14.5q-16 0 -26.5 10t-12.5 25
l-3 7q-2 8 -2 11q0 16 12 28t29 12q15 0 25 -10z" />
    <glyph glyph-name="equal" unicode="=" horiz-adv-x="352" 
d="M35 264q-11 10 -11 28q0 16 11 28.5t28 12.5q1 0 3.5 -0.5t9.5 -1.5t18.5 -2.5t35.5 -2t55 -0.5q30 0 65.5 6t36.5 6q17 0 28.5 -11.5t11.5 -27.5q0 -33 -38.5 -43t-108.5 -10q-67 0 -101.5 4t-35.5 5.5t-8 8.5zM35 394q-11 10 -11 28q0 16 11 28.5t28 12.5q1 0 3.5 -0.5
t9.5 -1.5t18.5 -2.5t35.5 -2t55 -0.5q30 0 65.5 6t36.5 6q17 0 28.5 -11.5t11.5 -27.5q0 -33 -38.5 -43t-108.5 -10q-67 0 -101.5 4t-35.5 5.5t-8 8.5z" />
    <glyph glyph-name="question" unicode="?" horiz-adv-x="349" 
d="M101 153q-17 0 -28.5 12t-11.5 28q0 7 1 10q19 76 54 145.5t66 109t54.5 75.5t23.5 57v6q0 34 -57 34q-62 0 -118 -45q-12 -9 -25 -9q-16 0 -28 11.5t-12 28.5q0 38 66 66t117 28q67 0 102 -32.5t35 -85.5q0 -32 -15.5 -65.5t-40 -66.5l-51 -70t-53 -91t-40.5 -115
q-3 -13 -14 -22t-25 -9zM131 78q16 -12 16 -31q0 -20 -11.5 -34.5t-31.5 -14.5q-16 0 -26.5 10t-12.5 25l-3 7q-2 8 -2 11q0 16 12 28t29 12q15 0 25 -10z" />
    <glyph glyph-name="at" unicode="@" horiz-adv-x="529" 
d="M274 6q-108 0 -179.5 98t-71.5 238q0 153 70.5 252t178.5 99q106 0 170 -89.5t64 -221.5q0 -80 -34 -136t-83 -56q-24 0 -61 25q-36 -53 -87 -53q-6 0 -11.5 0.5t-22.5 8t-28.5 21t-21.5 45t-10 74.5q0 69 14 121t34.5 78t39.5 38t35 12q10 0 23 -5t30.5 -18.5t29 -46
t11.5 -78.5q0 -54 -41 -54q-16 0 -27.5 12.5t-11.5 27.5v14q0 46 -14 66q-6 -6 -15 -22.5t-18.5 -57t-9.5 -88.5q0 -55 15 -67q19 3 45 62q10 25 36 25q25 0 37 -23q15 -30 28 -37q12 6 25 40t13 72q0 100 -43 165.5t-111 65.5q-66 0 -111 -61q-58 -78 -58 -210
q0 -110 50 -183t122 -73q55 0 122 42q9 6 21 6q16 0 28 -11.5t12 -28.5q0 -26 -38 -47.5t-79 -31t-67 -9.5z" />
    <glyph glyph-name="A" unicode="A" horiz-adv-x="497" 
d="M44 179q-16 0 -28 11.5t-12 28.5q0 15 6 24t20 12.5t27.5 4.5t37 2.5t40.5 3.5q45 126 94 322l15 60l1 5l2 10t4.5 12t8 12.5t13 9t18.5 3.5q38 0 42 -53l3 -42q17 -232 27 -295q10 3 25 8.5t24.5 8.5t15.5 3q15 0 27.5 -11t12.5 -28q0 -24 -22 -36t-69 -24
q11 -57 26 -100t26.5 -59.5t17.5 -16.5q17 0 28.5 -11.5t11.5 -28.5t-11.5 -28.5t-28.5 -11.5q-102 0 -149 237q-17 -4 -53 -10l-52 -9q-70 -177 -120 -177q-17 0 -28.5 12t-11.5 28q0 9 11 27l29 46.5t28 52.5q-33 -3 -57 -3zM269 427q-23 -83 -45 -148q4 1 61 12
q-11 86 -16 136z" />
    <glyph glyph-name="B" unicode="B" horiz-adv-x="530" 
d="M349 1q-77 0 -138.5 45.5t-68.5 141.5q-13 -116 -22 -160q-3 -14 -14.5 -23.5t-25.5 -9.5q-17 0 -28.5 11.5t-11.5 27.5q0 5 1 8l2 12q2 12 5 32.5t6.5 47t7 60t6.5 67.5t5 72t2 72q0 19 -2.5 54.5t-2.5 50.5q0 16 11 28.5t28 12.5q15 0 25 -8.5t14.5 -25.5t6 -32.5
t1.5 -38.5q0 -103 -10 -221q12 22 36 22q16 0 28 -11.5t12 -28.5q0 -57 35.5 -91.5t91.5 -34.5q33 0 62.5 16.5t29.5 53.5q0 62 -50.5 100.5t-105.5 38.5q-17 0 -28.5 12t-11.5 29t14 29q54 47 54 108q0 55 -41 87.5t-101 32.5q-48 0 -101 -19q-8 -2 -13 -2
q-16 0 -28.5 11.5t-12.5 28.5q0 33 51.5 47t102.5 14q96 0 159.5 -57t63.5 -143q0 -57 -32 -111q72 -23 116 -80.5t44 -125.5q0 -65 -49 -107.5t-123 -42.5z" />
    <glyph glyph-name="C" unicode="C" horiz-adv-x="490" 
d="M217 10h-13q-87 7 -138.5 94t-51.5 224q0 157 78 253.5t183 96.5q63 0 107.5 -48.5t44.5 -123.5q0 -38 -18 -74t-46 -36q-17 0 -29 11.5t-12 27.5q0 10 12.5 31t12.5 41q0 11 -2.5 23.5t-9 29.5t-22 27.5t-38.5 10.5q-77 0 -129 -78.5t-52 -192.5q0 -105 33.5 -171
t88.5 -66q50 0 102 54.5t83 157.5q8 28 39 28q17 0 28 -12t11 -28q0 -7 -1 -11q-36 -122 -107 -195.5t-154 -73.5z" />
    <glyph glyph-name="D" unicode="D" horiz-adv-x="521" 
d="M342 0q-70 0 -125.5 51.5t-75.5 132.5q-13 -116 -22 -160q-2 -14 -13.5 -23.5t-25.5 -9.5q-17 0 -29 11.5t-12 28.5q0 4 1 7t9 55.5t16.5 143.5t8.5 165q0 19 -2.5 54.5t-2.5 50.5q0 16 11.5 28t27.5 12q45 0 45 -98q0 -129 -8 -224q11 18 33 18q14 0 25.5 -9t14.5 -23
q12 -63 47.5 -97t75.5 -34q86 0 86 158q0 134 -76 230q-83 102 -218 102q-11 0 -36.5 -3.5t-39.5 -3.5q-17 0 -29 12t-12 28q0 47 113 47q166 0 272.5 -119.5t106.5 -293.5q0 -103 -42.5 -170t-123.5 -67z" />
    <glyph glyph-name="E" unicode="E" horiz-adv-x="437" 
d="M103 395q7 1 61 6t86 11t48 15q10 5 19 5q16 0 28 -11.5t12 -28.5q0 -18 -17 -31.5t-48.5 -20.5t-61 -11t-71.5 -8.5t-62 -7.5v-3q-1 -12 -1 -34q0 -66 9 -108.5t25 -60t29.5 -22.5t31.5 -5q30 0 76.5 9t77 18t31.5 10q8 2 12 2q16 0 28 -11.5t12 -28.5q0 -30 -28 -38
q-7 -3 -37.5 -11.5t-83 -19t-88.5 -10.5q-85 0 -130 69.5t-45 205.5q0 134 38 332q8 45 54 61q18 6 80.5 13.5t108.5 22.5q4 1 11 1q16 0 28 -11.5t12 -28.5q0 -15 -12 -26.5t-35 -18t-40.5 -9.5t-43 -6t-28.5 -3l-43 -6l-14 -4q-21 -112 -29 -197z" />
    <glyph glyph-name="F" unicode="F" horiz-adv-x="419" 
d="M100 0q-14 0 -25.5 9.5t-13.5 24.5q-14 104 -14 211q0 45 1 68q-15 2 -25.5 12.5t-10.5 27.5q0 10 4 17t7 9t14.5 7t14.5 7q6 91 23 212q6 41 45.5 54.5t118 19t127.5 20.5q8 2 12 2q16 0 27.5 -11.5t11.5 -28.5q0 -30 -28 -38q-42 -13 -97 -18.5t-92.5 -8t-46.5 -8.5
q-15 -109 -20 -187q10 0 16 1q172 14 179 28q1 2 10 2q16 0 28 -11.5t12 -28.5q0 -35 -52 -48t-171 -21q-20 -2 -27 -2q-2 -50 -2 -73q0 -103 14 -203q0 -41 -34 -45h-6z" />
    <glyph glyph-name="G" unicode="G" horiz-adv-x="520" 
d="M232 10h-15q-96 7 -149 96t-53 228q0 150 72.5 247t178.5 97q67 0 113 -47t46 -117q0 -35 -13.5 -64.5t-40.5 -29.5q-17 0 -28 12.5t-11 27.5q0 7 6.5 24.5t6.5 29.5q0 31 -18 57.5t-61 26.5q-75 0 -123 -77t-48 -190q0 -111 36.5 -176t100.5 -65q52 0 101 43.5t80 114.5
q-106 0 -149 -26q-4 -12 -15 -20.5t-24 -8.5q-17 0 -28.5 11.5t-11.5 28.5q0 23 18 41t49 28t61.5 16.5t68 9t54 3t34.5 0.5q17 0 29 -11.5t12 -29.5q0 -3 -2 -11q-36 -121 -112.5 -195t-164.5 -74z" />
    <glyph glyph-name="H" unicode="H" horiz-adv-x="571" 
d="M517 -35q-27 0 -54 49.5t-43.5 106t-24.5 104.5q-70 -19 -185 -27q-3 -20 -10 -77t-13 -90q-3 -14 -14.5 -23t-24.5 -9h-8q-14 2 -23.5 13.5t-9.5 26.5q0 4 1 7v4q-52 49 -76 82q-23 33 -23 62q0 32 28.5 51.5t98.5 28.5q2 52 2 78q0 146 -36 307q-1 3 -1 8q0 16 12 28.5
t29 12.5q31 0 38 -31q38 -178 38 -332q0 -44 -1 -66q108 8 169 27v11q0 5 -0.5 13t-0.5 13q0 75 17 151q14 67 40 125.5t57 58.5q17 0 28 -12t11 -27q0 -12 -5 -21q-68 -118 -68 -275q3 2 14 12t19.5 14.5t17.5 4.5q16 0 28 -12t12 -28q0 -39 -85 -80q19 -131 80 -228
q5 -9 5 -21q0 -16 -11 -28t-28 -12zM124 146l6 47q-8 -2 -16.5 -3t-13 -2t-7.5 -2q6 -12 31 -40z" />
    <glyph glyph-name="I" unicode="I" horiz-adv-x="125" 
d="M61 14q-16 0 -27.5 11.5t-12.5 27.5q-3 93 -3 202q0 241 11 381q1 16 12.5 26.5t28.5 10.5t28 -13t11 -30q-11 -156 -11 -376q0 -36 1.5 -103t1.5 -96q0 -17 -10.5 -28.5t-27.5 -12.5h-2z" />
    <glyph glyph-name="J" unicode="J" horiz-adv-x="562" 
d="M107 532q-98 0 -98 97q0 17 11.5 28.5t28.5 11.5q19 0 28.5 -14.5t12.5 -28.5t7 -14q37 0 169.5 44.5t188.5 44.5q37 0 68.5 -14.5t31.5 -42.5q0 -16 -12 -28t-28 -12q-9 0 -21.5 8.5t-35.5 8.5q-4 0 -20 -2.5t-26 -2.5q18 -105 18 -205q0 -192 -69.5 -293t-197.5 -101
q-17 0 -28.5 11.5t-11.5 28.5t11.5 28.5t28.5 11.5q187 0 187 316q0 64 -15 181l-51 -18q-123 -44 -177 -44z" />
    <glyph glyph-name="K" unicode="K" horiz-adv-x="504" 
d="M446 15q-16 0 -27 10t-13 25q-10 80 -59 135.5t-127 80.5l-61 -110l-45.5 -86.5t-15.5 -31.5q-11 -21 -36 -21q-18 0 -29 12.5t-11 29.5q0 -1 1 21.5t2.5 60.5t3 83t2.5 97.5t1 94.5q0 57 -1.5 98t-3.5 60t-4 29.5t-3.5 15t-1.5 7.5q0 16 11.5 28t28.5 12q28 0 38 -27
q16 -53 16 -226q0 -90 -3 -182l78 140q97 170 154.5 242.5t97.5 72.5q17 0 28.5 -12t11.5 -28q0 -15 -10 -26.5t-24 -13.5q-25 -17 -78 -95q-53 -79 -107 -174q200 -77 226 -277q0 -19 -10.5 -32t-29.5 -13z" />
    <glyph glyph-name="L" unicode="L" horiz-adv-x="458" 
d="M185 16q-91 0 -129 72.5t-38 261.5q0 116 15 285q1 16 12.5 26t26.5 10q18 0 29.5 -12.5t11.5 -30.5q-15 -168 -15 -281q0 -60 4.5 -107t10.5 -71.5t14 -41t12.5 -21t8.5 -6.5q15 -5 35 -5q30 0 110.5 15.5t123.5 15.5q16 0 28 -11.5t12 -28.5q0 -15 -10 -27t-26 -13
q-30 -3 -114.5 -16.5t-121.5 -13.5z" />
    <glyph glyph-name="M" unicode="M" horiz-adv-x="702" 
d="M650 -25q-25 0 -47.5 12t-46 40.5t-41.5 87t-26 141.5q-47 -145 -150 -145q-104 0 -150 193l-3 -18q-24 -122 -59.5 -203t-75.5 -81q-17 0 -28.5 12t-11.5 28q0 8 9.5 24t23.5 37t32 73.5t31 124.5q17 92 34 272l4 42q4 26 13 39t29 13q38 0 43 -50l3 -34
q5 -78 12.5 -141t16.5 -103t19.5 -69.5t19 -44t18 -23t14 -10t8.5 -1.5q86 0 104 347q3 57 8.5 93t15 50.5t17 18.5t20.5 4q36 0 44 -41q3 -11 6 -174t24 -298.5t70 -135.5q17 0 28.5 -11.5t11.5 -28.5t-12 -28.5t-28 -11.5z" />
    <glyph glyph-name="N" unicode="N" horiz-adv-x="563" 
d="M398 2q-53 0 -99.5 57.5t-92.5 177.5l-22 63q-6 -86 -27 -157q-17 -53 -47.5 -97t-59.5 -44q-16 0 -28 11.5t-12 28.5q0 19 15 31q83 68 83 328q0 34 -2 70.5t-4.5 70t-3.5 45.5l-2 37q0 18 10 29t17.5 12.5t13.5 1.5q30 0 43 -44l8 -37l23 -88t30.5 -105.5t37 -113
t39 -98t42 -73t39.5 -26.5q66 0 66 243q0 63 -5.5 167.5t-5.5 123.5q0 88 51 88q17 0 28.5 -11.5t11.5 -28.5q0 -8 -5.5 -19t-5.5 -27q0 -22 5.5 -124t5.5 -166q0 -313 -137 -326h-10z" />
    <glyph glyph-name="O" unicode="O" horiz-adv-x="519" 
d="M217 13q-94 0 -149 68t-55 184q0 161 88.5 290.5t202.5 129.5q102 0 119 -95q40 0 61.5 -51.5t21.5 -113.5q0 -165 -89.5 -288.5t-199.5 -123.5zM304 605q-82 0 -146 -107q-65 -106 -65 -233q0 -81 31.5 -126.5t92.5 -45.5q75 0 142 103t67 229q0 35 -8 64l-4 -16
q-3 -12 -14.5 -20.5t-23.5 -8.5q-18 0 -29.5 12t-11.5 28q0 14 5.5 38.5t5.5 33.5q0 13 -0.5 18.5t-4 14.5t-12.5 12.5t-25 3.5z" />
    <glyph glyph-name="P" unicode="P" horiz-adv-x="470" 
d="M161 196q-36 0 -50 17q-11 -150 -15 -179q-1 -16 -12.5 -26t-26.5 -10h-4q-16 1 -26 13t-10 27q0 2 2.5 32t6 77.5l7.5 103t6.5 121t2.5 119.5q0 6 -1 16.5t-1 15.5q0 1 0.5 2.5t0.5 2.5q0 20 -2.5 54t-2.5 47q0 17 11.5 28t28.5 11q41 0 41 -58q43 34 97 53.5t102 19.5
q73 0 111.5 -44t38.5 -115q0 -125 -99 -226.5t-206 -101.5zM122 507q0 -83 -8 -243q13 13 31 13q3 0 8 -0.5t8 -0.5q75 0 150 80t75 167q0 80 -68 80q-45 0 -99.5 -25t-96.5 -71z" />
    <glyph glyph-name="Q" unicode="Q" horiz-adv-x="551" 
d="M215 13q-94 0 -149 68t-55 184q0 161 88.5 290.5t202.5 129.5q102 0 119 -95q40 0 61.5 -51.5t21.5 -113.5q0 -91 -36 -184.5t-91 -152.5l13 -10q72 -57 92 -57q2 0 7 1.5t8 1.5q16 0 28.5 -11.5t12.5 -28.5q0 -20 -16.5 -31.5t-39.5 -11.5q-21 0 -47 12.5t-42 24
l-52 38.5l-29 22q-46 -25 -97 -25zM302 605q-82 0 -146 -107q-65 -106 -65 -233q0 -81 31.5 -126.5t91.5 -45.5l-11 2q-16 1 -26 12.5t-10 26.5q0 17 12 28.5t27 11.5q43 0 105 -38q47 45 80 129t33 160q0 35 -8 64l-4 -16q-3 -12 -14.5 -20.5t-23.5 -8.5q-18 0 -29.5 12
t-11.5 28q0 14 5.5 38.5t5.5 33.5q0 13 -0.5 18.5t-4 14.5t-12.5 12.5t-25 3.5z" />
    <glyph glyph-name="R" unicode="R" horiz-adv-x="492" 
d="M406 4q-17 1 -28.5 12.5t-11.5 27.5q0 83 -67 138.5t-136 62.5q-33 0 -45 20q-9 -125 -22 -226q-2 -15 -13.5 -25t-26.5 -10h-5q-15 2 -25 13.5t-10 26.5q0 1 8.5 80t17 194t8.5 202q0 23 -2.5 61t-2.5 53q0 16 11.5 28t28.5 12q20 0 30.5 -14.5t10.5 -36.5
q101 66 200 66q72 0 111 -41t39 -106q0 -72 -48 -143.5t-118 -112.5l-10 -5q68 -39 107 -98.5t39 -129.5q0 -49 -40 -49zM130 524q0 -99 -8 -213q13 15 31 15q10 0 15 -1q74 0 150.5 67.5t76.5 149.5q0 67 -71 67q-47 0 -100.5 -24t-93.5 -61z" />
    <glyph glyph-name="S" unicode="S" 
d="M209 16h-6q-81 3 -134.5 65.5t-56.5 160.5q0 16 11.5 29t27.5 13q17 0 29 -11.5t12 -27.5q2 -74 36 -111.5t78 -37.5q32 0 54 15.5t22 45.5q0 34 -23.5 61.5t-79.5 73.5q-67 54 -103.5 103t-36.5 110q0 66 35.5 111.5t89.5 46.5q72 0 125 -68t73 -183q0 -20 -10 -33.5
t-30 -13.5q-14 0 -25.5 9.5t-13.5 24.5q-15 92 -49.5 138t-65.5 46q-21 0 -35 -22.5t-14 -56.5q0 -39 25.5 -70.5t85.5 -79.5q63 -51 98 -97t35 -101q0 -59 -44 -99.5t-110 -40.5z" />
    <glyph glyph-name="T" unicode="T" horiz-adv-x="504" 
d="M239 17q-18 1 -29 13t-11 29l1 10q0 10 1 28t2 41.5t1.5 53.5t1.5 61t1.5 67t0.5 69q0 120 -7 198q-62 -13 -105 -13q-34 0 -62.5 13t-28.5 42q0 16 11.5 28t28.5 12q10 0 21.5 -8t31.5 -8q51 0 166 26t144 26q40 0 64.5 -18.5t24.5 -50.5q0 -16 -11.5 -28t-28.5 -12
q-15 0 -28.5 14.5t-19.5 14.5q-40 0 -129 -21q8 -81 8 -219q0 -232 -9 -331q-1 -16 -12.5 -26.5t-27.5 -10.5z" />
    <glyph glyph-name="U" unicode="U" horiz-adv-x="568" 
d="M513 -25q-59 0 -88.5 70t-33.5 223q-52 -132 -109.5 -194t-128.5 -62q-48 0 -80 42t-44.5 102t-12.5 133q0 87 14.5 179.5t37.5 149.5q10 25 37 25q17 0 28.5 -12t11.5 -28q0 -7 -3 -14q-20 -50 -33 -135t-13 -164q0 -85 16 -141.5t41 -56.5q139 0 259 545q3 13 14 22
t25 9q19 0 29.5 -13t10.5 -32l-1 -6q0 -6 -1.5 -17.5t-3 -27t-3 -35l-3 -41t-3 -46.5l-3 -49.5t-2 -51.5t-0.5 -52q0 -197 37 -238l5 -4q17 0 28.5 -11.5t11.5 -28.5t-11.5 -28.5t-28.5 -11.5z" />
    <glyph glyph-name="V" unicode="V" horiz-adv-x="492" 
d="M227 17q-61 0 -97 48t-47 125t-13 155t-3.5 156.5t-10.5 111.5q-1 3 -1 9q0 16 11.5 28.5t28.5 12.5q12 0 23.5 -8.5t15.5 -20.5q7 -29 10 -98t4.5 -140.5t7 -141t23 -113.5t48.5 -44q45 0 84 67t60 169t21 209q0 21 -4 60.5t-4 58.5q0 17 11.5 28.5t28.5 11.5
q15 0 25 -10t14.5 -29t6 -36.5t1.5 -42.5q0 -258 -67.5 -412t-176.5 -154z" />
    <glyph glyph-name="W" unicode="W" horiz-adv-x="659" 
d="M470 18q-36 0 -54 31.5t-21 73.5t-9.5 104.5t-19.5 103.5q-14 45 -39 45h-1q-27 0 -52 -53.5t-52 -140.5q-29 -96 -51.5 -127t-52.5 -31q-8 0 -16 2.5t-19 15t-15 34.5q-10 33 -23.5 250.5t-28.5 278.5q-1 3 -1 9q0 16 11 28.5t28 12.5q13 0 24.5 -8.5t15.5 -21.5
q10 -40 17 -120t13.5 -183.5t10.5 -149.5l10 33q18 59 33.5 98t37.5 77t49.5 57t61.5 19q33 0 58 -17t38.5 -41t23 -63t13 -69t7.5 -73.5t7 -63.5q36 71 58.5 201t22.5 239q0 20 -3 55t-3 50q0 17 11.5 28.5t28.5 11.5q28 0 37 -28.5t9 -75.5q0 -171 -29 -314
q-24 -118 -58.5 -198t-77.5 -80z" />
    <glyph glyph-name="X" unicode="X" horiz-adv-x="555" 
d="M54 16q-17 0 -28.5 12t-11.5 28q0 4 2 12q25 84 116 182q-98 174 -98 385q0 17 12 28.5t28 11.5t28 -11.5t12 -28.5q0 -174 77 -326l2 2l60.5 61.5t53 62t49 72t32 77.5t17.5 93q1 16 12.5 26.5t26.5 10.5q18 0 29.5 -12t11.5 -30q-3 -56 -20 -109.5t-36.5 -90.5
t-56 -82.5t-58 -68.5l-64.5 -66l-16 -16q107 -144 248 -144q2 0 8 0.5t9 0.5q17 0 29.5 -10.5t12.5 -27.5q0 -43 -59 -43q-176 0 -304 165q-65 -69 -85 -136q-4 -12 -15.5 -20t-23.5 -8z" />
    <glyph glyph-name="Y" unicode="Y" horiz-adv-x="462" 
d="M113 0q-17 0 -28.5 11.5t-11.5 28.5t11.5 28.5t27.5 11.5q60 0 105.5 19.5t73.5 51t46 76t24.5 90t6.5 97.5q0 34 -1 50q-24 -76 -46 -125q-12 -27 -24 -46.5t-30 -42t-42 -35t-51 -12.5q-152 0 -152 352q0 92 46 92q16 0 27.5 -12t11.5 -28q0 -18 -2 -51t-2 -47
q0 -63 7 -109t16 -67.5t21 -34t17.5 -14t9.5 -1.5q21 0 41.5 25.5t40.5 78.5t35.5 103l38.5 130q5 17 7 25l5 16q8 29 39 29q13 0 24 -8.5t14 -21.5q29 -145 29 -247q0 -199 -87 -306t-248 -107z" />
    <glyph glyph-name="Z" unicode="Z" horiz-adv-x="513" 
d="M205 0q-84 0 -138 32t-55 97q0 55 34.5 114.5t85.5 109.5t103 94.5t93.5 83.5t49.5 62q-35 0 -143 -23q-10 -2 -32.5 -8.5t-41 -10.5t-33.5 -4q-16 0 -29 12t-13 29q0 12 9.5 24t23.5 15q34 6 89 18.5t94.5 20t67.5 7.5q37 0 63.5 -17.5t26.5 -54.5q0 -39 -38 -86.5
t-92 -93l-108 -92t-92 -99.5t-38 -100q0 -50 112 -50q47 0 91 8q59 10 95.5 23t49 21t20.5 8q16 0 28 -12t12 -29q0 -42 -98.5 -70.5t-196.5 -28.5z" />
    <glyph glyph-name="bracketleft" unicode="[" horiz-adv-x="403" 
d="M177 -85q-61 0 -102 45q-46 48 -46 323q0 91 5.5 180.5t11.5 112.5q12 47 71.5 61.5t158.5 14.5q3 0 11.5 -1t12 -1.5t10.5 -2t10 -3t8 -4.5t7 -7t3.5 -9.5t1.5 -12.5q0 -17 -12 -28.5t-28 -11.5t-24 1q-72 0 -103 -4q-41 -4 -49 -13q-15 -100 -15 -268q0 -240 25 -273
q19 -20 43 -20q12 0 72.5 16.5t100.5 16.5q16 0 28 -11.5t12 -28.5t-12 -28.5t-28 -11.5q-28 0 -85 -16t-88 -16z" />
    <glyph glyph-name="bracketright" unicode="]" horiz-adv-x="416" 
d="M265 -91q-21 0 -74 5.5t-80 5.5q-11 0 -30 -2.5t-26 -2.5q-16 0 -28 11.5t-12 27.5q0 21 17.5 32t34 12.5t44.5 1.5q29 0 81 -5.5t70 -5.5q7 0 14.5 0.5t8.5 0.5q21 105 21 354q0 74 -5.5 131t-9.5 75t-6 22q-12 12 -32 12q-12 0 -64.5 -13t-82.5 -13q-56 0 -56 41
q0 17 12.5 28.5t28.5 11.5q2 0 7.5 -0.5t8.5 -0.5q17 0 67 13t77 13q55 0 92 -36q43 -43 43 -286q0 -109 -7.5 -220t-17.5 -155q-14 -58 -96 -58z" />
    <glyph glyph-name="underscore" unicode="_" horiz-adv-x="486" 
d="M31 -198q-11 10 -11 28q0 16 11 28.5t28 12.5q4 0 12 -2q108 -5 203 -5q27 0 51.5 1t41 3t29 4t19.5 3t8 1q17 0 28.5 -11.5t11.5 -27.5q0 -33 -45.5 -43t-153.5 -10q-218 0 -233 18z" />
    <glyph glyph-name="grave" unicode="`" horiz-adv-x="178" 
d="M131 535q-9 0 -19 5q-5 2 -21 13t-41.5 39t-38.5 60q-3 8 -3 14q0 16 11.5 28.5t28.5 12.5q26 0 37 -26q5 -12 13.5 -24t17 -20t16.5 -14t13 -9l5 -4q21 -11 21 -35q0 -16 -12 -28t-28 -12z" />
    <glyph glyph-name="a" unicode="a" horiz-adv-x="433" 
d="M387 58q14 -2 24 -13.5t10 -26.5q0 -16 -11.5 -28t-28.5 -12q-30 0 -51 23q-33 35 -42 131q-73 -130 -171 -130q-57 0 -84 67q-18 44 -18 113q0 71 14 126t35.5 83t42.5 42t39 14q83 0 123 -150q0 -3 1 -4q4 13 8 33.5t7 32.5t8 24.5t13.5 18.5t21.5 6q17 0 29 -11.5
t12 -28.5q0 -24 -2.5 -68t-2.5 -62q0 -149 23 -180zM226 185q16 31 31 72q-11 -11 -27 -11q-30 0 -38 30q-8 31 -19 53t-17 29t-10 9q-17 -11 -34 -69t-17 -114q0 -31 5 -56t9.5 -34.5t7.5 -11.5q55 0 109 103z" />
    <glyph glyph-name="b" unicode="b" horiz-adv-x="387" 
d="M281 442q57 0 84 -68q17 -45 17 -113q0 -71 -14 -125.5t-35.5 -83t-42.5 -42t-39 -13.5q-81 0 -121 147q-15 -59 -22 -108q-2 -15 -13.5 -24.5t-25.5 -9.5q-17 0 -28.5 11.5t-11.5 27.5q0 11 4.5 138t4.5 212q0 109 -3.5 168.5t-7 68.5t-7 14t-3.5 18q0 16 11.5 28
t28.5 12q18 0 32 -14q15 -16 22 -75t7 -204q0 -13 -0.5 -39.5t-0.5 -40.5q69 115 164 115zM299 212q3 25 3 51q0 30 -4.5 54t-9.5 33.5t-8 11.5q-26 0 -48.5 -17t-40 -48t-27.5 -53t-21 -54q10 8 24 8q31 0 39 -30q8 -32 18.5 -54t16.5 -28.5t10 -8.5q11 5 27 44.5t21 90.5z
" />
    <glyph glyph-name="c" unicode="c" horiz-adv-x="374" 
d="M345 225q20 -11 20 -35q0 -11 -4 -19q-41 -76 -97 -120.5t-110 -44.5q-66 0 -102.5 57t-36.5 149q0 100 52.5 167t130.5 67q44 0 73.5 -26.5t29.5 -69.5q0 -25 -10.5 -40.5t-30.5 -15.5q-18 0 -29.5 12t-11.5 29q0 2 1 7.5t1 8.5q0 15 -23 15q-45 0 -74 -44t-29 -109v-7
q0 -15 1.5 -31t7 -38.5t18 -37t31.5 -14.5q29 0 67 32.5t70 91.5q11 21 35 21q8 0 20 -5z" />
    <glyph glyph-name="d" unicode="d" horiz-adv-x="427" 
d="M387 55q25 -11 25 -37q0 -16 -12 -28t-28 -12q-24 0 -41 18q-33 35 -46 172q-64 -166 -177 -166q-57 0 -84 67q-18 44 -18 113q0 71 14 126t35.5 83t42.5 42t39 14q70 0 111 -112q27 148 32 320q1 16 12 27t27 11q17 0 29 -11.5t12 -27.5q0 -41 -2 -114.5t-2 -105.5
q0 -105 6.5 -195.5t13 -132t11.5 -51.5zM176 128q28 42 51 119q-1 0 -3 -0.5t-3 -0.5q-31 2 -39 30q-9 31 -19 53t-16.5 29t-9.5 8q-17 -5 -34 -66t-17 -119q0 -31 5 -55t9.5 -33t7.5 -11q37 0 68 46z" />
    <glyph glyph-name="e" unicode="e" horiz-adv-x="380" 
d="M340 226q28 -10 28 -39q0 -4 -2 -12q-26 -81 -77 -130t-110 -49q-56 0 -95 43.5t-50 117.5l-3 32q-19 12 -19 34q0 24 22 37q11 80 67 132t126 52q47 0 78 -27t31 -69q0 -60 -61.5 -104.5t-163.5 -55.5l3 -20q6 -42 23 -66.5t41 -24.5q29 0 61 31t51 92q8 28 38 28
q4 0 12 -2zM147 324q-20 -23 -29 -54q65 10 102 33.5t37 44.5q0 16 -31 16h-3q-45 -2 -76 -40z" />
    <glyph glyph-name="f" unicode="f" horiz-adv-x="327" 
d="M217 467q-14 11 -14 30q0 14 9 26q29 34 29 70q0 21 -27 21q-34 0 -58 -97.5t-29 -247.5q32 0 57.5 5.5t35.5 11.5l9 6q1 17 12.5 28t27.5 11q17 0 28.5 -11.5t11.5 -28.5q0 -46 -44 -71q-41 -23 -140 -32q0 -76 5 -186q0 -17 -10.5 -29t-27.5 -13h-2q-27 0 -36 28t-9 84
q0 17 0.5 55.5t0.5 59.5q-15 2 -25.5 13t-10.5 26q0 16 10.5 27t26.5 13q13 428 167 428q47 0 77 -29t30 -76q0 -9 -5.5 -37t-25 -61.5t-47.5 -33.5q-16 0 -26 10z" />
    <glyph glyph-name="g" unicode="g" horiz-adv-x="384" 
d="M367 376q0 -6 1.5 -59.5t1.5 -94.5q0 -219 -71.5 -341.5t-213.5 -132.5h-2q-15 0 -27.5 11.5t-12.5 26.5q0 16 10.5 28.5t27.5 13.5q53 3 92 27.5t62 68.5t35.5 95.5t16.5 118.5q-72 -136 -172 -136q-57 0 -84 67q-17 45 -17 113q0 73 14 128t36 83t42 41t38 13
q83 0 123 -149q5 15 10.5 42.5t9 41t14 25t26.5 11.5q18 0 29 -12t11 -30zM224 190q17 35 28 64q-11 -8 -24 -8t-23.5 8.5t-14.5 21.5q-9 31 -19 53t-16.5 29.5t-10.5 8.5q-17 -11 -34 -68.5t-17 -114.5q0 -31 4.5 -55.5t9.5 -34.5t9 -12q54 0 108 108z" />
    <glyph glyph-name="h" unicode="h" horiz-adv-x="379" 
d="M236 324l-3 25q-32 -40 -77 -155q-15 -38 -29 -79l-21 -63t-7 -23q-8 -29 -37 -29q-18 0 -30 12t-12 30q11 224 11 393q0 53 -1 93.5t-2.5 61.5t-3.5 35.5t-3.5 19t-2.5 8t-1 6.5q0 16 11 28t28 12q28 0 38 -27q18 -52 18 -315q0 -33 -3 -66l18 39.5t20.5 38.5t27.5 40
t31 24t39 12q26 0 41.5 -19t21.5 -57.5t8 -77t4 -97t6 -98.5q5 -48 15 -62q14 -2 24 -13.5t10 -26.5q0 -16 -11.5 -28t-28.5 -12q-22 0 -38.5 11.5t-26 35t-15.5 49.5t-9 63.5t-4 68.5t-2.5 73t-3.5 69z" />
    <glyph glyph-name="i" unicode="i" horiz-adv-x="189" 
d="M146 -37q-70 0 -100 74.5t-30 228.5q0 37 4 143q1 16 12.5 27.5t27.5 11.5t28 -12t12 -28q0 -22 -1.5 -69.5t-1.5 -70.5q0 -225 49 -225q16 0 28 -11.5t12 -28.5t-12 -28.5t-28 -11.5zM21 633q0 1 -3.5 9.5t-3.5 13.5q0 16 11.5 28.5t28.5 12.5q22 0 34.5 -20.5
t12.5 -42.5q0 -49 -40 -49h-1q-16 1 -27.5 12.5t-11.5 28.5v7z" />
    <glyph glyph-name="j" unicode="j" horiz-adv-x="319" 
d="M286 415q2 -7 6.5 -36.5t10 -91t5.5 -119.5q0 -199 -69 -305t-198 -106q-17 0 -28.5 11.5t-11.5 28.5t11.5 28.5t28.5 11.5q187 0 187 334q0 19 -0.5 39.5t-2 38l-3 35t-3 32t-3.5 27.5l-3.5 23t-3 17.5t-1.5 11.5l-1 4q-1 2 -1 7q0 16 11.5 28.5t28.5 12.5q14 0 25 -9
t15 -23zM250 634q0 -2 1 -7t1 -7q0 -17 -12 -28t-30 -11q-19 0 -30 15.5t-11 38.5q0 20 11.5 39.5t32.5 19.5q4 0 12 -2l1 -1q28 -10 28 -39q0 -10 -4 -18z" />
    <glyph glyph-name="k" unicode="k" horiz-adv-x="402" 
d="M370 128q29 -46 29 -85q0 -15 -11.5 -27t-28.5 -12q-14 0 -25.5 9.5t-13.5 24.5q-16 92 -130 92q-17 0 -25 -1l-34 -54l-25 -41l-9 -14q-11 -20 -34 -20q-17 0 -28.5 12t-11.5 28l1 25q1 25 3 66t3.5 89.5t2.5 105t1 102.5q0 55 -1 96.5t-3 63l-3.5 36.5t-3.5 20t-3 8.5
t-1 6.5q0 16 11.5 28t28.5 12q28 0 38 -27q17 -53 17 -242q0 -71 -1 -114l-3 -115q2 0 8 2l29 42q72 104 121.5 152t86.5 48q17 0 28.5 -11.5t11.5 -28.5q0 -16 -11 -27.5t-27 -12.5q-40 -16 -138 -156q101 -11 151 -81z" />
    <glyph glyph-name="l" unicode="l" horiz-adv-x="189" 
d="M145 53q17 0 28.5 -11.5t11.5 -28.5t-11.5 -28.5t-28.5 -11.5q-67 0 -98 79.5t-31 261.5q0 85 8 265q0 4 0.5 18.5t1 21t3 17.5t6.5 16.5t12 10t19 4.5q17 0 29 -12.5t11 -29.5l-2 -50q-8 -220 -8 -238q0 -75 4.5 -131.5t10 -84.5t13 -44.5t12.5 -20t9 -3.5z" />
    <glyph glyph-name="m" unicode="m" horiz-adv-x="594" 
d="M545 34q14 -2 23.5 -13.5t9.5 -26.5q0 -16 -12 -28t-28 -12q-29 0 -47 17.5t-26 53t-10.5 68.5t-2.5 84v57q0 88 -9 124q-39 -29 -79 -139q-13 -37 -25 -78.5t-17 -65.5l-6 -24q-3 -14 -13.5 -23t-23.5 -9q-17 0 -29.5 12t-12.5 28q0 64 -4 132q-5 75 -15 119
q-14 -23 -68.5 -150.5t-54.5 -133.5q-10 -26 -38 -26q-16 0 -28 12t-12 28t3.5 92t3.5 121q0 32 -4 79.5t-4 56.5q0 16 11.5 28.5t28.5 12.5t27.5 -10.5t15 -36t5 -44t0.5 -59.5v-18q36 79 62 116t58 37q11 0 20 -3.5t21 -15t22 -40t17 -71.5q64 159 154 159q19 0 32.5 -11
t21 -31.5t11 -45.5t4.5 -58.5t1 -64.5t1 -70t3 -68q3 -45 13 -61z" />
    <glyph glyph-name="n" unicode="n" 
d="M330 34q14 -2 23.5 -13.5t9.5 -26.5q0 -16 -11.5 -28t-28.5 -12q-23 0 -39.5 11.5t-25.5 34t-14 49t-6.5 63t-2 69t-1 74t-2.5 70.5l-2 23q-35 -50 -76 -154q-15 -38 -29 -79l-21 -63t-7 -23q-8 -29 -38 -29q-19 0 -29.5 13t-10.5 31l1 6q0 6 1 16.5t2 25t2 32l2 35.5
t1.5 38t0.5 38q0 46 -3.5 77.5t-7 44.5t-3.5 16q0 16 11.5 28t28.5 12q29 0 39 -30t14 -92q40 89 67 119q32 35 68 35q26 0 41.5 -19t21 -57t6.5 -76t1.5 -98t3.5 -100q3 -45 13 -61z" />
    <glyph glyph-name="o" unicode="o" horiz-adv-x="342" 
d="M206 446q48 0 84.5 -36t36.5 -84q0 -44 -28 -54q23 -39 23 -85q0 -79 -49.5 -130t-119.5 -51q-64 0 -102 45.5t-38 123.5q0 105 58 188t135 83zM246 320q0 1 0.5 2.5t0.5 3.5q0 12 -9.5 26t-31.5 14q-44 0 -78.5 -62t-34.5 -129q0 -89 60 -89q28 0 47 12t27 30.5t11 32
t3 25.5q0 22 -14 46t-14 33q0 13 9.5 25t22.5 14q0 1 -0.5 2.5t-0.5 2.5q0 3 2 11z" />
    <glyph glyph-name="p" unicode="p" horiz-adv-x="411" 
d="M299 440q61 0 88 -72q18 -48 18 -121q0 -128 -41 -190t-84 -62q-35 0 -68.5 30.5t-51.5 82.5q-25 -130 -33 -319v-2q0 -16 -11.5 -27.5t-28.5 -11.5h-1q-17 1 -28 13t-11 29v2q1 5 1 17q5 130 5 262q0 85 -3 144.5t-7 86t-9 41.5t-9 17.5t-7 7.5t-3 16q0 16 11.5 28
t28.5 12q30 0 46.5 -28.5t24.5 -102.5v-8q64 155 173 155zM324 223q0 5 0.5 13.5t0.5 12.5q0 31 -5.5 57.5t-11 39.5t-9.5 14q-7 0 -14.5 -2t-21 -11.5t-26.5 -26t-28.5 -49t-28.5 -76.5q2 1 6 1q31 0 39 -30q20 -79 55 -91q11 7 26 50.5t18 97.5z" />
    <glyph glyph-name="q" unicode="q" horiz-adv-x="405" 
d="M441 -214q0 -16 -11.5 -28t-28.5 -12q-66 0 -98.5 71t-37.5 219v57q-66 -89 -158 -89q-58 0 -84 67q-17 45 -17 113q0 72 14 126.5t35.5 82.5t42 41.5t38.5 13.5q83 0 123 -150q1 -4 1 -11q0 -16 -11 -27.5t-28 -11.5q-31 0 -39 30q-9 31 -19 53t-16 29t-10 8
q-16 -4 -34 -63.5t-18 -118.5q0 -32 5 -56.5t10 -34t8 -11.5q60 0 106.5 78t65.5 208q2 15 13.5 24.5t25.5 9.5q16 0 28 -11.5t12 -27.5q0 -14 -7 -119t-7 -177q0 -66 5.5 -115t12.5 -72.5t16 -37t13.5 -16t8.5 -2.5q17 0 28.5 -12t11.5 -28z" />
    <glyph glyph-name="r" unicode="r" horiz-adv-x="359" 
d="M315 231q16 0 27.5 -12t11.5 -28q0 -17 -12 -28.5t-28 -11.5q-38 0 -64 35t-33 134q-22 -46 -47 -126q-11 -37 -21.5 -77t-15.5 -62t-5 -23q-3 -14 -14 -23t-25 -9h-4q-16 1 -26 12.5t-10 27.5q0 73 -8.5 184t-23.5 156q-2 4 -2 13q0 16 11.5 28t28.5 12q16 0 26.5 -9
t16.5 -33t9 -44t8 -64q34 92 58 123q31 39 70 39t50 -53q3 -23 7 -64.5t7 -65.5t8 -31z" />
    <glyph glyph-name="s" unicode="s" horiz-adv-x="331" 
d="M280 213q40 -37 40 -83q0 -55 -45 -93t-105 -38q-46 0 -84 23q-27 17 -50.5 47t-23.5 59q0 16 11.5 28.5t28.5 12.5q30 0 38 -28q20 -62 79 -62q26 0 48 13.5t22 37.5q0 13 -15.5 25t-55.5 31q-63 30 -96.5 64t-33.5 85q0 47 30 78t78 31q36 0 85 -28.5t49 -71.5
q0 -16 -11.5 -27.5t-28.5 -11.5q-24 0 -35 20q-22 39 -59 39q-8 0 -13 -1t-10 -8t-5 -20q0 -23 18.5 -38.5t66.5 -38.5q53 -26 77 -45z" />
    <glyph glyph-name="t" unicode="t" horiz-adv-x="308" 
d="M263 427q17 0 28.5 -11.5t11.5 -28.5q0 -73 -137 -95q-4 0 -6 -1q0 -68 4.5 -118.5t10.5 -74.5t14 -38.5t12.5 -17t7.5 -2.5q17 0 28.5 -12t11.5 -28t-11.5 -28t-28.5 -12q-64 0 -96.5 76.5t-32.5 247.5q-22 -1 -69 -1q-17 0 -28.5 11.5t-11.5 28.5q0 41 70 41h39
q1 23 3.5 93t4.5 108l3 50q1 16 12 27.5t27 11.5q18 0 29.5 -12.5t11.5 -29.5l-3 -51q-5 -83 -7 -189q41 7 63 20q1 15 12.5 25t26.5 10z" />
    <glyph glyph-name="u" unicode="u" horiz-adv-x="459" 
d="M412 81q16 -1 27 -12.5t11 -27.5q0 -17 -12 -28.5t-28 -11.5q-87 0 -124 199q-42 -119 -88 -180t-91 -61q-27 0 -47 21q-43 45 -43 230q0 53 5 155q1 16 12 26.5t26 10.5q18 0 30 -11.5t12 -28.5q0 -31 -2.5 -82.5t-2.5 -72.5q0 -122 16 -162q38 30 80.5 136t70.5 233
q3 13 14 22t25 9q16 0 27.5 -11t12.5 -27q0 -55 17 -162q23 -146 52 -164z" />
    <glyph glyph-name="v" unicode="v" horiz-adv-x="348" 
d="M24 291q0 23 -2.5 49.5t-5 44.5t-2.5 21q0 16 12 28t29 12q22 0 32.5 -19.5t13 -45.5t3.5 -68v-20q6 -213 49 -213q37 0 66 85t29 195q0 15 -3 45t-3 43q0 16 11.5 27.5t28.5 11.5q46 0 46 -101q0 -100 -10 -157q-22 -127 -73 -184q-40 -45 -92 -45q-28 0 -49 11t-34 34
t-22 47t-14 62t-6.5 66t-3.5 71z" />
    <glyph glyph-name="w" unicode="w" horiz-adv-x="539" 
d="M466 487q31 0 40.5 -26t9.5 -74q0 -173 -37 -280.5t-95 -107.5q-15 0 -31 8q-22 15 -33.5 72.5t-19.5 107t-22 49.5q-21 0 -54 -103q-21 -68 -42.5 -99t-58.5 -31q-31 0 -47.5 28.5t-20 76t-3 98t-1.5 105t-11 85.5q-2 6 -2 10q0 16 12 28t29 12q12 0 21 -7t14 -22.5
t8.5 -31t5 -41.5t2 -45.5t0.5 -50.5q0 -2 -0.5 -6.5t-0.5 -6.5q3 -101 3 -102l2 -18l13 41q25 80 53 120t78 40q30 0 51.5 -15.5t33.5 -44.5t17.5 -56.5t9.5 -63.5l3 -30q3 4 4 9q39 94 39 243q0 16 -2.5 46t-2.5 44q0 15 10 26.5t25 12.5z" />
    <glyph glyph-name="x" unicode="x" horiz-adv-x="397" 
d="M345 80q17 0 28.5 -12t11.5 -28t-11.5 -28t-28.5 -12q-93 0 -179 113q-58 -71 -75 -110q-11 -23 -37 -23q-17 0 -28.5 12t-11.5 28q0 6 4 16q23 52 102 146q-66 111 -92 221q-1 3 -1 9q0 16 11.5 28t28.5 12q32 0 39 -31q18 -79 68 -172q80 103 95 195q2 14 13.5 24
t25.5 10q17 0 29 -11.5t12 -28.5q0 -1 -0.5 -3.5t-0.5 -3.5q-20 -118 -130 -255q71 -96 127 -96z" />
    <glyph glyph-name="y" unicode="y" horiz-adv-x="377" 
d="M340 435q2 -7 6.5 -36.5t10 -91t5.5 -119.5q0 -199 -69 -305t-198 -106q-17 0 -28.5 11.5t-11.5 28.5t11.5 28.5t28.5 11.5q98 0 142.5 89.5t44.5 267.5v4q-86 -237 -178 -237q-27 0 -46 20q-44 46 -44 233q0 53 5 153q1 16 12.5 26.5t27.5 10.5q17 0 28.5 -11.5
t11.5 -28.5q0 -31 -2.5 -83t-2.5 -72q0 -119 17 -162q38 28 79.5 134.5t70.5 234.5q3 13 14.5 22t25.5 9t25 -9t14 -23z" />
    <glyph glyph-name="z" unicode="z" horiz-adv-x="362" 
d="M313 89q15 -1 25 -12.5t10 -26.5q0 -16 -12 -28t-28 -12h-4q-8 0 -59.5 -5.5t-84.5 -5.5h-7q-68 1 -103.5 26t-35.5 70q0 38 23.5 80.5t49 71t67 70t55.5 56.5l7 9h-6q-7 -1 -61.5 -13.5t-81.5 -12.5q-16 0 -28 11.5t-12 28.5q0 14 10 26t24 14q29 4 89.5 16t82.5 12
q33 0 54 -17t21 -46q0 -26 -22 -59.5t-54 -65l-63.5 -62.5t-53.5 -63t-22 -57q0 -15 71 -15q30 0 79.5 5.5t57.5 5.5q2 0 6 -0.5t6 -0.5z" />
    <glyph glyph-name="braceleft" unicode="{" horiz-adv-x="287" 
d="M135 -64q-40 0 -68.5 23.5t-28.5 63.5q0 32 31 92t31 76v4q-17 17 -35 32l-24.5 20.5t-11 15t-4.5 24.5q0 20 9.5 34.5t32.5 33.5t27 23q-50 50 -50 138q0 68 34.5 109t77.5 41q36 0 63 -17t27 -40q0 -17 -12 -28t-28 -11q-9 0 -26 8.5t-22 8.5q-12 -2 -23 -19.5
t-11 -49.5q0 -28 7 -50t14 -28q31 -28 31 -61q0 -16 -7.5 -31t-15 -23t-22 -20t-19.5 -17q44 -33 56 -50.5t12 -46.5q0 -32 -31 -98.5t-31 -73.5q0 -3 20 -3q9 1 42 7.5t49 6.5t28 -11t12 -28q0 -55 -134 -55z" />
    <glyph glyph-name="bar" unicode="|" horiz-adv-x="148" 
d="M49 604q11 11 28 11q16 0 28.5 -11t12.5 -28q0 -4 -2 -12v-8q0 -9 -0.5 -24.5t-1 -36.5t-0.5 -47.5t-0.5 -56t-1 -62.5l-1 -65.5t-0.5 -67.5v-66q0 -230 9 -252q3 -9 3 -17q0 -16 -11.5 -27.5t-27.5 -11.5q-34 0 -43.5 64.5t-9.5 263.5q0 93 2 200.5t3.5 171.5t2.5 65
q3 11 10 17z" />
    <glyph glyph-name="braceright" unicode="}" horiz-adv-x="245" 
d="M124 -71q-104 0 -104 47q0 17 11.5 29t28.5 12t37.5 -4t24.5 -4q2 0 6 0.5t5 0.5q-1 1 -1.5 3t-1.5 4l-2 4q-3 6 -28.5 50.5t-36 72.5t-10.5 55q0 64 58 93q-1 1 -16.5 9.5t-26 16t-20.5 24t-10 35.5q0 23 8 42q5 12 42.5 66t37.5 77q0 21 -17 21q-6 0 -20 -1.5t-18 -1.5
l-12 -1q-15 0 -27 11.5t-12 27.5q0 15 10 27t25 13l7 1q34 4 45 4q50 0 74.5 -33t24.5 -67q0 -47 -58 -130q-13 -18 -30 -53q4 0 21.5 -9.5t38 -33.5t20.5 -54q0 -22 -10 -36t-22.5 -19t-22.5 -12t-10 -17q0 -27 41 -94t41 -105q0 -32 -24.5 -51.5t-66.5 -19.5z" />
    <glyph glyph-name="exclamdown" unicode="&#xa1;" horiz-adv-x="142" 
d="M34 393q-16 12 -16 31q0 20 11.5 34.5t31.5 14.5q16 0 26.5 -10t12.5 -25l3 -7q2 -8 2 -11q0 -16 -12 -28t-29 -12q-15 0 -25 10zM96 -220q-11 -11 -28 -11q-16 0 -28.5 11t-12.5 28q0 4 2 12q5 153 5 282q0 21 -0.5 41.5t-1 36.5t-1.5 30.5t-2 26t-2.5 20.5l-2.5 15.5
t-1.5 11t-0.5 6.5l-1 2q0 17 11.5 28.5t27.5 11.5q34 0 44 -52t10 -191q0 -28 -0.5 -59.5t-1 -59t-1.5 -54t-2 -47.5t-1.5 -37t-1.5 -26v-9q-4 -11 -10 -17z" />
    <glyph glyph-name="sterling" unicode="&#xa3;" horiz-adv-x="441" 
d="M416 81q6 -9 6 -21q0 -63 -183 -63q-121 0 -157 19q-33 16 -33 78q0 76 5 174q-13 2 -23 12.5t-10 23.5q0 17 10 29.5t27 13.5q34 366 161 366q45 0 85 -48q49 -61 49 -103q0 -17 -11.5 -29t-28.5 -12q-30 0 -38 28q-10 33 -28.5 58.5t-27.5 25.5q-13 0 -29.5 -38.5
t-31 -106t-18.5 -137.5q106 6 173 6q17 0 28.5 -11.5t11.5 -28.5t-11.5 -28.5t-28.5 -11.5q-73 0 -179 -6q-3 -60 -3 -122q0 -44 1 -65q30 -7 91 -7q47 0 79.5 3.5t44.5 8l21 8t14 3.5q21 0 34 -19z" />
    <glyph glyph-name="dieresis" unicode="&#xa8;" horiz-adv-x="257" 
d="M93 558q-12 -12 -29 -12q-7 0 -16 3l-8 3q-24 9 -24 37q0 18 11.5 29t27.5 11l7 2q1 0 3.5 0.5t3.5 0.5q17 0 28.5 -12.5t11.5 -29.5t-13 -28zM224 623q16 -12 16 -31q0 -20 -11.5 -34.5t-31.5 -14.5q-16 0 -26.5 10t-12.5 25l-3 7q-2 8 -2 11q0 16 12 28t29 12
q15 0 25 -10z" />
    <glyph glyph-name="acute" unicode="&#xb4;" horiz-adv-x="178" 
d="M47 535q-16 0 -28 12t-12 28q0 25 21 35l5 4q5 3 13 9t16.5 14t17 20t13.5 24q10 26 37 26q17 0 28.5 -12.5t11.5 -28.5q0 -6 -3 -14q-13 -32 -38.5 -60t-41.5 -39t-21 -13q-10 -5 -19 -5z" />
    <glyph glyph-name="cedilla" unicode="&#xb8;" horiz-adv-x="208" 
d="M95 -248q-81 0 -81 47q0 17 12 28t28 11q10 0 24 -3t17 -3q25 0 25 12q0 10 -10 21t-31 13q-46 4 -46 65t12.5 85.5t37.5 24.5q17 0 28.5 -12t11.5 -28q0 -11 -4.5 -32.5t-4.5 -28.5q37 -12 61.5 -41t24.5 -66q0 -35 -23 -64t-82 -29z" />
    <glyph glyph-name="questiondown" unicode="&#xbf;" horiz-adv-x="349" 
d="M258 345q17 0 28.5 -12.5t11.5 -28.5q0 -6 -1 -9q-19 -76 -54 -145.5t-66 -109t-54.5 -75.5t-23.5 -58v-7q0 -32 57 -32q60 0 118 45q10 9 25 9q16 0 28 -11.5t12 -28.5q0 -38 -66 -66t-117 -28q-67 0 -102 32.5t-35 85.5q0 32 15.5 65.5t40 66.5l51 70t53 91t40.5 115
q3 13 14 22t25 9zM228 420q-16 12 -16 31q0 20 11.5 34.5t31.5 14.5q16 0 26.5 -10t12.5 -25l3 -7q2 -8 2 -11q0 -16 -12 -28t-29 -12q-15 0 -25 10z" />
    <glyph glyph-name="Agrave" unicode="&#xc0;" horiz-adv-x="495" 
d="M44 179q-16 0 -28 11.5t-12 28.5q0 15 6 24t20 12.5t27.5 4.5t37 2.5t40.5 3.5q45 126 94 322l15 60l1 5l2 10t4.5 12t8 12.5t13 9t18.5 3.5q38 0 42 -53l3 -42q17 -232 27 -295q10 3 25 8.5t24.5 8.5t15.5 3q15 0 27.5 -11t12.5 -28q0 -24 -22 -36t-69 -24
q11 -57 26 -100t26.5 -59.5t17.5 -16.5q17 0 28.5 -11.5t11.5 -28.5t-11.5 -28.5t-28.5 -11.5q-102 0 -149 237q-17 -4 -53 -10l-52 -9q-70 -177 -120 -177q-17 0 -28.5 12t-11.5 28q0 9 11 27l29 46.5t28 52.5q-33 -3 -57 -3zM312 751q-9 0 -19 5q-5 2 -21 13t-41.5 39
t-38.5 60q-3 8 -3 14q0 16 11.5 28.5t28.5 12.5q26 0 37 -26q5 -12 13.5 -24t17 -20t16.5 -14t13 -9l5 -4q21 -11 21 -35q0 -16 -12 -28t-28 -12zM269 427q-23 -83 -45 -148q4 1 61 12q-11 86 -16 136z" />
    <glyph glyph-name="Aacute" unicode="&#xc1;" horiz-adv-x="498" 
d="M43 179q-17 0 -28.5 11.5t-11.5 28.5q0 15 6 24t20 12.5t27.5 4.5t37 2.5t40.5 3.5q45 126 94 322l15 60l1 5l2 10t4.5 12t8 12.5t13 9t18.5 3.5q38 0 42 -53l3 -42q17 -232 27 -295q10 3 25 8.5t24.5 8.5t15.5 3q15 0 27.5 -11t12.5 -28q0 -24 -22 -36t-69 -24
q11 -57 26 -100t26.5 -59.5t17.5 -16.5q16 0 28 -11.5t12 -28.5t-12 -28.5t-28 -11.5q-102 0 -149 237q-17 -4 -53 -10l-52 -9q-70 -177 -120 -177q-16 0 -28 12t-12 28q0 9 11 27l29 46.5t28 52.5q-33 -3 -57 -3zM293 748q-16 0 -28 12t-12 28q0 24 21 35l5 3l13 10
t16.5 14t17 20t13.5 24q10 26 37 26q17 0 28.5 -12.5t11.5 -28.5q0 -7 -3 -14q-13 -32 -38.5 -60t-41.5 -39t-21 -13q-10 -5 -19 -5zM268 427q-23 -83 -45 -148q3 1 61 12q-11 86 -16 136z" />
    <glyph glyph-name="Acircumflex" unicode="&#xc2;" horiz-adv-x="500" 
d="M44 179q-16 0 -28 11.5t-12 28.5q0 15 6 24t20 12.5t27.5 4.5t37 2.5t40.5 3.5q45 126 94 322l15 60l1 5l2 10t4.5 12t8 12.5t13 9t18.5 3.5q38 0 42 -53l3 -42q17 -232 27 -295q10 3 25 8.5t24.5 8.5t15.5 3q15 0 27.5 -11t12.5 -28q0 -24 -22 -36t-69 -24
q11 -57 26 -100t26.5 -59.5t17.5 -16.5q17 0 28.5 -11.5t11.5 -28.5t-11.5 -28.5t-28.5 -11.5q-102 0 -149 237q-17 -4 -53 -10l-52 -9q-70 -177 -120 -177q-17 0 -28.5 12t-11.5 28q0 9 11 27l29 46.5t28 52.5q-33 -3 -57 -3zM396 731q-19 0 -27.5 10.5t-22.5 39t-35 53.5
q-4 -4 -25.5 -31t-40.5 -45.5t-32 -18.5q-20 0 -30.5 15.5t-10.5 35.5q0 6 28 40q14 15 23 26q33 38 51.5 52t38.5 14q41 0 86 -73q38 -63 38 -69q0 -19 -11 -34t-30 -15zM269 427q-23 -83 -45 -148q4 1 61 12q-11 86 -16 136z" />
    <glyph glyph-name="Atilde" unicode="&#xc3;" horiz-adv-x="503" 
d="M45 179q-17 0 -28.5 11.5t-11.5 28.5q0 15 6 24t20 12.5t27.5 4.5t37 2.5t40.5 3.5q45 126 94 322l15 60l1 5l2 10t4.5 12t8 12.5t13 9t18.5 3.5q38 0 42 -53l3 -42q17 -232 27 -295q10 3 25 8.5t24.5 8.5t15.5 3q15 0 27.5 -11t12.5 -28q0 -24 -22 -36t-69 -24
q11 -57 26 -100t26.5 -59.5t17.5 -16.5q16 0 28 -11.5t12 -28.5t-12 -28.5t-28 -11.5q-102 0 -149 237q-17 -4 -53 -10l-52 -9q-70 -177 -120 -177q-16 0 -28 12t-12 28q0 9 11 27l29 46.5t28 52.5q-33 -3 -57 -3zM372 747q-27 0 -53.5 15.5t-42.5 40.5l-7 10l-11 -17
q-11 -17 -25.5 -31t-28.5 -14q-17 0 -28.5 12.5t-11.5 28.5q0 10 6 20q51 84 99 84h1q42 0 73 -50q13 -19 29 -19q1 3 3.5 21t11 29.5t28.5 11.5q17 0 28.5 -11.5t11.5 -28.5q0 -33 -9.5 -55.5t-24.5 -31.5t-25.5 -12t-19.5 -3h-4zM270 427q-23 -83 -45 -148q4 1 61 12
q-11 86 -16 136z" />
    <glyph glyph-name="Adieresis" unicode="&#xc4;" horiz-adv-x="494" 
d="M43 179q-17 0 -28.5 11.5t-11.5 28.5q0 15 6 24t20 12.5t27.5 4.5t37 2.5t40.5 3.5q45 126 94 322l15 60l1 5l2 10t4.5 12t8 12.5t13 9t18.5 3.5q38 0 42 -53l3 -42q17 -232 27 -295q10 3 25 8.5t24.5 8.5t15.5 3q15 0 27.5 -11t12.5 -28q0 -24 -22 -36t-69 -24
q11 -57 26 -100t26.5 -59.5t17.5 -16.5q16 0 28 -11.5t12 -28.5t-12 -28.5t-28 -11.5q-102 0 -149 237q-17 -4 -53 -10l-52 -9q-70 -177 -120 -177q-16 0 -28 12t-12 28q0 9 11 27l29 46.5t28 52.5q-33 -3 -57 -3zM271 765q-12 -12 -29 -12q-7 0 -16 3l-8 3q-24 9 -24 37
q0 18 11.5 29t27.5 11l7 2q1 0 3.5 0.5t3.5 0.5q17 0 28.5 -12.5t11.5 -29.5t-13 -28zM402 830q16 -12 16 -31q0 -20 -11.5 -34.5t-31.5 -14.5q-16 0 -26.5 10t-12.5 25l-3 7q-2 8 -2 11q0 16 12 28t29 12q15 0 25 -10zM268 427q-23 -83 -45 -148q3 1 61 12q-11 86 -16 136z
" />
    <glyph glyph-name="Aring" unicode="&#xc5;" horiz-adv-x="499" 
d="M44 179q-16 0 -28 11.5t-12 28.5q0 15 6 24t20 12.5t27.5 4.5t37 2.5t40.5 3.5q45 126 94 322l15 60l1 5l2 10t4.5 12t8 12.5t13 9t18.5 3.5q38 0 42 -53l3 -42q17 -232 27 -295q10 3 25 8.5t24.5 8.5t15.5 3q15 0 27.5 -11t12.5 -28q0 -24 -22 -36t-69 -24
q11 -57 26 -100t26.5 -59.5t17.5 -16.5q17 0 28.5 -11.5t11.5 -28.5t-11.5 -28.5t-28.5 -11.5q-102 0 -149 237q-17 -4 -53 -10l-52 -9q-70 -177 -120 -177q-17 0 -28.5 12t-11.5 28q0 9 11 27l29 46.5t28 52.5q-33 -3 -57 -3zM291 721q-45 0 -73.5 31t-28.5 76
q0 60 37 103.5t86 43.5q43 0 71 -30t28 -79q0 -57 -35 -101t-85 -44zM286 802h2q2 -1 3 -1q14 0 27 21t13 44q0 29 -18 29q-17 0 -30.5 -21.5t-13.5 -43.5q0 -25 17 -28zM269 427q-23 -83 -45 -148q4 1 61 12q-11 86 -16 136z" />
    <glyph glyph-name="AE" unicode="&#xc6;" horiz-adv-x="727" 
d="M48 179q-16 0 -28 11.5t-12 28.5q0 15 8 24.5t23.5 13t30 4.5t36 1.5t33.5 2.5q44 124 94 323l15 60l1 5l2 10t4.5 12t8 12.5t13 9t18.5 3.5q38 0 42 -53l3 -41v1q11 45 54 61q18 6 80.5 13.5t108.5 22.5q4 1 11 1q16 0 28 -11.5t12 -28.5q0 -15 -12 -26.5t-35 -18
t-40.5 -9.5t-43 -6t-28.5 -3l-43 -6l-14 -4q-21 -112 -29 -197q7 1 61 6t86 11t48 15q10 5 19 5q16 0 28 -11.5t12 -28.5q0 -18 -17 -31.5t-48.5 -20.5t-61 -11t-71.5 -8.5t-62 -7.5v-3q-1 -12 -1 -34q0 -66 9 -108.5t25 -60t29.5 -22.5t31.5 -5q30 0 76.5 9t77 18t31.5 10
q8 2 12 2q16 0 28 -11.5t12 -28.5q0 -30 -28 -38q-7 -3 -37.5 -11.5t-83 -19t-88.5 -10.5q-75 0 -117.5 52.5t-57.5 161.5q-18 -6 -53 -12l-52 -9q-71 -177 -120 -177q-17 0 -28.5 12t-11.5 28q0 9 11 27l29 46.5t28 52.5q-33 -3 -57 -3zM273 427q-26 -92 -43 -143
q43 14 57 19q-5 37 -14 124z" />
    <glyph glyph-name="Ccedilla" unicode="&#xc7;" horiz-adv-x="483" 
d="M225 -248q-81 0 -81 47q0 17 12 28t28 11q10 0 24 -3t17 -3q25 0 25 12q0 10 -10 21t-31 13q-46 4 -46 65q0 22 3 36l6 35q-76 21 -119 105t-43 209q0 157 78 253.5t183 96.5q63 0 107.5 -48.5t44.5 -123.5q0 -38 -18 -74t-46 -36q-17 0 -29 11.5t-12 27.5q0 10 12.5 31
t12.5 41q0 11 -2.5 23.5t-9 29.5t-22 27.5t-38.5 10.5q-77 0 -129 -78.5t-52 -192.5q0 -105 33.5 -171t88.5 -66q50 0 102 54.5t83 157.5q8 28 39 28q17 0 28 -12t11 -28q0 -7 -1 -11q-32 -106 -90.5 -177t-130.5 -88q0 -11 -4.5 -33.5t-4.5 -28.5q37 -12 61.5 -41t24.5 -66
q0 -35 -23 -64t-82 -29z" />
    <glyph glyph-name="Egrave" unicode="&#xc8;" horiz-adv-x="429" 
d="M204 742q-9 0 -19 5q-5 2 -21 13t-41.5 39t-38.5 60q-3 7 -3 14q0 16 11.5 28.5t28.5 12.5q26 0 37 -26q5 -12 13.5 -24t17 -20t16.5 -14l13 -10l5 -3q21 -11 21 -35q0 -16 -12 -28t-28 -12zM101 395q7 1 61 6t86 11t48 15q10 5 19 5q16 0 28 -11.5t12 -28.5
q0 -18 -17 -31.5t-48.5 -20.5t-61 -11t-71.5 -8.5t-62 -7.5v-3q-1 -12 -1 -34q0 -66 9 -108.5t25 -60t29.5 -22.5t31.5 -5q30 0 76.5 9t77 18t31.5 10q8 2 12 2q16 0 28 -11.5t12 -28.5q0 -30 -28 -38q-7 -3 -37.5 -11.5t-83 -19t-88.5 -10.5q-85 0 -130 69.5t-45 205.5
q0 134 38 332q8 45 54 61q18 6 80.5 13.5t108.5 22.5q4 1 11 1q16 0 28 -11.5t12 -28.5q0 -15 -12 -26.5t-35 -18t-40.5 -9.5t-43 -6t-28.5 -3l-43 -6l-14 -4q-21 -112 -29 -197z" />
    <glyph glyph-name="Eacute" unicode="&#xc9;" horiz-adv-x="429" 
d="M183 739q-16 0 -28 12t-12 28q0 25 21 35l5 4q5 3 13 9t16.5 14t17 20t13.5 24q10 26 37 26q17 0 28.5 -12.5t11.5 -28.5q0 -6 -3 -14q-13 -32 -38.5 -60t-41.5 -39t-21 -13q-10 -5 -19 -5zM98 395q7 1 61 6t86 11t48 15q10 5 19 5q16 0 28 -11.5t12 -28.5
q0 -18 -17 -31.5t-48.5 -20.5t-61 -11t-71.5 -8.5t-62 -7.5v-3q-1 -12 -1 -34q0 -66 9 -108.5t25 -60t29.5 -22.5t31.5 -5q30 0 76.5 9t77 18t31.5 10q8 2 12 2q16 0 28 -11.5t12 -28.5q0 -30 -28 -38q-7 -3 -37.5 -11.5t-83 -19t-88.5 -10.5q-85 0 -130 69.5t-45 205.5
q0 134 38 332q8 45 54 61q18 6 80.5 13.5t108.5 22.5q4 1 11 1q16 0 28 -11.5t12 -28.5q0 -15 -12 -26.5t-35 -18t-40.5 -9.5t-43 -6t-28.5 -3l-43 -6l-14 -4q-21 -112 -29 -197z" />
    <glyph glyph-name="Ecircumflex" unicode="&#xca;" horiz-adv-x="432" 
d="M288 722q-19 0 -27.5 10.5t-22.5 39t-35 53.5q-4 -4 -25.5 -31t-40.5 -45.5t-32 -18.5q-20 0 -30.5 15.5t-10.5 35.5q0 6 28 40q14 15 23 26q33 38 51.5 52t38.5 14q41 0 86 -73q38 -63 38 -69q0 -19 -11 -34t-30 -15zM101 395q7 1 61 6t86 11t48 15q10 5 19 5
q16 0 28 -11.5t12 -28.5q0 -18 -17 -31.5t-48.5 -20.5t-61 -11t-71.5 -8.5t-62 -7.5v-3q-1 -12 -1 -34q0 -66 9 -108.5t25 -60t29.5 -22.5t31.5 -5q30 0 76.5 9t77 18t31.5 10q8 2 12 2q16 0 28 -11.5t12 -28.5q0 -30 -28 -38q-7 -3 -37.5 -11.5t-83 -19t-88.5 -10.5
q-85 0 -130 69.5t-45 205.5q0 134 38 332q8 45 54 61q18 6 80.5 13.5t108.5 22.5q4 1 11 1q16 0 28 -11.5t12 -28.5q0 -15 -12 -26.5t-35 -18t-40.5 -9.5t-43 -6t-28.5 -3l-43 -6l-14 -4q-21 -112 -29 -197z" />
    <glyph glyph-name="Edieresis" unicode="&#xcb;" horiz-adv-x="432" 
d="M101 395q7 1 61 6t86 11t48 15q10 5 19 5q16 0 28 -11.5t12 -28.5q0 -18 -17 -31.5t-48.5 -20.5t-61 -11t-71.5 -8.5t-62 -7.5v-3q-1 -12 -1 -34q0 -66 9 -108.5t25 -60t29.5 -22.5t31.5 -5q30 0 76.5 9t77 18t31.5 10q8 2 12 2q16 0 28 -11.5t12 -28.5q0 -30 -28 -38
q-7 -3 -37.5 -11.5t-83 -19t-88.5 -10.5q-85 0 -130 69.5t-45 205.5q0 134 38 332q8 45 54 61q18 6 80.5 13.5t108.5 22.5q4 1 11 1q16 0 28 -11.5t12 -28.5q0 -15 -12 -26.5t-35 -18t-40.5 -9.5t-43 -6t-28.5 -3l-43 -6l-14 -4q-21 -112 -29 -197zM164 756q-12 -12 -29 -12
q-7 0 -16 3l-8 3q-24 9 -24 37q0 18 11.5 29t27.5 11l7 2q1 0 3.5 0.5t3.5 0.5q17 0 28.5 -12.5t11.5 -29.5t-13 -28zM295 821q16 -12 16 -31q0 -20 -11.5 -34.5t-31.5 -14.5q-16 0 -26.5 10t-12.5 25l-3 7q-2 8 -2 11q0 16 12 28t29 12q15 0 25 -10z" />
    <glyph glyph-name="Igrave" unicode="&#xcc;" horiz-adv-x="179" 
d="M100 14q-16 0 -27.5 11.5t-12.5 27.5q-3 93 -3 202q0 241 11 381q1 16 12.5 26.5t28.5 10.5t28 -13t11 -30q-11 -156 -11 -376q0 -36 1.5 -103t1.5 -96q0 -17 -10.5 -28.5t-27.5 -12.5h-2zM130 734q-9 0 -19 5q-5 2 -21 13t-41.5 39t-38.5 60q-3 7 -3 14q0 16 11.5 28.5
t28.5 12.5q26 0 37 -26q5 -12 13.5 -24t17 -20t16.5 -14l13 -10l5 -3q21 -11 21 -35q0 -16 -12 -28t-28 -12z" />
    <glyph glyph-name="Iacute" unicode="&#xcd;" horiz-adv-x="196" 
d="M58 14q-16 0 -27.5 11.5t-12.5 27.5q-3 93 -3 202q0 241 11 381q1 16 12.5 26.5t28.5 10.5t28 -13t11 -30q-11 -156 -11 -376q0 -36 1.5 -103t1.5 -96q0 -17 -10.5 -28.5t-27.5 -12.5h-2zM70 731q-16 0 -28 12t-12 28q0 25 21 35l5 4q5 3 13 9t16.5 14t17 20t13.5 24
q10 26 37 26q17 0 28.5 -12.5t11.5 -28.5q0 -6 -3 -14q-13 -32 -38.5 -60t-41.5 -39t-21 -13q-10 -5 -19 -5z" />
    <glyph glyph-name="Icircumflex" unicode="&#xce;" horiz-adv-x="293" 
d="M125 14q-16 0 -27.5 11.5t-12.5 27.5q-3 93 -3 202q0 241 11 381q1 16 12.5 26.5t28.5 10.5t28 -13t11 -30q-11 -156 -11 -376q0 -36 1.5 -103t1.5 -96q0 -17 -10.5 -28.5t-27.5 -12.5h-2zM239 714q-19 0 -27.5 10.5t-22.5 39t-35 53.5q-4 -4 -25.5 -31t-40.5 -45.5
t-32 -18.5q-20 0 -30.5 15.5t-10.5 35.5q0 6 28 40q14 15 23 26q33 38 51.5 52t38.5 14q41 0 86 -73q38 -63 38 -69q0 -19 -11 -34t-30 -15z" />
    <glyph glyph-name="Idieresis" unicode="&#xcf;" horiz-adv-x="235" 
d="M95 14q-16 0 -27.5 11.5t-12.5 27.5q-3 93 -3 202q0 241 11 381q1 16 12.5 26.5t28.5 10.5t28 -13t11 -30q-11 -156 -11 -376q0 -36 1.5 -103t1.5 -96q0 -17 -10.5 -28.5t-27.5 -12.5h-2zM85 748q-12 -12 -29 -12q-7 0 -16 3l-8 3q-24 9 -24 37q0 18 11.5 29t27.5 11l7 2
q1 0 3.5 0.5t3.5 0.5q17 0 28.5 -12.5t11.5 -29.5t-13 -28zM216 813q16 -12 16 -31q0 -20 -11.5 -34.5t-31.5 -14.5q-16 0 -26.5 10t-12.5 25l-3 7q-2 8 -2 11q0 16 12 28t29 12q15 0 25 -10z" />
    <glyph glyph-name="Eth" unicode="&#xd0;" horiz-adv-x="521" 
d="M34 295q-11 10 -11 28q0 16 11 28.5t28 12.5q2 0 11 -3q1 14 1 41q0 19 -2.5 54.5t-2.5 50.5q0 16 11.5 28t27.5 12q45 0 45 -98q0 -61 -1 -92q20 0 49.5 6t34.5 6q17 0 28.5 -11.5t11.5 -27.5q0 -53 -127 -53l-4 -52q11 18 33 18q14 0 25.5 -9t14.5 -23q12 -63 47.5 -97
t75.5 -34q86 0 86 158q0 134 -76 230q-83 102 -218 102q-11 0 -36.5 -3.5t-39.5 -3.5q-17 0 -29 12t-12 28q0 47 113 47q166 0 272.5 -119.5t106.5 -293.5q0 -103 -42.5 -170t-123.5 -67q-70 0 -125.5 51.5t-75.5 132.5q-13 -116 -22 -160q-2 -14 -13.5 -23.5t-25.5 -9.5
q-17 0 -29 11.5t-12 28.5q0 4 1 7q1 1 6 33.5t12 93t11 117.5q-24 2 -35 13z" />
    <glyph glyph-name="Ntilde" unicode="&#xd1;" horiz-adv-x="561" 
d="M397 2q-53 0 -99.5 57.5t-92.5 177.5l-22 63q-6 -86 -27 -157q-17 -53 -47.5 -97t-59.5 -44q-16 0 -28 11.5t-12 28.5q0 19 15 31q83 68 83 328q0 34 -2 70.5t-4.5 70t-3.5 45.5l-2 37q0 18 10 29t17.5 12.5t13.5 1.5q30 0 43 -44l8 -37l23 -88t30.5 -105.5t37 -113
t39 -98t42 -73t39.5 -26.5q66 0 66 243q0 63 -5.5 167.5t-5.5 123.5q0 88 51 88q17 0 28.5 -11.5t11.5 -28.5q0 -8 -5.5 -19t-5.5 -27q0 -22 5.5 -124t5.5 -166q0 -313 -137 -326h-10zM376 730q-27 0 -53.5 15.5t-42.5 40.5l-7 10l-11 -17q-11 -17 -25.5 -31t-28.5 -14
q-17 0 -28.5 12.5t-11.5 28.5q0 9 6 20q51 84 99 84h1q42 0 73 -50q13 -19 29 -19q1 3 3.5 21t11 29.5t28.5 11.5q17 0 28.5 -12t11.5 -28q0 -33 -9.5 -55.5t-24.5 -31.5t-25.5 -12t-19.5 -3h-4z" />
    <glyph glyph-name="Ograve" unicode="&#xd2;" horiz-adv-x="512" 
d="M213 13q-94 0 -149 68t-55 184q0 161 88.5 290.5t202.5 129.5q102 0 119 -95q40 0 61.5 -51.5t21.5 -113.5q0 -165 -89.5 -288.5t-199.5 -123.5zM300 605q-82 0 -146 -107q-65 -106 -65 -233q0 -81 31.5 -126.5t92.5 -45.5q75 0 142 103t67 229q0 35 -8 64l-4 -16
q-3 -12 -14.5 -20.5t-23.5 -8.5q-18 0 -29.5 12t-11.5 28q0 14 5.5 38.5t5.5 33.5q0 13 -0.5 18.5t-4 14.5t-12.5 12.5t-25 3.5zM321 741q-9 0 -19 5q-5 2 -21 13t-41.5 39t-38.5 60q-3 8 -3 14q0 16 11.5 28.5t28.5 12.5q26 0 37 -26q5 -12 13.5 -24t17 -20t16.5 -14t13 -9
l5 -4q21 -11 21 -35q0 -16 -12 -28t-28 -12z" />
    <glyph glyph-name="Oacute" unicode="&#xd3;" horiz-adv-x="512" 
d="M211 13q-94 0 -149 68t-55 184q0 161 88.5 290.5t202.5 129.5q102 0 119 -95q40 0 61.5 -51.5t21.5 -113.5q0 -165 -89.5 -288.5t-199.5 -123.5zM298 605q-82 0 -146 -107q-65 -106 -65 -233q0 -81 31.5 -126.5t92.5 -45.5q75 0 142 103t67 229q0 35 -8 64l-4 -16
q-3 -12 -14.5 -20.5t-23.5 -8.5q-18 0 -29.5 12t-11.5 28q0 14 5.5 38.5t5.5 33.5q0 13 -0.5 18.5t-4 14.5t-12.5 12.5t-25 3.5zM301 738q-16 0 -28 12t-12 28q0 24 21 35l5 3l13 10t16.5 14t17 20t13.5 24q10 26 37 26q17 0 28.5 -12.5t11.5 -28.5q0 -7 -3 -14
q-13 -32 -38.5 -60t-41.5 -39t-21 -13q-10 -5 -19 -5z" />
    <glyph glyph-name="Ocircumflex" unicode="&#xd4;" horiz-adv-x="514" 
d="M213 13q-94 0 -149 68t-55 184q0 161 88.5 290.5t202.5 129.5q102 0 119 -95q40 0 61.5 -51.5t21.5 -113.5q0 -165 -89.5 -288.5t-199.5 -123.5zM300 605q-82 0 -146 -107q-65 -106 -65 -233q0 -81 31.5 -126.5t92.5 -45.5q75 0 142 103t67 229q0 35 -8 64l-4 -16
q-3 -12 -14.5 -20.5t-23.5 -8.5q-18 0 -29.5 12t-11.5 28q0 14 5.5 38.5t5.5 33.5q0 13 -0.5 18.5t-4 14.5t-12.5 12.5t-25 3.5zM405 721q-19 0 -27.5 10.5t-22.5 39t-35 53.5q-4 -4 -25.5 -31t-40.5 -45.5t-32 -18.5q-20 0 -30.5 15.5t-10.5 35.5q0 6 28 40q14 15 23 26
q33 38 51.5 52t38.5 14q41 0 86 -73q38 -63 38 -69q0 -19 -11 -34t-30 -15z" />
    <glyph glyph-name="Otilde" unicode="&#xd5;" horiz-adv-x="516" 
d="M214 13q-94 0 -149 68t-55 184q0 161 88.5 290.5t202.5 129.5q102 0 119 -95q40 0 61.5 -51.5t21.5 -113.5q0 -165 -89.5 -288.5t-199.5 -123.5zM301 605q-82 0 -146 -107q-65 -106 -65 -233q0 -81 31.5 -126.5t92.5 -45.5q75 0 142 103t67 229q0 35 -8 64l-4 -16
q-3 -12 -14.5 -20.5t-23.5 -8.5q-18 0 -29.5 12t-11.5 28q0 14 5.5 38.5t5.5 33.5q0 13 -0.5 18.5t-4 14.5t-12.5 12.5t-25 3.5zM381 737q-27 0 -53.5 15.5t-42.5 40.5l-7 10l-11 -17q-11 -17 -25.5 -31t-28.5 -14q-17 0 -28.5 12.5t-11.5 28.5q0 10 6 20q51 84 99 84h1
q42 0 73 -50q13 -19 29 -19q1 3 3.5 21t11 29.5t28.5 11.5q16 0 28 -11.5t12 -28.5q0 -33 -9.5 -55.5t-24.5 -31.5t-25.5 -12t-19.5 -3h-4z" />
    <glyph glyph-name="Odieresis" unicode="&#xd6;" horiz-adv-x="513" 
d="M213 13q-94 0 -149 68t-55 184q0 161 88.5 290.5t202.5 129.5q102 0 119 -95q40 0 61.5 -51.5t21.5 -113.5q0 -165 -89.5 -288.5t-199.5 -123.5zM300 605q-82 0 -146 -107q-65 -106 -65 -233q0 -81 31.5 -126.5t92.5 -45.5q75 0 142 103t67 229q0 35 -8 64l-4 -16
q-3 -12 -14.5 -20.5t-23.5 -8.5q-18 0 -29.5 12t-11.5 28q0 14 5.5 38.5t5.5 33.5q0 13 -0.5 18.5t-4 14.5t-12.5 12.5t-25 3.5zM281 755q-12 -12 -29 -12q-7 0 -16 3l-8 3q-24 9 -24 37q0 18 11.5 29t27.5 11l7 2q1 0 3.5 0.5t3.5 0.5q17 0 28.5 -12.5t11.5 -29.5t-13 -28z
M412 820q16 -12 16 -31q0 -20 -11.5 -34.5t-31.5 -14.5q-16 0 -26.5 10t-12.5 25l-3 7q-2 8 -2 11q0 16 12 28t29 12q15 0 25 -10z" />
    <glyph glyph-name="Oslash" unicode="&#xd8;" horiz-adv-x="519" 
d="M217 13q-73 0 -124 42l-34 -51q-5 -4 -16 -4h-3q-15 1 -26 12.5t-11 26.5q0 11 2.5 17t6.5 9.5t14 16t21 30.5q-34 62 -34 153q0 161 88.5 290.5t202.5 129.5q51 0 81 -25l7 14q11 24 38 24q16 0 27 -14.5t11 -29.5q-4 -16 -34 -65q35 -8 53.5 -57.5t18.5 -106.5
q0 -165 -89.5 -288.5t-199.5 -123.5zM350 453l-212 -330q30 -30 79 -30q75 0 142 103t67 229q0 35 -8 64l-4 -16q-3 -12 -14.5 -20.5t-23.5 -8.5q-16 0 -26 9zM304 605q-82 0 -146 -107q-65 -106 -65 -233q0 -40 7 -69l242 392q-8 17 -38 17z" />
    <glyph glyph-name="Ugrave" unicode="&#xd9;" horiz-adv-x="557" 
d="M509 -25q-59 0 -88.5 70t-33.5 223q-52 -132 -109.5 -194t-128.5 -62q-48 0 -80 42t-44.5 102t-12.5 133q0 87 14.5 179.5t37.5 149.5q10 25 37 25q17 0 28.5 -12t11.5 -28q0 -7 -3 -14q-20 -50 -33 -135t-13 -164q0 -85 16 -141.5t41 -56.5q139 0 259 545q3 13 14 22
t25 9q19 0 29.5 -13t10.5 -32l-1 -6q0 -6 -1.5 -17.5t-3 -27t-3 -35l-3 -41t-3 -46.5l-3 -49.5t-2 -51.5t-0.5 -52q0 -197 37 -238l5 -4q17 0 28.5 -11.5t11.5 -28.5t-11.5 -28.5t-28.5 -11.5zM276 712q-9 0 -19 5q-5 2 -21 13t-41.5 39t-38.5 60q-3 7 -3 14q0 16 11.5 28.5
t28.5 12.5q26 0 37 -26q5 -12 13.5 -24t17 -20t16.5 -14l13 -10l5 -3q21 -11 21 -35q0 -16 -12 -28t-28 -12z" />
    <glyph glyph-name="Uacute" unicode="&#xda;" horiz-adv-x="558" 
d="M508 -25q-59 0 -88.5 70t-33.5 223q-52 -132 -109.5 -194t-128.5 -62q-48 0 -80 42t-44.5 102t-12.5 133q0 87 14.5 179.5t37.5 149.5q10 25 37 25q17 0 28.5 -12t11.5 -28q0 -7 -3 -14q-20 -50 -33 -135t-13 -164q0 -85 16 -141.5t41 -56.5q139 0 259 545q3 13 14 22
t25 9q19 0 29.5 -13t10.5 -32v-6q-1 -6 -2.5 -17.5t-3 -27t-3 -35l-3 -41t-3 -46.5l-3 -49.5t-2 -51.5t-0.5 -52q0 -197 37 -238l5 -4q16 0 28 -11.5t12 -28.5t-12 -28.5t-28 -11.5zM257 709q-16 0 -28 12t-12 28q0 25 21 35l5 4q5 3 13 9t16.5 14t17 20t13.5 24
q10 26 37 26q17 0 28.5 -12.5t11.5 -28.5q0 -6 -3 -14q-13 -32 -38.5 -60t-41.5 -39t-21 -13q-10 -5 -19 -5z" />
    <glyph glyph-name="Ucircumflex" unicode="&#xdb;" horiz-adv-x="560" 
d="M510 -25q-59 0 -88.5 70t-33.5 223q-52 -132 -109.5 -194t-128.5 -62q-48 0 -80 42t-44.5 102t-12.5 133q0 87 14.5 179.5t37.5 149.5q10 25 37 25q17 0 28.5 -12t11.5 -28q0 -7 -3 -14q-20 -50 -33 -135t-13 -164q0 -85 16 -141.5t41 -56.5q139 0 259 545q3 13 14 22
t25 9q19 0 29.5 -13t10.5 -32v-6q-1 -6 -2.5 -17.5t-3 -27t-3 -35l-3 -41t-3 -46.5l-3 -49.5t-2 -51.5t-0.5 -52q0 -197 37 -238l5 -4q16 0 28 -11.5t12 -28.5t-12 -28.5t-28 -11.5zM361 692q-19 0 -27.5 10.5t-22.5 39t-35 53.5q-4 -4 -25.5 -31t-40.5 -45.5t-32 -18.5
q-20 0 -30.5 15.5t-10.5 35.5q0 6 28 40q14 15 23 26q33 38 51.5 52t38.5 14q41 0 86 -73q38 -63 38 -69q0 -19 -11 -34t-30 -15z" />
    <glyph glyph-name="Udieresis" unicode="&#xdc;" horiz-adv-x="559" 
d="M509 -25q-59 0 -88.5 70t-33.5 223q-52 -132 -109.5 -194t-128.5 -62q-48 0 -80 42t-44.5 102t-12.5 133q0 87 14.5 179.5t37.5 149.5q10 25 37 25q17 0 28.5 -12t11.5 -28q0 -7 -3 -14q-20 -50 -33 -135t-13 -164q0 -85 16 -141.5t41 -56.5q139 0 259 545q3 13 14 22
t25 9q19 0 29.5 -13t10.5 -32l-1 -6q0 -6 -1.5 -17.5t-3 -27t-3 -35l-3 -41t-3 -46.5l-3 -49.5t-2 -51.5t-0.5 -52q0 -197 37 -238l5 -4q17 0 28.5 -11.5t11.5 -28.5t-11.5 -28.5t-28.5 -11.5zM236 726q-12 -12 -29 -12q-7 0 -16 3l-8 3q-24 9 -24 37q0 18 11.5 29t27.5 11
l7 2q1 0 3.5 0.5t3.5 0.5q17 0 28.5 -12.5t11.5 -29.5t-13 -28zM367 791q16 -12 16 -31q0 -20 -11.5 -34.5t-31.5 -14.5q-16 0 -26.5 10t-12.5 25l-3 7q-2 8 -2 11q0 16 12 28t29 12q15 0 25 -10z" />
    <glyph glyph-name="Yacute" unicode="&#xdd;" horiz-adv-x="455" 
d="M109 0q-17 0 -28.5 11.5t-11.5 28.5t11.5 28.5t27.5 11.5q60 0 105.5 19.5t73.5 51t46 76t24.5 90t6.5 97.5q0 34 -1 50q-24 -76 -46 -125q-12 -27 -24 -46.5t-30 -42t-42 -35t-51 -12.5q-152 0 -152 352q0 92 46 92q16 0 27.5 -12t11.5 -28q0 -18 -2 -51t-2 -47
q0 -63 7 -109t16 -67.5t21 -34t17.5 -14t9.5 -1.5q21 0 41.5 25.5t40.5 78.5t35.5 103l38.5 130q5 17 7 25l5 16q8 29 39 29q13 0 24 -8.5t14 -21.5q29 -145 29 -247q0 -199 -87 -306t-248 -107zM195 724q-16 0 -28 12t-12 28q0 24 21 35l5 3l13 10t16.5 14t17 20t13.5 24
q10 26 37 26q17 0 28.5 -12.5t11.5 -28.5q0 -7 -3 -14q-13 -32 -38.5 -60t-41.5 -39t-21 -13q-10 -5 -19 -5z" />
    <glyph glyph-name="Thorn" unicode="&#xde;" horiz-adv-x="486" 
d="M174 106q-36 0 -50 17q0 -1 -0.5 -11.5t-1 -16t-2 -17.5t-3 -19.5t-4.5 -18t-7 -17t-9 -13t-12 -9.5t-15 -3h-4q-16 1 -26 13t-10 27q0 2 2.5 32t6 77.5l7.5 103t6.5 121t2.5 119.5q0 11 -3 67t-3 66q0 19 10.5 31.5t29.5 12.5q21 0 30.5 -29t10.5 -119q43 34 97 53.5
t102 19.5q73 0 111.5 -44t38.5 -115q0 -125 -99 -226.5t-206 -101.5zM135 417q0 -83 -8 -243q13 13 31 13q2 0 8 -0.5t8 -0.5q75 0 150 80t75 167q0 80 -68 80q-45 0 -99.5 -25t-96.5 -71z" />
    <glyph glyph-name="germandbls" unicode="&#xdf;" horiz-adv-x="529" 
d="M70 0q-16 0 -28 12t-12 28q0 4 1 7q32 200 32 496v23.5v20.5t-0.5 17.5t-0.5 14.5v10.5v6.5v3q0 15 9.5 27t24.5 14q8 0 67 6.5t68 6.5q66 0 101 -24.5t35 -71.5q0 -65 -82 -180q96 -44 162 -118.5t66 -142.5q0 -67 -59.5 -105t-173.5 -38q-57 0 -57 39q0 17 11.5 29
t28.5 12h17q154 0 154 61q0 51 -71.5 117t-152.5 88q-12 3 -20.5 14t-8.5 24t8 24q99 132 99 176q0 16 -52 16q-16 0 -93 -7q0 -6 0.5 -25t0.5 -32q0 -307 -35 -515q-2 -15 -13.5 -24.5t-25.5 -9.5z" />
    <glyph glyph-name="agrave" unicode="&#xe0;" horiz-adv-x="426" 
d="M387 58q14 -2 24 -13.5t10 -26.5q0 -16 -11.5 -28t-28.5 -12q-30 0 -51 23q-33 35 -42 131q-73 -130 -171 -130q-57 0 -84 67q-18 44 -18 113q0 71 14 126t35.5 83t42.5 42t39 14q83 0 123 -150q0 -3 1 -4q4 13 8 33.5t7 32.5t8 24.5t13.5 18.5t21.5 6q17 0 29 -11.5
t12 -28.5q0 -24 -2.5 -68t-2.5 -62q0 -149 23 -180zM226 185q16 31 31 72q-11 -11 -27 -11q-30 0 -38 30q-8 31 -19 53t-17 29t-10 9q-17 -11 -34 -69t-17 -114q0 -31 5 -56t9.5 -34.5t7.5 -11.5q55 0 109 103zM163 508q-9 0 -19 5q-5 2 -21 13t-41.5 39t-38.5 60
q-3 7 -3 14q0 16 11.5 28.5t28.5 12.5q26 0 37 -26q5 -12 13.5 -24t17 -20t16.5 -14l13 -10l5 -3q21 -11 21 -35q0 -16 -12 -28t-28 -12z" />
    <glyph glyph-name="aacute" unicode="&#xe1;" horiz-adv-x="425" 
d="M383 58q14 -2 24 -13.5t10 -26.5q0 -16 -11.5 -28t-28.5 -12q-30 0 -51 23q-33 35 -42 131q-73 -130 -171 -130q-57 0 -84 67q-18 44 -18 113q0 71 14 126t35.5 83t42.5 42t39 14q83 0 123 -150q0 -3 1 -4q4 13 8 33.5t7 32.5t8 24.5t13.5 18.5t21.5 6q17 0 29 -11.5
t12 -28.5q0 -24 -2.5 -68t-2.5 -62q0 -149 23 -180zM222 185q16 31 31 72q-11 -11 -27 -11q-30 0 -38 30q-8 31 -19 53t-17 29t-10 9q-17 -11 -34 -69t-17 -114q0 -31 5 -56t9.5 -34.5t7.5 -11.5q55 0 109 103zM141 505q-16 0 -28 12t-12 28q0 25 21 35l5 4q5 3 13 9
t16.5 14t17 20t13.5 24q10 26 37 26q17 0 28.5 -12.5t11.5 -28.5q0 -6 -3 -14q-13 -32 -38.5 -60t-41.5 -39t-21 -13q-10 -5 -19 -5z" />
    <glyph glyph-name="acircumflex" unicode="&#xe2;" horiz-adv-x="428" 
d="M386 58q14 -2 24 -13.5t10 -26.5q0 -16 -12 -28t-28 -12q-30 0 -51 23q-33 35 -42 131q-73 -130 -171 -130q-57 0 -84 67q-18 44 -18 113q0 71 14 126t35.5 83t42.5 42t39 14q83 0 123 -150q0 -3 1 -4q4 13 8 33.5t7 32.5t8 24.5t13.5 18.5t21.5 6q17 0 29 -11.5
t12 -28.5q0 -24 -2.5 -68t-2.5 -62q0 -149 23 -180zM225 185q16 31 31 72q-11 -11 -27 -11q-30 0 -38 30q-8 31 -19 53t-17 29t-10 9q-17 -11 -34 -69t-17 -114q0 -31 5 -56t9.5 -34.5t7.5 -11.5q55 0 109 103zM246 488q-19 0 -27.5 10.5t-22.5 39t-35 53.5q-4 -4 -25.5 -31
t-40.5 -45.5t-32 -18.5q-20 0 -30.5 15.5t-10.5 35.5q0 6 28 40q14 15 23 26q33 38 51.5 52t38.5 14q41 0 86 -73q38 -63 38 -69q0 -19 -11 -34t-30 -15z" />
    <glyph glyph-name="atilde" unicode="&#xe3;" horiz-adv-x="433" 
d="M389 58q14 -2 24 -13.5t10 -26.5q0 -16 -11.5 -28t-28.5 -12q-30 0 -51 23q-33 35 -42 131q-73 -130 -171 -130q-57 0 -84 67q-18 44 -18 113q0 71 14 126t35.5 83t42.5 42t39 14q83 0 123 -150q0 -3 1 -4q4 13 8 33.5t7 32.5t8 24.5t13.5 18.5t21.5 6q17 0 29 -11.5
t12 -28.5q0 -24 -2.5 -68t-2.5 -62q0 -149 23 -180zM224 504q-27 0 -53.5 15.5t-42.5 40.5l-7 10l-11 -17q-11 -17 -25.5 -31t-28.5 -14q-17 0 -28.5 12.5t-11.5 28.5q0 9 6 20q51 84 99 84h1q42 0 73 -50q13 -19 29 -19q1 3 3.5 21t11 29.5t28.5 11.5q17 0 28.5 -12
t11.5 -28q0 -33 -9.5 -55.5t-24.5 -31.5t-25.5 -12t-19.5 -3h-4zM228 185q16 31 31 72q-11 -11 -27 -11q-30 0 -38 30q-8 31 -19 53t-17 29t-10 9q-17 -11 -34 -69t-17 -114q0 -31 5 -56t9.5 -34.5t7.5 -11.5q55 0 109 103z" />
    <glyph glyph-name="adieresis" unicode="&#xe4;" horiz-adv-x="429" 
d="M386 58q14 -2 24 -13.5t10 -26.5q0 -16 -12 -28t-28 -12q-30 0 -51 23q-33 35 -42 131q-73 -130 -171 -130q-57 0 -84 67q-18 44 -18 113q0 71 14 126t35.5 83t42.5 42t39 14q83 0 123 -150q0 -3 1 -4q4 13 8 33.5t7 32.5t8 24.5t13.5 18.5t21.5 6q17 0 29 -11.5
t12 -28.5q0 -24 -2.5 -68t-2.5 -62q0 -149 23 -180zM225 185q16 31 31 72q-11 -11 -27 -11q-30 0 -38 30q-8 31 -19 53t-17 29t-10 9q-17 -11 -34 -69t-17 -114q0 -31 5 -56t9.5 -34.5t7.5 -11.5q55 0 109 103zM122 522q-12 -12 -29 -12q-7 0 -16 3l-8 3q-24 9 -24 37
q0 18 11.5 29t27.5 11l7 2q1 0 3.5 0.5t3.5 0.5q17 0 28.5 -12.5t11.5 -29.5t-13 -28zM253 587q16 -12 16 -31q0 -20 -11.5 -34.5t-31.5 -14.5q-16 0 -26.5 10t-12.5 25l-3 7q-2 8 -2 11q0 16 12 28t29 12q15 0 25 -10z" />
    <glyph glyph-name="aring" unicode="&#xe5;" horiz-adv-x="428" 
d="M386 58q14 -2 24 -13.5t10 -26.5q0 -16 -12 -28t-28 -12q-30 0 -51 23q-33 35 -42 131q-73 -130 -171 -130q-57 0 -84 67q-18 44 -18 113q0 71 14 126t35.5 83t42.5 42t39 14q83 0 123 -150q0 -3 1 -4q4 13 8 33.5t7 32.5t8 24.5t13.5 18.5t21.5 6q17 0 29 -11.5
t12 -28.5q0 -24 -2.5 -68t-2.5 -62q0 -149 23 -180zM141 478q-45 0 -73.5 31t-28.5 76q0 60 37 103.5t86 43.5q43 0 71 -30t28 -79q0 -57 -35 -101t-85 -44zM225 185q16 31 31 72q-11 -11 -27 -11q-30 0 -38 30q-8 31 -19 53t-17 29t-10 9q-17 -11 -34 -69t-17 -114
q0 -31 5 -56t9.5 -34.5t7.5 -11.5q55 0 109 103zM136 559l2 -1h3q14 0 27 21t13 44q0 29 -18 29q-17 0 -30.5 -21.5t-13.5 -43.5q0 -25 17 -28z" />
    <glyph glyph-name="ae" unicode="&#xe6;" horiz-adv-x="628" 
d="M585 226q28 -10 28 -39q0 -4 -2 -12q-26 -81 -77 -130t-110 -49q-48 0 -86 35t-53 93q-74 -122 -166 -122q-57 0 -84 67q-18 44 -18 113q0 71 14 126t35.5 83t42.5 42t39 14q83 0 123 -150q0 -3 1 -4q4 13 8 33.5t7 32.5t8 24.5t13.5 18.5t21.5 6q17 0 25 -7
q53 43 117 43q47 0 78 -27t31 -69q0 -60 -61.5 -104.5t-163.5 -55.5l3 -20q6 -42 23 -66.5t41 -24.5q29 0 61 31t51 92q8 28 38 28q4 0 12 -2zM228 185q16 31 31 72q-11 -11 -27 -11q-30 0 -38 30q-8 31 -19 53t-17 29t-10 9q-17 -11 -34 -69t-17 -114q0 -31 5 -56
t9.5 -34.5t7.5 -11.5q55 0 109 103zM392 324q-20 -23 -29 -54q65 10 102 33.5t37 44.5q0 16 -31 16h-3q-45 -2 -76 -40z" />
    <glyph glyph-name="ccedilla" unicode="&#xe7;" horiz-adv-x="369" 
d="M167 -248q-81 0 -81 47q0 17 12 28t28 11q10 0 24 -3t17 -3q25 0 25 12q0 10 -10 21t-31 13q-46 4 -46 65q0 4 8 68q-48 14 -75 68.5t-27 132.5q0 100 52.5 167t130.5 67q44 0 73.5 -26.5t29.5 -69.5q0 -25 -10.5 -40.5t-30.5 -15.5q-18 0 -29.5 12t-11.5 29q0 2 1 7.5
t1 8.5q0 15 -23 15q-45 0 -74 -44t-29 -109v-7q0 -15 1.5 -31t7 -38.5t18 -37t31.5 -14.5q29 0 67 32.5t70 91.5q11 21 35 21q17 0 28.5 -12t11.5 -28q0 -11 -4 -19q-65 -122 -162 -158q0 -11 -4.5 -32.5t-4.5 -28.5q37 -12 61.5 -41t24.5 -66q0 -35 -23 -64t-82 -29z" />
    <glyph glyph-name="egrave" unicode="&#xe8;" horiz-adv-x="372" 
d="M337 226q28 -10 28 -39q0 -4 -2 -12q-26 -81 -77 -130t-110 -49q-56 0 -95 43.5t-50 117.5l-3 32q-19 12 -19 34q0 24 22 37q11 80 67 132t126 52q47 0 78 -27t31 -69q0 -60 -61.5 -104.5t-163.5 -55.5l3 -20q6 -42 23 -66.5t41 -24.5q29 0 61 31t51 92q8 28 38 28
q4 0 12 -2zM225 511q-9 0 -19 5q-5 2 -21 13t-41.5 39t-38.5 60q-3 8 -3 14q0 16 11.5 28.5t28.5 12.5q26 0 37 -26q5 -12 13.5 -24t17 -20t16.5 -14t13 -9l5 -4q21 -11 21 -35q0 -16 -12 -28t-28 -12zM144 324q-20 -23 -29 -54q65 10 102 33.5t37 44.5q0 16 -31 16h-3
q-45 -2 -76 -40z" />
    <glyph glyph-name="eacute" unicode="&#xe9;" horiz-adv-x="373" 
d="M333 226q28 -10 28 -39q0 -4 -2 -12q-26 -81 -77 -130t-110 -49q-56 0 -95 43.5t-50 117.5l-3 32q-19 12 -19 34q0 24 22 37q11 80 67 132t126 52q47 0 78 -27t31 -69q0 -60 -61.5 -104.5t-163.5 -55.5l3 -20q6 -42 23 -66.5t41 -24.5q29 0 61 31t51 92q8 28 38 28
q4 0 12 -2zM203 508q-16 0 -28 12t-12 28q0 24 21 35l5 3l13 10t16.5 14t17 20t13.5 24q10 26 37 26q17 0 28.5 -12.5t11.5 -28.5q0 -7 -3 -14q-13 -32 -38.5 -60t-41.5 -39t-21 -13q-10 -5 -19 -5zM140 324q-20 -23 -29 -54q65 10 102 33.5t37 44.5q0 16 -31 16h-3
q-45 -2 -76 -40z" />
    <glyph glyph-name="ecircumflex" unicode="&#xea;" horiz-adv-x="377" 
d="M337 226q28 -10 28 -39q0 -4 -2 -12q-26 -81 -77 -130t-110 -49q-56 0 -95 43.5t-50 117.5l-3 32q-19 12 -19 34q0 24 22 37q11 80 67 132t126 52q47 0 78 -27t31 -69q0 -60 -61.5 -104.5t-163.5 -55.5l3 -20q6 -42 23 -66.5t41 -24.5q29 0 61 31t51 92q8 28 38 28
q4 0 12 -2zM309 491q-19 0 -27.5 10.5t-22.5 39t-35 53.5q-4 -4 -25.5 -31t-40.5 -45.5t-32 -18.5q-20 0 -30.5 15.5t-10.5 35.5q0 6 28 40q14 15 23 26q33 38 51.5 52t38.5 14q41 0 86 -73q38 -63 38 -69q0 -19 -11 -34t-30 -15zM144 324q-20 -23 -29 -54q65 10 102 33.5
t37 44.5q0 16 -31 16h-3q-45 -2 -76 -40z" />
    <glyph glyph-name="edieresis" unicode="&#xeb;" horiz-adv-x="377" 
d="M337 226q28 -10 28 -39q0 -4 -2 -12q-26 -81 -77 -130t-110 -49q-56 0 -95 43.5t-50 117.5l-3 32q-19 12 -19 34q0 24 22 37q11 80 67 132t126 52q47 0 78 -27t31 -69q0 -60 -61.5 -104.5t-163.5 -55.5l3 -20q6 -42 23 -66.5t41 -24.5q29 0 61 31t51 92q8 28 38 28
q4 0 12 -2zM144 324q-20 -23 -29 -54q65 10 102 33.5t37 44.5q0 16 -31 16h-3q-45 -2 -76 -40zM185 525q-12 -12 -29 -12q-7 0 -16 3l-8 3q-24 9 -24 37q0 18 11.5 29t27.5 11l7 2q1 0 3.5 0.5t3.5 0.5q17 0 28.5 -12.5t11.5 -29.5t-13 -28zM316 590q16 -12 16 -31
q0 -20 -11.5 -34.5t-31.5 -14.5q-16 0 -26.5 10t-12.5 25l-3 7q-2 8 -2 11q0 16 12 28t29 12q15 0 25 -10z" />
    <glyph glyph-name="igrave" unicode="&#xec;" horiz-adv-x="241" 
d="M197 -37q-70 0 -100 74.5t-30 228.5q0 37 4 143q1 16 12.5 27.5t27.5 11.5t28 -12t12 -28q0 -22 -1.5 -69.5t-1.5 -70.5q0 -225 49 -225q17 0 28.5 -11.5t11.5 -28.5t-11.5 -28.5t-28.5 -11.5zM130 517q-9 0 -19 5q-5 2 -21 13t-41.5 39t-38.5 60q-3 8 -3 14
q0 16 11.5 28.5t28.5 12.5q26 0 37 -26q5 -12 13.5 -24t17 -20t16.5 -14t13 -9l5 -4q21 -11 21 -35q0 -16 -12 -28t-28 -12z" />
    <glyph glyph-name="iacute" unicode="&#xed;" horiz-adv-x="195" 
d="M142 -37q-70 0 -100 74.5t-30 228.5q0 37 4 143q1 16 12.5 27.5t27.5 11.5t28 -12t12 -28q0 -22 -1.5 -69.5t-1.5 -70.5q0 -225 49 -225q16 0 28 -11.5t12 -28.5t-12 -28.5t-28 -11.5zM57 514q-16 0 -28 12t-12 28q0 24 21 35l5 3l13 10t16.5 14t17 20t13.5 24
q10 26 37 26q17 0 28.5 -12.5t11.5 -28.5q0 -7 -3 -14q-13 -32 -38.5 -60t-41.5 -39t-21 -13q-10 -5 -19 -5z" />
    <glyph glyph-name="icircumflex" unicode="&#xee;" horiz-adv-x="295" 
d="M219 -37q-70 0 -100 74.5t-30 228.5q0 37 4 143q1 16 12.5 27.5t27.5 11.5t28 -12t12 -28q0 -22 -1.5 -69.5t-1.5 -70.5q0 -225 49 -225q17 0 28.5 -11.5t11.5 -28.5t-11.5 -28.5t-28.5 -11.5zM236 497q-19 0 -27.5 10.5t-22.5 39t-35 53.5q-4 -4 -25.5 -31t-40.5 -45.5
t-32 -18.5q-20 0 -30.5 15.5t-10.5 35.5q0 6 28 40q14 15 23 26q33 38 51.5 52t38.5 14q41 0 86 -73q38 -63 38 -69q0 -19 -11 -34t-30 -15z" />
    <glyph glyph-name="idieresis" unicode="&#xef;" horiz-adv-x="244" 
d="M190 -37q-70 0 -100 74.5t-30 228.5q0 37 4 143q1 16 12.5 27.5t27.5 11.5t28 -12t12 -28q0 -22 -1.5 -69.5t-1.5 -70.5q0 -225 49 -225q16 0 28 -11.5t12 -28.5t-12 -28.5t-28 -11.5zM83 531q-12 -12 -29 -12q-7 0 -16 3l-8 3q-24 9 -24 37q0 18 11.5 29t27.5 11l7 2
q1 0 3.5 0.5t3.5 0.5q17 0 28.5 -12.5t11.5 -29.5t-13 -28zM214 596q16 -12 16 -31q0 -20 -11.5 -34.5t-31.5 -14.5q-16 0 -26.5 10t-12.5 25l-3 7q-2 8 -2 11q0 16 12 28t29 12q15 0 25 -10z" />
    <glyph glyph-name="eth" unicode="&#xf0;" horiz-adv-x="414" 
d="M144 525q-16 1 -27 12.5t-11 27.5q0 11 3 17.5t7 10t16 11.5t21 15q-12 2 -18 2t-19 -2.5t-20 -2.5q-16 0 -28 11t-12 28q0 46 78 46q43 0 84 -23q5 6 12.5 18t11.5 17t12.5 9.5t19.5 4.5q16 0 26.5 -13t10.5 -28q0 -21 -30 -57q52 -55 83.5 -141.5t31.5 -184.5
q0 -124 -56.5 -212.5t-143.5 -88.5q-72 0 -124.5 77.5t-52.5 178.5q0 95 55 152.5t145 57.5q38 0 71 -8q-26 71 -64 114q-14 -12 -29.5 -23l-23.5 -16.5t-9 -5.5q-12 -4 -20 -4zM198 82q50 0 84 66t34 154q0 31 -5 69q-53 18 -94 18q-57 0 -87.5 -35.5t-30.5 -98.5
q0 -64 30.5 -118.5t68.5 -54.5z" />
    <glyph glyph-name="ntilde" unicode="&#xf1;" horiz-adv-x="414" 
d="M326 34q14 -2 23.5 -13.5t9.5 -26.5q0 -16 -11.5 -28t-28.5 -12q-23 0 -39.5 11.5t-25.5 34t-14 49t-6.5 63t-2 69t-1 74t-2.5 70.5l-2 23q-35 -50 -76 -154q-15 -38 -29 -79l-21 -63t-7 -23q-8 -29 -38 -29q-19 0 -29.5 13t-10.5 31l1 6q0 6 1 16.5t2 25t2 32l2 35.5
t1.5 38t0.5 38q0 46 -3.5 77.5t-7 44.5t-3.5 16q0 16 11.5 28t28.5 12q29 0 39 -30t14 -92q40 89 67 119q32 35 68 35q26 0 41.5 -19t21 -57t6.5 -76t1.5 -98t3.5 -100q3 -45 13 -61zM317 503q-27 0 -53.5 15.5t-42.5 40.5l-7 10l-11 -17q-11 -17 -25.5 -31t-28.5 -14
q-17 0 -28.5 12.5t-11.5 28.5q0 10 6 20q51 84 99 84h1q42 0 73 -50q13 -19 29 -19q1 3 3.5 21t11 29.5t28.5 11.5q16 0 28 -11.5t12 -28.5q0 -33 -9.5 -55.5t-24.5 -31.5t-25.5 -12t-19.5 -3h-4z" />
    <glyph glyph-name="ograve" unicode="&#xf2;" horiz-adv-x="335" 
d="M203 446q48 0 84.5 -36t36.5 -84q0 -44 -28 -54q23 -39 23 -85q0 -79 -49.5 -130t-119.5 -51q-64 0 -102 45.5t-38 123.5q0 105 58 188t135 83zM243 320q0 1 0.5 2.5t0.5 3.5q0 12 -10 26t-31 14q-44 0 -78.5 -62t-34.5 -129q0 -89 60 -89q28 0 47 12t27 30.5t11 32
t3 25.5q0 22 -14 46t-14 33q0 13 9.5 25t22.5 14q0 1 -0.5 2.5t-0.5 2.5q0 3 2 11zM224 507q-9 0 -19 5q-5 2 -21 13t-41.5 39t-38.5 60q-3 8 -3 14q0 16 11.5 28.5t28.5 12.5q26 0 37 -26q5 -12 13.5 -24t17 -20t16.5 -14t13 -9l5 -4q21 -11 21 -35q0 -16 -12 -28t-28 -12z
" />
    <glyph glyph-name="oacute" unicode="&#xf3;" horiz-adv-x="339" 
d="M198 446q48 0 84.5 -36t36.5 -84q0 -44 -28 -54q23 -39 23 -85q0 -79 -49.5 -130t-119.5 -51q-64 0 -102 45.5t-38 123.5q0 105 58 188t135 83zM238 320q0 1 0.5 2.5t0.5 3.5q0 12 -9.5 26t-31.5 14q-44 0 -78.5 -62t-34.5 -129q0 -89 60 -89q28 0 47 12t27 30.5t11 32
t3 25.5q0 22 -14 46t-14 33q0 13 9.5 25t22.5 14q0 1 -0.5 2.5t-0.5 2.5q0 3 2 11zM201 504q-16 0 -28 12t-12 28q0 24 21 35l5 3l13 10t16.5 14t17 20t13.5 24q10 26 37 26q17 0 28.5 -12.5t11.5 -28.5q0 -7 -3 -14q-13 -32 -38.5 -60t-41.5 -39t-21 -13q-10 -5 -19 -5z
" />
    <glyph glyph-name="ocircumflex" unicode="&#xf4;" horiz-adv-x="368" 
d="M203 446q48 0 84.5 -36t36.5 -84q0 -44 -28 -54q23 -39 23 -85q0 -79 -49.5 -130t-119.5 -51q-64 0 -102 45.5t-38 123.5q0 105 58 188t135 83zM243 320q0 1 0.5 2.5t0.5 3.5q0 12 -10 26t-31 14q-44 0 -78.5 -62t-34.5 -129q0 -89 60 -89q28 0 47 12t27 30.5t11 32
t3 25.5q0 22 -14 46t-14 33q0 13 9.5 25t22.5 14q0 1 -0.5 2.5t-0.5 2.5q0 3 2 11zM308 487q-19 0 -27.5 10.5t-22.5 39t-35 53.5q-4 -4 -25.5 -31t-40.5 -45.5t-32 -18.5q-20 0 -30.5 15.5t-10.5 35.5q0 6 28 40q14 15 23 26q33 38 51.5 52t38.5 14q41 0 86 -73
q38 -63 38 -69q0 -19 -11 -34t-30 -15z" />
    <glyph glyph-name="otilde" unicode="&#xf5;" horiz-adv-x="380" 
d="M205 446q48 0 84.5 -36t36.5 -84q0 -44 -28 -54q23 -39 23 -85q0 -79 -49.5 -130t-119.5 -51q-64 0 -102 45.5t-38 123.5q0 105 58 188t135 83zM245 320q0 1 0.5 2.5t0.5 3.5q0 12 -10 26t-31 14q-44 0 -78.5 -62t-34.5 -129q0 -89 60 -89q28 0 47 12t27 30.5t11 32
t3 25.5q0 22 -14 46t-14 33q0 13 9.5 25t22.5 14q0 1 -0.5 2.5t-0.5 2.5q0 3 2 11zM285 503q-27 0 -53.5 15.5t-42.5 40.5l-7 10l-11 -17q-11 -17 -25.5 -31t-28.5 -14q-17 0 -28.5 12.5t-11.5 28.5q0 10 6 20q51 84 99 84h1q42 0 73 -50q13 -19 29 -19q1 3 3.5 21t11 29.5
t28.5 11.5q16 0 28 -11.5t12 -28.5q0 -33 -9.5 -55.5t-24.5 -31.5t-25.5 -12t-19.5 -3h-4z" />
    <glyph glyph-name="odieresis" unicode="&#xf6;" horiz-adv-x="346" 
d="M203 446q48 0 84.5 -36t36.5 -84q0 -44 -28 -54q23 -39 23 -85q0 -79 -49.5 -130t-119.5 -51q-64 0 -102 45.5t-38 123.5q0 105 58 188t135 83zM243 320q0 1 0.5 2.5t0.5 3.5q0 12 -10 26t-31 14q-44 0 -78.5 -62t-34.5 -129q0 -89 60 -89q28 0 47 12t27 30.5t11 32
t3 25.5q0 22 -14 46t-14 33q0 13 9.5 25t22.5 14q0 1 -0.5 2.5t-0.5 2.5q0 3 2 11zM184 521q-12 -12 -29 -12q-7 0 -16 3l-8 3q-24 9 -24 37q0 18 11.5 29t27.5 11l7 2q1 0 3.5 0.5t3.5 0.5q17 0 28.5 -12.5t11.5 -29.5t-13 -28zM315 586q16 -12 16 -31q0 -20 -11.5 -34.5
t-31.5 -14.5q-16 0 -26.5 10t-12.5 25l-3 7q-2 8 -2 11q0 16 12 28t29 12q15 0 25 -10z" />
    <glyph glyph-name="oslash" unicode="&#xf8;" horiz-adv-x="342" 
d="M40 10q-15 1 -26 12.5t-11 26.5q0 6 0.5 10t4 9l4.5 6.5t7.5 7.5t8.5 8q-15 36 -15 85q0 105 58 188t135 83q26 0 52 -13q14 29 40 29q16 0 27 -14.5t11 -29.5q-2 -8 -22 -40q13 -26 13 -52q0 -44 -28 -54q23 -39 23 -85q0 -79 -49.5 -130t-119.5 -51q-46 0 -80 25
q-14 -18 -16.5 -19.5t-13.5 -1.5h-3zM241 186q0 22 -19 53l-101 -144q12 -9 32 -9q28 0 47 12t27 30.5t11 32t3 25.5zM206 366q-43 0 -76.5 -57.5t-36.5 -123.5l122 180q-1 0 -4 0.5t-5 0.5z" />
    <glyph glyph-name="ugrave" unicode="&#xf9;" horiz-adv-x="453" 
d="M411 81q16 -1 27 -12.5t11 -27.5q0 -17 -11.5 -28.5t-28.5 -11.5q-87 0 -124 199q-42 -119 -88 -180t-91 -61q-27 0 -47 21q-43 45 -43 230q0 53 5 155q1 16 12 26.5t26 10.5q18 0 30 -11.5t12 -28.5q0 -31 -2.5 -82.5t-2.5 -72.5q0 -122 16 -162q38 30 80.5 136
t70.5 233q3 13 14 22t25 9q16 0 27.5 -11t12.5 -27q0 -55 17 -162q23 -146 52 -164zM185 484q-9 0 -19 5q-5 2 -21 13t-41.5 39t-38.5 60q-3 8 -3 14q0 16 11.5 28.5t28.5 12.5q26 0 37 -26q5 -12 13.5 -24t17 -20t16.5 -14l13 -10l5 -3q21 -11 21 -35q0 -16 -12 -28
t-28 -12z" />
    <glyph glyph-name="uacute" unicode="&#xfa;" horiz-adv-x="451" 
d="M407 81q16 -1 27 -12.5t11 -27.5q0 -17 -11.5 -28.5t-28.5 -11.5q-87 0 -124 199q-42 -119 -88 -180t-91 -61q-27 0 -47 21q-43 45 -43 230q0 53 5 155q1 16 12 26.5t26 10.5q18 0 30 -11.5t12 -28.5q0 -31 -2.5 -82.5t-2.5 -72.5q0 -122 16 -162q38 30 80.5 136
t70.5 233q3 13 14 22t25 9q16 0 27.5 -11t12.5 -27q0 -55 17 -162q23 -146 52 -164zM163 481q-16 0 -28 12t-12 28q0 25 21 35l5 4q5 3 13 9t16.5 14t17 20t13.5 24q10 26 37 26q17 0 28.5 -12.5t11.5 -28.5q0 -6 -3 -14q-13 -32 -38.5 -60t-41.5 -39t-21 -13q-10 -5 -19 -5
z" />
    <glyph glyph-name="ucircumflex" unicode="&#xfb;" horiz-adv-x="455" 
d="M411 81q16 -1 27 -12.5t11 -27.5q0 -17 -11.5 -28.5t-28.5 -11.5q-87 0 -124 199q-42 -119 -88 -180t-91 -61q-27 0 -47 21q-43 45 -43 230q0 53 5 155q1 16 12 26.5t26 10.5q18 0 30 -11.5t12 -28.5q0 -31 -2.5 -82.5t-2.5 -72.5q0 -122 16 -162q38 30 80.5 136
t70.5 233q3 13 14 22t25 9q16 0 27.5 -11t12.5 -27q0 -55 17 -162q23 -146 52 -164zM269 464q-19 0 -27.5 10.5t-22.5 39t-35 53.5q-4 -4 -25.5 -31t-40.5 -45.5t-32 -18.5q-20 0 -30.5 15.5t-10.5 35.5q0 6 28 40q14 15 23 26q33 38 51.5 52t38.5 14q41 0 86 -73
q38 -63 38 -69q0 -19 -11 -34t-30 -15z" />
    <glyph glyph-name="udieresis" unicode="&#xfc;" horiz-adv-x="456" 
d="M411 81q16 -1 27 -12.5t11 -27.5q0 -17 -11.5 -28.5t-28.5 -11.5q-87 0 -124 199q-42 -119 -88 -180t-91 -61q-27 0 -47 21q-43 45 -43 230q0 53 5 155q1 16 12 26.5t26 10.5q18 0 30 -11.5t12 -28.5q0 -31 -2.5 -82.5t-2.5 -72.5q0 -122 16 -162q38 30 80.5 136
t70.5 233q3 13 14 22t25 9q16 0 27.5 -11t12.5 -27q0 -55 17 -162q23 -146 52 -164zM145 498q-12 -12 -29 -12q-7 0 -16 3l-8 3q-24 9 -24 37q0 18 11.5 29t27.5 11l7 2q1 0 3.5 0.5t3.5 0.5q17 0 28.5 -12.5t11.5 -29.5t-13 -28zM276 563q16 -12 16 -31q0 -20 -11.5 -34.5
t-31.5 -14.5q-16 0 -26.5 10t-12.5 25l-3 7q-2 8 -2 11q0 16 12 28t29 12q15 0 25 -10z" />
    <glyph glyph-name="yacute" unicode="&#xfd;" horiz-adv-x="369" 
d="M335 435q2 -7 6.5 -36.5t10 -91t5.5 -119.5q0 -199 -69 -305t-198 -106q-16 0 -28 11.5t-12 28.5t12 28.5t28 11.5q98 0 142.5 89.5t44.5 267.5v4q-86 -237 -178 -237q-27 0 -46 20q-44 46 -44 233q0 53 5 153q1 16 12.5 26.5t27.5 10.5q17 0 28.5 -11.5t11.5 -28.5
q0 -31 -2.5 -83t-2.5 -72q0 -119 17 -162q38 28 79.5 134.5t70.5 234.5q3 13 14.5 22t25.5 9t25 -9t14 -23zM156 505q-16 0 -28 12t-12 28q0 25 21 35l5 4q5 3 13 9t16.5 14t17 20t13.5 24q10 26 37 26q17 0 28.5 -12.5t11.5 -28.5q0 -6 -3 -14q-13 -32 -38.5 -60t-41.5 -39
t-21 -13q-10 -5 -19 -5z" />
    <glyph glyph-name="thorn" unicode="&#xfe;" horiz-adv-x="383" 
d="M281 442q57 0 84 -68q17 -45 17 -113q0 -71 -14 -125.5t-35.5 -83t-42.5 -42t-39 -13.5q-81 0 -121 147q-5 -19 -12.5 -177t-9.5 -171q-2 -15 -13.5 -24.5t-25.5 -9.5q-17 0 -28.5 11.5t-11.5 27.5q0 11 4.5 258t4.5 332q0 109 -3.5 168.5t-7 68.5t-7 14t-3.5 18
q0 16 11.5 28t28.5 12q18 0 32 -14q15 -16 22 -75t7 -204q0 -13 -0.5 -39.5t-0.5 -40.5q69 115 164 115zM299 212q3 25 3 51q0 30 -4.5 54t-9.5 33.5t-8 11.5q-26 0 -48.5 -17t-40 -48t-27.5 -53t-21 -54q10 8 24 8q31 0 39 -30q8 -32 18.5 -54t16.5 -28.5t10 -8.5
q11 5 27 44.5t21 90.5z" />
    <glyph glyph-name="ydieresis" unicode="&#xff;" horiz-adv-x="371" 
d="M337 435q2 -7 6.5 -36.5t10 -91t5.5 -119.5q0 -199 -69 -305t-198 -106q-16 0 -28 11.5t-12 28.5t12 28.5t28 11.5q98 0 142.5 89.5t44.5 267.5v4q-86 -237 -178 -237q-27 0 -46 20q-44 46 -44 233q0 53 5 153q1 16 12.5 26.5t27.5 10.5q17 0 28.5 -11.5t11.5 -28.5
q0 -31 -2.5 -83t-2.5 -72q0 -119 17 -162q38 28 79.5 134.5t70.5 234.5q3 13 14.5 22t25.5 9t25 -9t14 -23zM136 522q-12 -12 -29 -12q-7 0 -16 3l-8 3q-24 9 -24 37q0 18 11.5 29t27.5 11l7 2q1 0 3.5 0.5t3.5 0.5q17 0 28.5 -12.5t11.5 -29.5t-13 -28zM267 587
q16 -12 16 -31q0 -20 -11.5 -34.5t-31.5 -14.5q-16 0 -26.5 10t-12.5 25l-3 7q-2 8 -2 11q0 16 12 28t29 12q15 0 25 -10z" />
    <glyph glyph-name="Abreve" unicode="&#x102;" horiz-adv-x="502" 
d="M46 179q-16 0 -28 11.5t-12 28.5q0 15 6 24t20 12.5t27.5 4.5t37 2.5t40.5 3.5q45 126 94 322l15 60l1 5l2 10t4.5 12t8 12.5t13 9t18.5 3.5q38 0 42 -53l3 -42q17 -232 27 -295q10 3 25 8.5t24.5 8.5t15.5 3q15 0 27.5 -11t12.5 -28q0 -24 -22 -36t-69 -24
q11 -57 26 -100t26.5 -59.5t17.5 -16.5q17 0 28.5 -11.5t11.5 -28.5t-11.5 -28.5t-28.5 -11.5q-102 0 -149 237q-17 -4 -53 -10l-52 -9q-70 -177 -120 -177q-17 0 -28.5 12t-11.5 28q0 9 11 27l29 46.5t28 52.5q-33 -3 -57 -3zM291 742q-125 0 -125 135v8q0 17 11.5 28.5
t28.5 11.5t28.5 -11.5t11.5 -28.5v-10v-7q0 -18 1.5 -26t11.5 -14t32 -6q37 0 46 10t9 38v3q0 17 12 28.5t28 11.5t28 -11.5t12 -28.5v-3q0 -16 -2 -30t-10 -33t-22 -32.5t-40 -23t-61 -9.5zM271 427q-23 -83 -45 -148q3 1 61 12q-11 86 -16 136z" />
    <glyph glyph-name="abreve" unicode="&#x103;" horiz-adv-x="431" 
d="M389 58q14 -2 24 -13.5t10 -26.5q0 -16 -11.5 -28t-28.5 -12q-30 0 -51 23q-33 35 -42 131q-73 -130 -171 -130q-57 0 -84 67q-18 44 -18 113q0 71 14 126t35.5 83t42.5 42t39 14q83 0 123 -150q0 -3 1 -4q4 13 8 33.5t7 32.5t8 24.5t13.5 18.5t21.5 6q17 0 29 -11.5
t12 -28.5q0 -24 -2.5 -68t-2.5 -62q0 -149 23 -180zM142 499q-125 0 -125 135v8q0 17 11.5 28.5t28.5 11.5t28.5 -11.5t11.5 -28.5v-10v-7q0 -18 1.5 -26t11.5 -14t32 -6q37 0 46 10t9 38v3q0 16 11.5 28t28.5 12t28.5 -12t11.5 -28v-3q0 -16 -2 -30t-10 -33t-22 -32.5
t-40 -23t-61 -9.5zM228 185q16 31 31 72q-11 -11 -27 -11q-30 0 -38 30q-8 31 -19 53t-17 29t-10 9q-17 -11 -34 -69t-17 -114q0 -31 5 -56t9.5 -34.5t7.5 -11.5q55 0 109 103z" />
    <glyph glyph-name="Aogonek" unicode="&#x104;" horiz-adv-x="494" 
d="M42 179q-16 0 -28 11.5t-12 28.5q0 15 6 24t20 12.5t27.5 4.5t37 2.5t40.5 3.5q45 126 94 322l15 60l1 5l2 10t4.5 12t8 12.5t13 9t18.5 3.5q38 0 42 -53l3 -42q17 -232 27 -295q10 3 25 8.5t24.5 8.5t15.5 3q15 0 27.5 -11t12.5 -28q0 -24 -22 -36t-69 -24
q11 -57 26 -100t26.5 -59.5t17.5 -16.5q17 0 28.5 -11.5t11.5 -28.5t-11.5 -28.5t-28.5 -11.5q-15 0 -32 7q-30 -33 -50 -70.5t-20 -57.5t10 -20q23 0 50 26q11 11 27 11t28 -12.5t12 -28.5q0 -32 -43 -54t-73 -22q-42 0 -66.5 27.5t-24.5 72.5q0 60 58 140l33 42
q-34 54 -58 176q-17 -4 -53 -10l-52 -9q-70 -177 -120 -177q-17 0 -28.5 12t-11.5 28q0 9 11 27l29 46.5t28 52.5q-33 -3 -57 -3zM267 427q-23 -83 -45 -148q3 1 61 12q-11 86 -16 136z" />
    <glyph glyph-name="aogonek" unicode="&#x105;" horiz-adv-x="427" 
d="M293 -246q-42 0 -66.5 27.5t-24.5 72.5q0 72 96 188q-11 33 -17 90q-73 -130 -171 -130q-57 0 -84 67q-18 44 -18 113q0 71 14 126t35.5 83t42.5 42t39 14q83 0 123 -150q0 -3 1 -4q4 13 8 33.5t7 32.5t8 24.5t13.5 18.5t21.5 6q17 0 29 -11.5t12 -28.5q0 -24 -2.5 -68
t-2.5 -62q0 -149 23 -180q14 -2 24 -13.5t10 -26.5q0 -16 -12 -28t-28 -12q-13 0 -22 4q-30 -33 -50 -70.5t-20 -57.5t10 -20q23 0 50 26q11 11 27 11t28 -12.5t12 -28.5q0 -32 -43 -54t-73 -22zM219 185q16 31 31 72q-11 -11 -27 -11q-30 0 -38 30q-8 31 -19 53t-17 29
t-10 9q-17 -11 -34 -69t-17 -114q0 -31 5 -56t9.5 -34.5t7.5 -11.5q55 0 109 103z" />
    <glyph glyph-name="Cacute" unicode="&#x106;" horiz-adv-x="483" 
d="M211 10h-13q-87 7 -138.5 94t-51.5 224q0 157 78 253.5t183 96.5q63 0 107.5 -48.5t44.5 -123.5q0 -38 -18 -74t-46 -36q-17 0 -29 11.5t-12 27.5q0 10 12.5 31t12.5 41q0 11 -2.5 23.5t-9 29.5t-22 27.5t-38.5 10.5q-77 0 -129 -78.5t-52 -192.5q0 -105 33.5 -171
t88.5 -66q50 0 102 54.5t83 157.5q8 28 39 28q17 0 28 -12t11 -28q0 -7 -1 -11q-36 -122 -107 -195.5t-154 -73.5zM270 730q-16 0 -28 12t-12 28q0 24 21 35l5 3l13 10t16.5 14t17 20t13.5 24q10 26 37 26q17 0 28.5 -12.5t11.5 -28.5q0 -6 -3 -14q-13 -32 -38.5 -60
t-41.5 -39t-21 -13q-10 -5 -19 -5z" />
    <glyph glyph-name="cacute" unicode="&#x107;" horiz-adv-x="367" 
d="M338 225q20 -11 20 -35q0 -11 -4 -19q-41 -76 -97 -120.5t-110 -44.5q-66 0 -102.5 57t-36.5 149q0 100 52.5 167t130.5 67q44 0 73.5 -26.5t29.5 -69.5q0 -25 -10.5 -40.5t-30.5 -15.5q-18 0 -29.5 12t-11.5 29q0 2 1 7.5t1 8.5q0 15 -23 15q-45 0 -74 -44t-29 -109v-7
q0 -15 1.5 -31t7 -38.5t18 -37t31.5 -14.5q29 0 67 32.5t70 91.5q11 21 35 21q8 0 20 -5zM181 505q-16 0 -28 12t-12 28q0 25 21 35l5 4q5 3 13 9t16.5 14t17 20t13.5 24q10 26 37 26q17 0 28.5 -12.5t11.5 -28.5q0 -6 -3 -14q-13 -32 -38.5 -60t-41.5 -39t-21 -13
q-10 -5 -19 -5z" />
    <glyph glyph-name="Ccaron" unicode="&#x10c;" horiz-adv-x="486" 
d="M214 10h-13q-87 7 -138.5 94t-51.5 224q0 157 78 253.5t183 96.5q63 0 107.5 -48.5t44.5 -123.5q0 -38 -18 -74t-46 -36q-17 0 -29 11.5t-12 27.5q0 10 12.5 31t12.5 41q0 11 -2.5 23.5t-9 29.5t-22 27.5t-38.5 10.5q-77 0 -129 -78.5t-52 -192.5q0 -105 33.5 -171
t88.5 -66q50 0 102 54.5t83 157.5q8 28 39 28q17 0 28 -12t11 -28q0 -7 -1 -11q-36 -122 -107 -195.5t-154 -73.5zM358 923q17 0 28.5 -12.5t11.5 -28.5q0 -7 -4 -17l-12 -22q-11 -22 -25.5 -46t-37.5 -44.5t-44 -20.5q-27 0 -54 27q-87 87 -87 106q0 20 10.5 34.5
t30.5 14.5q13 0 32.5 -18t40.5 -45t25 -31q10 12 25 36q8 14 16 29.5l10.5 20.5t7.5 10.5t10 6t16 0.5z" />
    <glyph glyph-name="ccaron" unicode="&#x10d;" horiz-adv-x="373" 
d="M344 225q20 -11 20 -35q0 -11 -4 -19q-41 -76 -97 -120.5t-110 -44.5q-66 0 -102.5 57t-36.5 149q0 100 52.5 167t130.5 67q44 0 73.5 -26.5t29.5 -69.5q0 -25 -10.5 -40.5t-30.5 -15.5q-18 0 -29.5 12t-11.5 29q0 2 1 7.5t1 8.5q0 15 -23 15q-45 0 -74 -44t-29 -109v-7
q0 -15 1.5 -31t7 -38.5t18 -37t31.5 -14.5q29 0 67 32.5t70 91.5q11 21 35 21q8 0 20 -5zM272 698q17 0 28.5 -12.5t11.5 -28.5q0 -7 -4 -17l-12 -22q-11 -22 -25.5 -46t-37.5 -44.5t-44 -20.5q-27 0 -54 27q-87 87 -87 106q0 20 10.5 34.5t30.5 14.5q13 0 32.5 -18
t40.5 -45t25 -31q10 12 25 36q8 14 16 29.5l10.5 20.5t7.5 10.5t10 6t16 0.5z" />
    <glyph glyph-name="Dcaron" unicode="&#x10e;" horiz-adv-x="515" 
d="M339 0q-70 0 -125.5 51.5t-75.5 132.5q-13 -116 -22 -160q-2 -14 -13.5 -23.5t-25.5 -9.5q-17 0 -29 11.5t-12 28.5q0 4 1 7t9 55.5t16.5 143.5t8.5 165q0 19 -2.5 54.5t-2.5 50.5q0 16 11.5 28t27.5 12q45 0 45 -98q0 -129 -8 -224q11 18 33 18q14 0 25.5 -9t14.5 -23
q12 -63 47.5 -97t75.5 -34q86 0 86 158q0 134 -76 230q-83 102 -218 102q-11 0 -36.5 -3.5t-39.5 -3.5q-17 0 -29 12t-12 28q0 47 113 47q166 0 272.5 -119.5t106.5 -293.5q0 -103 -42.5 -170t-123.5 -67zM297 897q17 0 28.5 -12.5t11.5 -28.5q0 -7 -4 -17l-11 -22
q-12 -22 -26.5 -46t-37.5 -44.5t-44 -20.5q-27 0 -54 27q-87 87 -87 106q0 20 10.5 34.5t30.5 14.5q13 0 32.5 -18t40.5 -45t25 -31q10 12 25 36q8 14 16 29.5l10.5 20.5t7.5 10.5t10 6t16 0.5z" />
    <glyph glyph-name="dcaron" unicode="&#x10f;" horiz-adv-x="581" 
d="M475 314q-16 0 -28 12.5t-12 27.5q0 14 16 30.5t32 39.5t16 54q0 34 -11 34q-7 0 -15 -2t-11 -2q-16 0 -28 11t-12 28q0 44 64 44q42 0 67.5 -30.5t25.5 -82.5q0 -64 -37.5 -114t-66.5 -50zM387 55q25 -11 25 -37q0 -16 -12 -28t-28 -12q-24 0 -41 18q-33 35 -46 172
q-64 -166 -177 -166q-57 0 -84 67q-18 44 -18 113q0 71 14 126t35.5 83t42.5 42t39 14q70 0 111 -112q27 148 32 320q1 16 12 27t27 11q17 0 29 -11.5t12 -27.5q0 -41 -2 -114.5t-2 -105.5q0 -105 6.5 -195.5t13 -132t11.5 -51.5zM176 128q28 42 51 119q-1 0 -3 -0.5
t-3 -0.5q-31 2 -39 30q-9 31 -19 53t-16.5 29t-9.5 8q-17 -5 -34 -66t-17 -119q0 -31 5 -55t9.5 -33t7.5 -11q37 0 68 46z" />
    <glyph glyph-name="Dcroat" unicode="&#x110;" horiz-adv-x="521" 
d="M342 0q-70 0 -125.5 51.5t-75.5 132.5q-13 -116 -22 -160q-2 -14 -13.5 -23.5t-25.5 -9.5q-17 0 -29 11.5t-12 28.5q0 4 1 7q1 1 6.5 38t13 105t11.5 130q-52 4 -52 42q0 16 11 28.5t28 12.5q2 0 6 -1.5t10 -2.5v12q0 19 -2.5 54.5t-2.5 50.5q0 16 11.5 28t27.5 12
q45 0 45 -98q0 -41 -1 -62q19 1 47 6.5t33 5.5q17 0 28.5 -11.5t11.5 -27.5q0 -53 -122 -53q-1 -32 -5 -82q11 18 33 18q14 0 25.5 -9t14.5 -23q12 -63 47.5 -97t75.5 -34q86 0 86 158q0 134 -76 230q-83 102 -218 102q-11 0 -36.5 -3.5t-39.5 -3.5q-17 0 -29 12t-12 28
q0 47 113 47q166 0 272.5 -119.5t106.5 -293.5q0 -103 -42.5 -170t-123.5 -67z" />
    <glyph glyph-name="dcroat" unicode="&#x111;" horiz-adv-x="427" 
d="M169 537q-11 10 -11 28q0 16 11 28.5t28 12.5q1 0 6 -2t23 -3.5t52 -1.5l2 56q1 16 12 27t27 11q17 0 29 -11.5t12 -27.5v-44q4 1 11 1q17 0 28.5 -11.5t11.5 -27.5q0 -35 -54 -48q-1 -31 -1 -90q0 -105 6.5 -195.5t13 -132t11.5 -51.5q25 -11 25 -37q0 -16 -12 -28
t-28 -12q-24 0 -41 18q-33 35 -46 172q-64 -166 -177 -166q-57 0 -84 67q-18 44 -18 113q0 71 14 126t35.5 83t42.5 42t39 14q70 0 111 -112q16 89 24 184q-73 2 -86 8q-10 3 -17 10zM176 128q28 42 51 119q-1 0 -3 -0.5t-3 -0.5q-31 2 -39 30q-9 31 -19 53t-16.5 29t-9.5 8
q-17 -5 -34 -66t-17 -119q0 -31 5 -55t9.5 -33t7.5 -11q37 0 68 46z" />
    <glyph glyph-name="Eogonek" unicode="&#x118;" horiz-adv-x="429" 
d="M96 395q7 1 61 6t86 11t48 15q10 5 19 5q16 0 28 -11.5t12 -28.5q0 -18 -17 -31.5t-48.5 -20.5t-61 -11t-71.5 -8.5t-62 -7.5v-3q-1 -12 -1 -34q0 -66 9 -108.5t25 -60t29.5 -22.5t31.5 -5q30 0 76.5 9t77 18t31.5 10q8 2 12 2q16 0 28 -11.5t12 -28.5q0 -15 -3.5 -21
t-10.5 -9t-24 -19t-37 -44q-19 -27 -35.5 -71t-16.5 -61q0 -20 10 -20q23 0 50 26q11 11 27 11t28 -12.5t12 -28.5q0 -32 -43 -54t-73 -22q-42 0 -66.5 27.5t-24.5 72.5q0 26 14.5 71t36.5 83q-45 -8 -81 -8q-85 0 -130 69.5t-45 205.5q0 134 38 332q8 45 54 61
q18 6 80.5 13.5t108.5 22.5q4 1 11 1q16 0 28 -11.5t12 -28.5q0 -15 -12 -26.5t-35 -18t-40.5 -9.5t-43 -6t-28.5 -3l-43 -6l-14 -4q-21 -112 -29 -197z" />
    <glyph glyph-name="eogonek" unicode="&#x119;" horiz-adv-x="377" 
d="M336 226q28 -10 28 -39q0 -4 -2 -12q-27 -82 -77 -130q-78 -105 -78 -192q0 -20 10 -20q23 0 50 26q11 11 27 11t28 -12.5t12 -28.5q0 -32 -43 -54t-73 -22q-42 0 -66.5 27.5t-24.5 72.5q0 67 34 145q-50 5 -85.5 47t-45.5 112l-3 32q-19 12 -19 34q0 24 22 37
q11 80 67 132t126 52q47 0 78 -27t31 -69q0 -60 -61.5 -104.5t-163.5 -55.5l3 -20q6 -42 23 -66.5t42 -24.5q26 0 47 20l18 17q30 35 46 86q8 28 38 28q4 0 12 -2zM143 324q-20 -23 -29 -54q65 10 102 33.5t37 44.5q0 16 -31 16h-3q-45 -2 -76 -40z" />
    <glyph glyph-name="Ecaron" unicode="&#x11a;" horiz-adv-x="433" 
d="M272 932q17 0 28.5 -12.5t11.5 -28.5q0 -7 -4 -17l-12 -22q-11 -22 -25.5 -46t-37.5 -44.5t-44 -20.5q-27 0 -54 27q-87 87 -87 106q0 20 10.5 34.5t30.5 14.5q13 0 32.5 -18t40.5 -45t25 -31q10 12 25 36q8 14 16 29.5l10.5 20.5t7.5 10.5t10 6t16 0.5zM102 395
q7 1 61 6t86 11t48 15q10 5 19 5q16 0 28 -11.5t12 -28.5q0 -18 -17 -31.5t-48.5 -20.5t-61 -11t-71.5 -8.5t-62 -7.5v-3q-1 -12 -1 -34q0 -66 9 -108.5t25 -60t29.5 -22.5t31.5 -5q30 0 76.5 9t77 18t31.5 10q8 2 12 2q16 0 28 -11.5t12 -28.5q0 -30 -28 -38
q-7 -3 -37.5 -11.5t-83 -19t-88.5 -10.5q-85 0 -130 69.5t-45 205.5q0 134 38 332q8 45 54 61q18 6 80.5 13.5t108.5 22.5q4 1 11 1q16 0 28 -11.5t12 -28.5q0 -15 -12 -26.5t-35 -18t-40.5 -9.5t-43 -6t-28.5 -3l-43 -6l-14 -4q-21 -112 -29 -197z" />
    <glyph glyph-name="ecaron" unicode="&#x11b;" horiz-adv-x="379" 
d="M339 226q28 -10 28 -39q0 -4 -2 -12q-26 -81 -77 -130t-110 -49q-56 0 -95 43.5t-50 117.5l-3 32q-19 12 -19 34q0 24 22 37q11 80 67 132t126 52q47 0 78 -27t31 -69q0 -60 -61.5 -104.5t-163.5 -55.5l3 -20q6 -42 23 -66.5t41 -24.5q29 0 61 31t51 92q8 28 38 28
q4 0 12 -2zM294 701q17 0 28.5 -12.5t11.5 -28.5q0 -7 -4 -17l-12 -22q-11 -22 -25.5 -46t-37.5 -44.5t-44 -20.5q-27 0 -54 27q-87 87 -87 106q0 20 10.5 34.5t30.5 14.5q13 0 32.5 -18t40.5 -45t25 -31q10 12 25 36q8 14 16 29.5l10.5 20.5t7.5 10.5t10 6t16 0.5zM146 324
q-20 -23 -29 -54q65 10 102 33.5t37 44.5q0 16 -31 16h-3q-45 -2 -76 -40z" />
    <glyph glyph-name="dotlessi" unicode="&#x131;" horiz-adv-x="190" 
d="M145 -37q-70 0 -100 74.5t-30 228.5q0 37 4 143q1 16 12.5 27.5t27.5 11.5t28 -12t12 -28q0 -22 -1.5 -69.5t-1.5 -70.5q0 -225 49 -225q17 0 28.5 -11.5t11.5 -28.5t-11.5 -28.5t-28.5 -11.5z" />
    <glyph glyph-name="Lacute" unicode="&#x139;" horiz-adv-x="456" 
d="M183 16q-91 0 -129 72.5t-38 261.5q0 116 15 285q1 16 12.5 26t26.5 10q18 0 29.5 -12.5t11.5 -30.5q-15 -168 -15 -281q0 -60 4.5 -107t10.5 -71.5t14 -41t12.5 -21t8.5 -6.5q15 -5 35 -5q30 0 110.5 15.5t123.5 15.5q16 0 28 -11.5t12 -28.5q0 -15 -10 -27t-26 -13
q-30 -3 -114.5 -16.5t-121.5 -13.5zM79 731q-16 0 -28 12t-12 28q0 25 21 35l5 4q5 3 13 9t16.5 14t17 20t13.5 24q10 26 37 26q17 0 28.5 -12.5t11.5 -28.5q0 -6 -3 -14q-13 -32 -38.5 -60t-41.5 -39t-21 -13q-10 -5 -19 -5z" />
    <glyph glyph-name="lacute" unicode="&#x13a;" horiz-adv-x="197" 
d="M142 53q16 0 28 -11.5t12 -28.5t-12 -28.5t-28 -11.5q-67 0 -98 79.5t-31 261.5q0 85 8 265q0 4 0.5 18.5t1 21t3 17.5t6.5 16.5t12 10t19 4.5q17 0 29 -12.5t11 -29.5l-2 -50q-8 -220 -8 -238q0 -75 4.5 -131.5t10 -84.5t13 -44.5t12.5 -20t9 -3.5zM64 724q-16 0 -28 12
t-12 28q0 24 21 35l5 3l13 10t16.5 14t17 20t13.5 24q10 26 37 26q17 0 28.5 -12.5t11.5 -28.5q0 -7 -3 -14q-13 -32 -38.5 -60t-41.5 -39t-21 -13q-10 -5 -19 -5z" />
    <glyph glyph-name="Lcaron" unicode="&#x13d;" horiz-adv-x="458" 
d="M255 394q-16 0 -28 12.5t-12 27.5q0 14 16 30.5t32 39.5t16 54q0 34 -11 34q-7 0 -15 -2t-11 -2q-16 0 -28 11t-12 28q0 44 64 44q42 0 67.5 -30.5t25.5 -82.5q0 -64 -37.5 -114t-66.5 -50zM185 16q-91 0 -129 72.5t-38 261.5q0 116 15 285q1 16 12.5 26t26.5 10
q18 0 29.5 -12.5t11.5 -30.5q-15 -168 -15 -281q0 -60 4.5 -107t10.5 -71.5t14 -41t12.5 -21t8.5 -6.5q15 -5 35 -5q30 0 110.5 15.5t123.5 15.5q16 0 28 -11.5t12 -28.5q0 -15 -10 -27t-26 -13q-30 -3 -114.5 -16.5t-121.5 -13.5z" />
    <glyph glyph-name="lcaron" unicode="&#x13e;" horiz-adv-x="300" 
d="M195 314q-16 0 -28 12.5t-12 27.5q0 14 16 30.5t32 39.5t16 54q0 34 -11 34q-7 0 -15 -2t-11 -2q-16 0 -28 11t-12 28q0 44 64 44q42 0 67.5 -30.5t25.5 -82.5q0 -64 -37.5 -114t-66.5 -50zM145 53q17 0 28.5 -11.5t11.5 -28.5t-11.5 -28.5t-28.5 -11.5q-67 0 -98 79.5
t-31 261.5q0 85 8 265q0 4 0.5 18.5t1 21t3 17.5t6.5 16.5t12 10t19 4.5q17 0 29 -12.5t11 -29.5l-2 -50q-8 -220 -8 -238q0 -75 4.5 -131.5t10 -84.5t13 -44.5t12.5 -20t9 -3.5z" />
    <glyph glyph-name="Lslash" unicode="&#x141;" horiz-adv-x="520" 
d="M247 16q-81 0 -119 55t-46 194q-39 -11 -43 -11q-16 0 -27 12.5t-11 28.5q0 11 2 17.5t9 11.5t13.5 7l24 7.5t30.5 10.5v1q0 116 15 285q1 16 12.5 26t26.5 10q18 0 29.5 -12.5t11.5 -30.5q-11 -119 -15 -242l10 9q12 12 30 12t27.5 -12.5t9.5 -28.5q0 -38 -76 -73
q2 -47 7 -83t10.5 -55.5t12.5 -32.5t11 -17t8 -5q15 -5 35 -5q30 0 110.5 15.5t123.5 15.5q16 0 28 -11.5t12 -28.5q0 -15 -10 -27t-26 -13q-30 -3 -114.5 -16.5t-121.5 -13.5z" />
    <glyph glyph-name="lslash" unicode="&#x142;" horiz-adv-x="246" 
d="M202 53q16 0 28 -11.5t12 -28.5t-12 -28.5t-28 -11.5q-62 0 -93.5 68t-35.5 223q-32 -10 -37 -10q-16 0 -27 12.5t-11 28.5q0 8 1 13t4.5 9.5t6 7t11 6t13.5 5l18 5.5t21 6q1 103 8 232q0 4 0.5 18.5t1 21t3 17.5t6.5 16.5t12 10t19 4.5q17 0 29 -12.5t11 -29.5l-2 -50
q-7 -160 -8 -191q6 4 14.5 10.5t14.5 9.5t15 3q18 0 27.5 -12.5t9.5 -28.5q0 -40 -81 -75q1 -63 5.5 -110t10.5 -70.5t13 -37.5t11.5 -17t8.5 -3z" />
    <glyph glyph-name="Nacute" unicode="&#x143;" horiz-adv-x="557" 
d="M395 2q-53 0 -99.5 57.5t-92.5 177.5l-22 63q-6 -86 -27 -157q-17 -53 -47.5 -97t-59.5 -44q-16 0 -28 11.5t-12 28.5q0 19 15 31q83 68 83 328q0 34 -2 70.5t-4.5 70t-3.5 45.5l-2 37q0 18 10 29t17.5 12.5t13.5 1.5q30 0 43 -44l8 -37l23 -88t30.5 -105.5t37 -113
t39 -98t42 -73t39.5 -26.5q66 0 66 243q0 63 -5.5 167.5t-5.5 123.5q0 88 51 88q17 0 28.5 -11.5t11.5 -28.5q0 -8 -5.5 -19t-5.5 -27q0 -22 5.5 -124t5.5 -166q0 -313 -137 -326h-10zM297 731q-16 0 -28 12t-12 28q0 25 21 35l5 4q5 3 13 9t16.5 14t17 20t13.5 24
q10 26 37 26q17 0 28.5 -12.5t11.5 -28.5q0 -6 -3 -14q-13 -32 -38.5 -60t-41.5 -39t-21 -13q-10 -5 -19 -5z" />
    <glyph glyph-name="nacute" unicode="&#x144;" horiz-adv-x="375" 
d="M321 34q14 -2 23.5 -13.5t9.5 -26.5q0 -16 -12 -28t-28 -12q-23 0 -39.5 11.5t-25.5 34t-14 49t-6.5 63t-2 69t-1 74t-2.5 70.5l-2 23q-35 -50 -76 -154q-15 -38 -29 -79l-21 -63t-7 -23q-8 -29 -38 -29q-19 0 -29.5 13t-10.5 31v6q1 6 2 16.5t2 25t2 32l2 35.5t1.5 38
t0.5 38q0 46 -3.5 77.5t-7 44.5t-3.5 16q0 16 11.5 28t28.5 12q29 0 39 -30t14 -92q40 89 67 119q32 35 68 35q26 0 41.5 -19t21 -57t6.5 -76t1.5 -98t3.5 -100q3 -45 13 -61zM235 504q-16 0 -28 12t-12 28q0 24 21 35l5 3l13 10t16.5 14t17 20t13.5 24q10 26 37 26
q17 0 28.5 -12.5t11.5 -28.5q0 -7 -3 -14q-13 -32 -38.5 -60t-41.5 -39t-21 -13q-10 -5 -19 -5z" />
    <glyph glyph-name="Ncaron" unicode="&#x147;" horiz-adv-x="559" 
d="M397 2q-53 0 -99.5 57.5t-92.5 177.5l-22 63q-6 -86 -27 -157q-17 -53 -47.5 -97t-59.5 -44q-16 0 -28 11.5t-12 28.5q0 19 15 31q83 68 83 328q0 34 -2 70.5t-4.5 70t-3.5 45.5l-2 37q0 18 10 29t17.5 12.5t13.5 1.5q30 0 43 -44l8 -37l23 -88t30.5 -105.5t37 -113
t39 -98t42 -73t39.5 -26.5q66 0 66 243q0 63 -5.5 167.5t-5.5 123.5q0 88 51 88q17 0 28.5 -11.5t11.5 -28.5q0 -8 -5.5 -19t-5.5 -27q0 -22 5.5 -124t5.5 -166q0 -313 -137 -326h-10zM384 924q17 0 28.5 -12.5t11.5 -28.5q0 -7 -4 -17l-12 -22q-11 -22 -25.5 -46
t-37.5 -44.5t-44 -20.5q-27 0 -54 27q-87 87 -87 106q0 20 10.5 34.5t30.5 14.5q13 0 32.5 -18t40.5 -45t25 -31q10 12 25 36q8 14 16 29.5l10.5 20.5t7.5 10.5t10 6t16 0.5z" />
    <glyph glyph-name="ncaron" unicode="&#x148;" horiz-adv-x="382" 
d="M326 34q14 -2 23.5 -13.5t9.5 -26.5q0 -16 -11.5 -28t-28.5 -12q-23 0 -39.5 11.5t-25.5 34t-14 49t-6.5 63t-2 69t-1 74t-2.5 70.5l-2 23q-35 -50 -76 -154q-15 -38 -29 -79l-21 -63t-7 -23q-8 -29 -38 -29q-19 0 -29.5 13t-10.5 31l1 6q0 6 1 16.5t2 25t2 32l2 35.5
t1.5 38t0.5 38q0 46 -3.5 77.5t-7 44.5t-3.5 16q0 16 11.5 28t28.5 12q29 0 39 -30t14 -92q40 89 67 119q32 35 68 35q26 0 41.5 -19t21 -57t6.5 -76t1.5 -98t3.5 -100q3 -45 13 -61zM325 697q17 0 28.5 -12.5t11.5 -28.5q0 -7 -4 -17l-11 -22q-12 -22 -26.5 -46
t-37.5 -44.5t-44 -20.5q-27 0 -54 27q-87 87 -87 106q0 20 10.5 34.5t30.5 14.5q13 0 32.5 -18t40.5 -45t25 -31q10 12 25 36q8 14 16 29.5l10.5 20.5t7.5 10.5t10 6t16 0.5z" />
    <glyph glyph-name="Ohungarumlaut" unicode="&#x150;" horiz-adv-x="515" 
d="M213 13q-94 0 -149 68t-55 184q0 161 88.5 290.5t202.5 129.5q102 0 119 -95q40 0 61.5 -51.5t21.5 -113.5q0 -165 -89.5 -288.5t-199.5 -123.5zM300 605q-82 0 -146 -107q-65 -106 -65 -233q0 -81 31.5 -126.5t92.5 -45.5q75 0 142 103t67 229q0 35 -8 64l-4 -16
q-3 -12 -14.5 -20.5t-23.5 -8.5q-18 0 -29.5 12t-11.5 28q0 14 5.5 38.5t5.5 33.5q0 13 -0.5 18.5t-4 14.5t-12.5 12.5t-25 3.5zM232 732q-3 -1 -8 -1q-16 0 -28 12t-12 28q0 19 15 31l4 6q4 5 10.5 14t13.5 20t12.5 25t8.5 27q3 15 14 24.5t25 9.5q17 0 29 -12.5t12 -27.5
q0 -2 -0.5 -4t-0.5 -3q-7 -34 -26 -69t-33.5 -52.5t-17.5 -18.5q-9 -8 -18 -9zM380 730q-2 -1 -7 -1q-16 0 -28.5 12t-12.5 28q0 19 15 31l3 4q3 5 8 12.5t10.5 17t10.5 22.5t7 26q2 15 13.5 24.5t25.5 9.5q17 0 29 -12.5t12 -27.5q0 -2 -0.5 -4t-0.5 -3q-6 -34 -22.5 -66.5
t-29 -47.5t-15.5 -16q-9 -8 -18 -9z" />
    <glyph glyph-name="ohungarumlaut" unicode="&#x151;" horiz-adv-x="380" 
d="M203 446q48 0 84.5 -36t36.5 -84q0 -44 -28 -54q23 -39 23 -85q0 -79 -49.5 -130t-119.5 -51q-64 0 -102 45.5t-38 123.5q0 105 58 188t135 83zM243 320q0 1 0.5 2.5t0.5 3.5q0 12 -10 26t-31 14q-44 0 -78.5 -62t-34.5 -129q0 -89 60 -89q28 0 47 12t27 30.5t11 32
t3 25.5q0 22 -14 46t-14 33q0 13 9.5 25t22.5 14q0 1 -0.5 2.5t-0.5 2.5q0 3 2 11zM135 498q-3 -1 -8 -1q-16 0 -28 12t-12 28q0 19 15 31l4 6q4 5 10.5 14t13.5 20t12.5 25t8.5 27q3 15 14 24.5t25 9.5q17 0 29 -12.5t12 -27.5q0 -2 -0.5 -4t-0.5 -3q-7 -34 -26 -69
t-33.5 -52.5t-17.5 -18.5q-9 -8 -18 -9zM283 496q-2 -1 -7 -1q-16 0 -28.5 12t-12.5 28q0 19 15 31l3 4q3 5 8 12.5t10.5 17t10.5 22.5t7 26q2 15 13.5 24.5t25.5 9.5q17 0 29 -12.5t12 -27.5q0 -2 -0.5 -4t-0.5 -3q-6 -34 -22.5 -66.5t-29 -47.5t-15.5 -16q-9 -8 -18 -9z
" />
    <glyph glyph-name="OE" unicode="&#x152;" horiz-adv-x="830" 
d="M579 0q-59 0 -100.5 35.5t-58.5 101.5q-87 -124 -201 -124q-94 0 -149 68t-55 184q0 161 88.5 290.5t202.5 129.5q102 0 119 -95q9 0 13 -1l4 18q11 45 54 61q18 6 80.5 13.5t108.5 22.5q4 1 11 1q16 0 28 -11.5t12 -28.5q0 -15 -12 -26.5t-35 -18t-40.5 -9.5t-43 -6
t-28.5 -3l-43 -6l-14 -4q-21 -112 -29 -197q7 1 61 6t86 11t48 15q10 5 19 5q16 0 28 -11.5t12 -28.5q0 -18 -17 -31.5t-48.5 -20.5t-61 -11t-71.5 -8.5t-62 -7.5v-3q-1 -12 -1 -34q0 -66 9 -108.5t25 -60t29.5 -22.5t31.5 -5q30 0 76.5 9t77 18t31.5 10q8 2 12 2
q16 0 28 -11.5t12 -28.5q0 -30 -28 -38q-7 -3 -37.5 -11.5t-83 -19t-88.5 -10.5zM389 248l15 40q0 76 17 197l-1 4l-4 -16q-3 -12 -14.5 -20.5t-23.5 -8.5q-18 0 -29.5 12t-11.5 28q0 14 5.5 38.5t5.5 33.5q0 13 -0.5 18.5t-4 14.5t-12.5 12.5t-25 3.5q-82 0 -146 -107
q-65 -106 -65 -233q0 -81 31.5 -126.5t92.5 -45.5q48 0 93.5 41t76.5 114z" />
    <glyph glyph-name="oe" unicode="&#x153;" horiz-adv-x="583" 
d="M541 226q28 -10 28 -39q0 -4 -2 -12q-26 -81 -77 -130t-110 -49q-30 0 -59.5 15.5t-47.5 42.5q-48 -48 -117 -48q-64 0 -102 45.5t-38 123.5q0 105 58 188t135 83q30 0 50.5 -12t46.5 -38q53 48 122 48q47 0 78 -27t31 -69q0 -60 -61.5 -104.5t-163.5 -55.5l3 -20
q6 -42 23 -66.5t41 -24.5q29 0 61 31t51 92q8 28 38 28q4 0 12 -2zM235 140q0 2 2 4q-2 8 -2 13l-3 32q-19 12 -19 34q0 24 22 37q7 39 20 66l-14 24q-11 16 -32 16q-44 0 -78.5 -62t-34.5 -129q0 -89 60 -89q55 0 79 54zM348 324q-20 -23 -29 -54q65 10 102 33.5t37 44.5
q0 16 -31 16h-3q-45 -2 -76 -40z" />
    <glyph glyph-name="Racute" unicode="&#x154;" horiz-adv-x="483" 
d="M398 4q-17 1 -28.5 12.5t-11.5 27.5q0 83 -67 138.5t-136 62.5q-33 0 -45 20q-9 -125 -22 -226q-2 -15 -13.5 -25t-26.5 -10h-5q-15 2 -25 13.5t-10 26.5q0 1 8.5 80t17 194t8.5 202q0 23 -2.5 61t-2.5 53q0 16 11.5 28t28.5 12q20 0 30.5 -14.5t10.5 -36.5
q101 66 200 66q72 0 111 -41t39 -106q0 -72 -48 -143.5t-118 -112.5l-10 -5q68 -39 107 -98.5t39 -129.5q0 -49 -40 -49zM122 524q0 -99 -8 -213q13 15 31 15q10 0 15 -1q74 0 150.5 67.5t76.5 149.5q0 67 -71 67q-47 0 -100.5 -24t-93.5 -61zM314 747q-16 0 -28 12t-12 28
q0 25 21 35l5 4q5 3 13 9t16.5 14t17 20t13.5 24q10 26 37 26q17 0 28.5 -12.5t11.5 -28.5q0 -6 -3 -14q-13 -32 -38.5 -60t-41.5 -39t-21 -13q-10 -5 -19 -5z" />
    <glyph glyph-name="racute" unicode="&#x155;" horiz-adv-x="366" 
d="M306 231q16 0 27.5 -12t11.5 -28q0 -17 -11.5 -28.5t-28.5 -11.5q-38 0 -64 35t-33 134q-22 -46 -47 -126q-11 -37 -21.5 -77t-15.5 -62t-5 -23q-3 -14 -14 -23t-25 -9h-4q-16 1 -26 12.5t-10 27.5q0 73 -8.5 184t-23.5 156q-2 4 -2 13q0 16 11.5 28t28.5 12
q16 0 26.5 -9t16.5 -33t9 -44t8 -64q34 92 58 123q31 39 70 39t50 -53q3 -23 7 -64.5t7 -65.5t8 -31zM237 504q-16 0 -28 12t-12 28q0 24 21 35l5 3l13 10t16.5 14t17 20t13.5 24q10 26 37 26q17 0 28.5 -12.5t11.5 -28.5q0 -7 -3 -14q-13 -32 -38.5 -60t-41.5 -39t-21 -13
q-10 -5 -19 -5z" />
    <glyph glyph-name="Rcaron" unicode="&#x158;" horiz-adv-x="486" 
d="M401 4q-17 1 -28.5 12.5t-11.5 27.5q0 83 -67 138.5t-136 62.5q-32 0 -45 20q-9 -125 -22 -226q-2 -15 -13.5 -25t-26.5 -10h-5q-15 2 -25 13.5t-10 26.5q0 1 8.5 80t17 194t8.5 202q0 23 -2.5 61t-2.5 53q0 16 11.5 28t28.5 12q20 0 30.5 -14.5t10.5 -36.5
q101 66 200 66q72 0 111 -41t39 -106q0 -72 -48 -143.5t-118 -112.5l-10 -5q68 -39 107 -98.5t39 -129.5q0 -49 -40 -49zM125 524q0 -99 -8 -213q13 15 31 15q10 0 15 -1q74 0 150.5 67.5t76.5 149.5q0 67 -71 67q-47 0 -100.5 -24t-93.5 -61zM402 940q17 0 28.5 -12.5
t11.5 -28.5q0 -7 -4 -17l-12 -22q-11 -22 -25.5 -46t-37.5 -44.5t-44 -20.5q-27 0 -54 27q-87 87 -87 106q0 20 10.5 34.5t30.5 14.5q13 0 32.5 -18t40.5 -45t25 -31q10 12 25 36q8 14 16 29.5l10.5 20.5t7.5 10.5t10 6t16 0.5z" />
    <glyph glyph-name="rcaron" unicode="&#x159;" horiz-adv-x="373" 
d="M311 231q16 0 27.5 -12t11.5 -28q0 -17 -12 -28.5t-28 -11.5q-38 0 -64 35t-33 134q-22 -46 -47 -126q-11 -37 -21.5 -77t-15.5 -62t-5 -23q-3 -14 -14 -23t-25 -9h-4q-16 1 -26 12.5t-10 27.5q0 73 -8.5 184t-23.5 156q-2 4 -2 13q0 16 11.5 28t28.5 12q16 0 26.5 -9
t16.5 -33t9 -44t8 -64q34 92 58 123q31 39 70 39t50 -53q3 -23 7 -64.5t7 -65.5t8 -31zM327 697q17 0 28.5 -12.5t11.5 -28.5q0 -7 -4 -17l-11 -22q-12 -22 -26.5 -46t-37.5 -44.5t-44 -20.5q-27 0 -54 27q-87 87 -87 106q0 20 10.5 34.5t30.5 14.5q13 0 32.5 -18t40.5 -45
t25 -31q10 12 25 36q8 14 16 29.5l10.5 20.5t7.5 10.5t10 6t16 0.5z" />
    <glyph glyph-name="Sacute" unicode="&#x15a;" horiz-adv-x="371" 
d="M205 16h-6q-81 3 -134.5 65.5t-56.5 160.5q0 16 11.5 29t27.5 13q17 0 29 -11.5t12 -27.5q2 -74 36 -111.5t78 -37.5q32 0 54 15.5t22 45.5q0 34 -23.5 61.5t-79.5 73.5q-67 54 -103.5 103t-36.5 110q0 66 35.5 111.5t89.5 46.5q72 0 125 -68t73 -183q0 -20 -10 -33.5
t-30 -13.5q-14 0 -25.5 9.5t-13.5 24.5q-15 92 -49.5 138t-65.5 46q-21 0 -35 -22.5t-14 -56.5q0 -39 25.5 -70.5t85.5 -79.5q63 -51 98 -97t35 -101q0 -59 -44 -99.5t-110 -40.5zM167 726q-16 0 -28 12t-12 28q0 24 21 35l5 3l13 10t16.5 14t17 20t13.5 24q10 26 37 26
q17 0 28.5 -12.5t11.5 -28.5q0 -7 -3 -14q-13 -32 -38.5 -60t-41.5 -39t-21 -13q-10 -5 -19 -5z" />
    <glyph glyph-name="sacute" unicode="&#x15b;" horiz-adv-x="327" 
d="M275 213q40 -37 40 -83q0 -55 -45 -93t-105 -38q-46 0 -84 23q-27 17 -50.5 47t-23.5 59q0 16 11.5 28.5t28.5 12.5q30 0 38 -28q20 -62 79 -62q26 0 48 13.5t22 37.5q0 13 -15.5 25t-55.5 31q-63 30 -96.5 64t-33.5 85q0 47 30 78t78 31q36 0 85 -28.5t49 -71.5
q0 -16 -11.5 -27.5t-28.5 -11.5q-24 0 -35 20q-23 39 -59 39q-8 0 -13 -1t-10 -8t-5 -20q0 -23 18.5 -38.5t66.5 -38.5q53 -26 77 -45zM148 493q-16 0 -28 12t-12 28q0 25 21 35l5 4q5 3 13 9t16.5 14t17 20t13.5 24q10 26 37 26q17 0 28.5 -12.5t11.5 -28.5q0 -6 -3 -14
q-13 -32 -38.5 -60t-41.5 -39t-21 -13q-10 -5 -19 -5z" />
    <glyph glyph-name="Scedilla" unicode="&#x15e;" 
d="M185 -306q-16 0 -28 12.5t-12 27.5q0 14 16 30.5t32 39.5t16 54q0 34 -11 34q-7 0 -15 -2t-11 -2q-16 0 -28 11t-12 28q0 44 64 44q42 0 67.5 -30.5t25.5 -82.5q0 -64 -37.5 -114t-66.5 -50zM209 16h-6q-81 3 -134.5 65.5t-56.5 160.5q0 16 11.5 29t27.5 13
q17 0 29 -11.5t12 -27.5q2 -74 36 -111.5t78 -37.5q32 0 54 15.5t22 45.5q0 34 -23.5 61.5t-79.5 73.5q-67 54 -103.5 103t-36.5 110q0 66 35.5 111.5t89.5 46.5q72 0 125 -68t73 -183q0 -20 -10 -33.5t-30 -13.5q-14 0 -25.5 9.5t-13.5 24.5q-15 92 -49.5 138t-65.5 46
q-21 0 -35 -22.5t-14 -56.5q0 -39 25.5 -70.5t85.5 -79.5q63 -51 98 -97t35 -101q0 -59 -44 -99.5t-110 -40.5z" />
    <glyph glyph-name="scedilla" unicode="&#x15f;" horiz-adv-x="331" 
d="M165 -326q-16 0 -28 12.5t-12 27.5q0 14 16 30.5t32 39.5t16 54q0 34 -11 34q-7 0 -15 -2t-11 -2q-16 0 -28 11t-12 28q0 44 64 44q42 0 67.5 -30.5t25.5 -82.5q0 -64 -37.5 -114t-66.5 -50zM280 213q40 -37 40 -83q0 -55 -45 -93t-105 -38q-46 0 -84 23q-27 17 -50.5 47
t-23.5 59q0 16 11.5 28.5t28.5 12.5q30 0 38 -28q20 -62 79 -62q26 0 48 13.5t22 37.5q0 13 -15.5 25t-55.5 31q-63 30 -96.5 64t-33.5 85q0 47 30 78t78 31q36 0 85 -28.5t49 -71.5q0 -16 -11.5 -27.5t-28.5 -11.5q-24 0 -35 20q-22 39 -59 39q-8 0 -13 -1t-10 -8t-5 -20
q0 -23 18.5 -38.5t66.5 -38.5q53 -26 77 -45z" />
    <glyph glyph-name="Scaron" unicode="&#x160;" 
d="M210 16h-6q-81 3 -134.5 65.5t-56.5 160.5q0 16 11.5 29t27.5 13q17 0 29 -11.5t12 -27.5q2 -74 36 -111.5t78 -37.5q32 0 54 15.5t22 45.5q0 34 -23.5 61.5t-79.5 73.5q-67 54 -103.5 103t-36.5 110q0 66 35.5 111.5t89.5 46.5q72 0 125 -68t73 -183q0 -20 -10 -33.5
t-30 -13.5q-14 0 -25.5 9.5t-13.5 24.5q-15 92 -49.5 138t-65.5 46q-21 0 -35 -22.5t-14 -56.5q0 -39 25.5 -70.5t85.5 -79.5q63 -51 98 -97t35 -101q0 -59 -44 -99.5t-110 -40.5zM257 919q17 0 28.5 -12.5t11.5 -28.5q0 -7 -4 -17l-11 -22q-12 -22 -26.5 -46t-37.5 -44.5
t-44 -20.5q-27 0 -54 27q-87 87 -87 106q0 20 10.5 34.5t30.5 14.5q13 0 32.5 -18t40.5 -45t25 -31q10 12 25 36q8 14 16 29.5l10.5 20.5t7.5 10.5t10 6t16 0.5z" />
    <glyph glyph-name="scaron" unicode="&#x161;" horiz-adv-x="344" 
d="M292 213q40 -37 40 -83q0 -55 -45 -93t-105 -38q-46 0 -84 23q-27 17 -50.5 47t-23.5 59q0 16 11.5 28.5t28.5 12.5q30 0 38 -28q20 -62 79 -62q26 0 48 13.5t22 37.5q0 13 -15.5 25t-55.5 31q-63 30 -96.5 64t-33.5 85q0 47 30 78t78 31q36 0 85 -28.5t49 -71.5
q0 -16 -11.5 -27.5t-28.5 -11.5q-24 0 -35 20q-23 39 -59 39q-8 0 -13 -1t-10 -8t-5 -20q0 -23 18.5 -38.5t66.5 -38.5q53 -26 77 -45zM250 686q17 0 28.5 -12.5t11.5 -28.5q0 -7 -4 -17l-12 -22q-11 -22 -25.5 -46t-37.5 -44.5t-44 -20.5q-27 0 -54 27q-87 87 -87 106
q0 20 10.5 34.5t30.5 14.5q13 0 32.5 -18t40.5 -45t25 -31q10 12 25 36q8 14 16 29.5l10.5 20.5t7.5 10.5t10 6t16 0.5z" />
    <glyph glyph-name="uni0162" unicode="&#x162;" horiz-adv-x="504" 
d="M225 -316q-16 0 -28 12.5t-12 27.5q0 14 16 30.5t32 39.5t16 54q0 34 -11 34q-7 0 -15 -2t-11 -2q-16 0 -28 11t-12 28q0 44 64 44q42 0 67.5 -30.5t25.5 -82.5q0 -64 -37.5 -114t-66.5 -50zM239 17q-18 1 -29 13t-11 29l1 10q0 10 1 28t2 41.5t1.5 53.5t1.5 61t1.5 67
t0.5 69q0 120 -7 198q-62 -13 -105 -13q-34 0 -62.5 13t-28.5 42q0 16 11.5 28t28.5 12q10 0 21.5 -8t31.5 -8q51 0 166 26t144 26q40 0 64.5 -18.5t24.5 -50.5q0 -16 -11.5 -28t-28.5 -12q-15 0 -28.5 14.5t-19.5 14.5q-40 0 -129 -21q8 -81 8 -219q0 -232 -9 -331
q-1 -16 -12.5 -26.5t-27.5 -10.5z" />
    <glyph glyph-name="uni0163" unicode="&#x163;" horiz-adv-x="308" 
d="M263 427q17 0 28.5 -11.5t11.5 -28.5q0 -73 -137 -95q-4 0 -6 -1q0 -68 4.5 -118.5t10.5 -74.5t14 -38.5t12.5 -17t7.5 -2.5q17 0 28.5 -12t11.5 -28t-11.5 -28t-28.5 -12q-64 0 -96.5 76.5t-32.5 247.5q-22 -1 -69 -1q-17 0 -28.5 11.5t-11.5 28.5q0 41 70 41h39
q1 23 3.5 93t4.5 108l3 50q1 16 12 27.5t27 11.5q18 0 29.5 -12.5t11.5 -29.5l-3 -51q-5 -83 -7 -189q41 7 63 20q1 15 12.5 25t26.5 10zM185 -366q-16 0 -28 12.5t-12 27.5q0 14 16 30.5t32 39.5t16 54q0 34 -11 34q-7 0 -15 -2t-11 -2q-16 0 -28 11t-12 28q0 44 64 44
q42 0 67.5 -30.5t25.5 -82.5q0 -64 -37.5 -114t-66.5 -50z" />
    <glyph glyph-name="Tcaron" unicode="&#x164;" horiz-adv-x="500" 
d="M239 17q-18 1 -29 13t-11 29l1 10q0 10 1 28t2 41.5t1.5 53.5t1.5 61t1.5 67t0.5 69q0 120 -7 198q-62 -13 -105 -13q-34 0 -62.5 13t-28.5 42q0 16 11.5 28t28.5 12q10 0 21.5 -8t31.5 -8q51 0 166 26t144 26q40 0 64.5 -18.5t24.5 -50.5q0 -16 -11.5 -28t-28.5 -12
q-15 0 -28.5 14.5t-19.5 14.5q-40 0 -129 -21q8 -81 8 -219q0 -232 -9 -331q-1 -16 -12.5 -26.5t-27.5 -10.5zM309 940q17 0 28.5 -12.5t11.5 -28.5q0 -7 -4 -17l-11 -22q-12 -22 -26.5 -46t-37.5 -44.5t-44 -20.5q-27 0 -54 27q-87 87 -87 106q0 20 10.5 34.5t30.5 14.5
q13 0 32.5 -18t40.5 -45t25 -31q10 12 25 36q8 14 16 29.5l10.5 20.5t7.5 10.5t10 6t16 0.5z" />
    <glyph glyph-name="tcaron" unicode="&#x165;" horiz-adv-x="393" 
d="M355 417q16 0 28 -11t12 -27q0 -13 -3.5 -23.5t-11.5 -18.5t-16 -14t-24 -10t-27 -7t-32.5 -5t-35 -3l-39.5 -3l-40 -3q-4 0 -6 -1q0 -68 4.5 -118.5t10.5 -74.5t14 -38.5t12.5 -17t7.5 -2.5q17 0 28.5 -12t11.5 -28t-11.5 -28t-28.5 -12q-64 0 -96.5 76.5t-32.5 247.5
q-22 -1 -69 -1q-17 0 -28.5 11.5t-11.5 28.5q0 41 70 41h39q1 23 3.5 93t4.5 108l3 50q1 16 12 27.5t27 11.5q18 0 29.5 -12.5t11.5 -29.5l-3 -51q-5 -83 -7 -189q36 0 93.5 4t61.5 6q1 15 12.5 25t26.5 10zM264 469q-16 0 -28 12.5t-12 27.5q0 14 16 30.5t32 39.5t16 54
q0 34 -11 34q-7 0 -15 -2t-11 -2q-16 0 -28 11t-12 28q0 44 64 44q42 0 67.5 -30.5t25.5 -82.5q0 -64 -37.5 -114t-66.5 -50z" />
    <glyph glyph-name="Uring" unicode="&#x16e;" horiz-adv-x="558" 
d="M509 -25q-59 0 -88.5 70t-33.5 223q-52 -132 -109.5 -194t-128.5 -62q-48 0 -80 42t-44.5 102t-12.5 133q0 87 14.5 179.5t37.5 149.5q10 25 37 25q17 0 28.5 -12t11.5 -28q0 -7 -3 -14q-20 -50 -33 -135t-13 -164q0 -85 16 -141.5t41 -56.5q139 0 259 545q3 13 14 22
t25 9q19 0 29.5 -13t10.5 -32l-1 -6q0 -6 -1.5 -17.5t-3 -27t-3 -35l-3 -41t-3 -46.5l-3 -49.5t-2 -51.5t-0.5 -52q0 -197 37 -238l5 -4q17 0 28.5 -11.5t11.5 -28.5t-11.5 -28.5t-28.5 -11.5zM255 682q-45 0 -73.5 31t-28.5 76q0 60 37 103.5t86 43.5q43 0 71 -30t28 -79
q0 -57 -35 -101t-85 -44zM250 763l2 -1h3q14 0 27 21t13 44q0 29 -18 29q-17 0 -30.5 -21.5t-13.5 -43.5q0 -25 17 -28z" />
    <glyph glyph-name="uring" unicode="&#x16f;" horiz-adv-x="455" 
d="M411 81q16 -1 27 -12.5t11 -27.5q0 -17 -11.5 -28.5t-28.5 -11.5q-87 0 -124 199q-42 -119 -88 -180t-91 -61q-27 0 -47 21q-43 45 -43 230q0 53 5 155q1 16 12 26.5t26 10.5q18 0 30 -11.5t12 -28.5q0 -31 -2.5 -82.5t-2.5 -72.5q0 -122 16 -162q38 30 80.5 136
t70.5 233q3 13 14 22t25 9q16 0 27.5 -11t12.5 -27q0 -55 17 -162q23 -146 52 -164zM164 454q-45 0 -73.5 31t-28.5 76q0 60 37 103.5t86 43.5q43 0 71 -30t28 -79q0 -57 -35 -101t-85 -44zM159 535l2 -1h3q14 0 27 21t13 44q0 29 -18 29q-17 0 -30.5 -21.5t-13.5 -43.5
q0 -25 17 -28z" />
    <glyph glyph-name="Uhungarumlaut" unicode="&#x170;" horiz-adv-x="560" 
d="M509 -25q-59 0 -88.5 70t-33.5 223q-52 -132 -109.5 -194t-128.5 -62q-48 0 -80 42t-44.5 102t-12.5 133q0 87 14.5 179.5t37.5 149.5q10 25 37 25q17 0 28.5 -12t11.5 -28q0 -7 -3 -14q-20 -50 -33 -135t-13 -164q0 -85 16 -141.5t41 -56.5q139 0 259 545q3 13 14 22
t25 9q19 0 29.5 -13t10.5 -32l-1 -6q0 -6 -1.5 -17.5t-3 -27t-3 -35l-3 -41t-3 -46.5l-3 -49.5t-2 -51.5t-0.5 -52q0 -197 37 -238l5 -4q17 0 28.5 -11.5t11.5 -28.5t-11.5 -28.5t-28.5 -11.5zM187 703q-3 -1 -8 -1q-16 0 -28 12t-12 28q0 19 15 31l4 5l10.5 15t13.5 20
t12.5 25t8.5 27q3 15 14 24.5t25 9.5q17 0 29 -12.5t12 -27.5q0 -2 -0.5 -4t-0.5 -3q-7 -34 -26 -69t-33.5 -52.5t-17.5 -18.5q-9 -8 -18 -9zM335 701q-2 -1 -7 -1q-16 0 -28.5 12t-12.5 28q0 19 15 31l3 5q3 4 8 11.5t10.5 17t10.5 22.5t7 26q2 15 13.5 24.5t25.5 9.5
q17 0 29 -12.5t12 -27.5q0 -2 -0.5 -4t-0.5 -3q-6 -34 -22.5 -66.5t-29 -47.5t-15.5 -16q-9 -8 -18 -9z" />
    <glyph glyph-name="uhungarumlaut" unicode="&#x171;" horiz-adv-x="456" 
d="M411 81q16 -1 27 -12.5t11 -27.5q0 -17 -11.5 -28.5t-28.5 -11.5q-87 0 -124 199q-42 -119 -88 -180t-91 -61q-27 0 -47 21q-43 45 -43 230q0 53 5 155q1 16 12 26.5t26 10.5q18 0 30 -11.5t12 -28.5q0 -31 -2.5 -82.5t-2.5 -72.5q0 -122 16 -162q38 30 80.5 136
t70.5 233q3 13 14 22t25 9q16 0 27.5 -11t12.5 -27q0 -55 17 -162q23 -146 52 -164zM96 475q-3 -1 -8 -1q-16 0 -28 12t-12 28q0 19 15 31l4 5l10.5 15t13.5 20t12.5 25t8.5 27q3 15 14 24.5t25 9.5q17 0 29 -12.5t12 -27.5q0 -2 -0.5 -4t-0.5 -3q-7 -34 -26 -69
t-33.5 -52.5t-17.5 -18.5q-9 -8 -18 -9zM244 473q-2 -1 -7 -1q-16 0 -28.5 12t-12.5 28q0 19 15 31l3 5q3 4 8 11.5t10.5 17t10.5 22.5t7 26q2 15 13.5 24.5t25.5 9.5q17 0 29 -12.5t12 -27.5q0 -2 -0.5 -4t-0.5 -3q-6 -34 -22.5 -66.5t-29 -47.5t-15.5 -16q-9 -8 -18 -9z
" />
    <glyph glyph-name="Ydieresis" unicode="&#x178;" horiz-adv-x="462" 
d="M113 0q-17 0 -28.5 11.5t-11.5 28.5t11.5 28.5t27.5 11.5q60 0 105.5 19.5t73.5 51t46 76t24.5 90t6.5 97.5q0 34 -1 50q-24 -76 -46 -125q-12 -27 -24 -46.5t-30 -42t-42 -35t-51 -12.5q-152 0 -152 352q0 92 46 92q16 0 27.5 -12t11.5 -28q0 -18 -2 -51t-2 -47
q0 -63 7 -109t16 -67.5t21 -34t17.5 -14t9.5 -1.5q21 0 41.5 25.5t40.5 78.5t35.5 103l38.5 130q5 17 7 25l5 16q8 29 39 29q13 0 24 -8.5t14 -21.5q29 -145 29 -247q0 -199 -87 -306t-248 -107zM177 741q-12 -12 -29 -12q-7 0 -16 3l-8 3q-24 9 -24 37q0 18 11.5 29
t27.5 11l7 2q1 0 3.5 0.5t3.5 0.5q17 0 28.5 -12.5t11.5 -29.5t-13 -28zM308 806q16 -12 16 -31q0 -20 -11.5 -34.5t-31.5 -14.5q-16 0 -26.5 10t-12.5 25l-3 7q-2 8 -2 11q0 16 12 28t29 12q15 0 25 -10z" />
    <glyph glyph-name="Zacute" unicode="&#x179;" horiz-adv-x="504" 
d="M199 0q-84 0 -138 32t-55 97q0 55 34.5 114.5t85.5 109.5t103 94.5t93.5 83.5t49.5 62q-35 0 -143 -23q-10 -2 -32.5 -8.5t-41 -10.5t-33.5 -4q-16 0 -29 12t-13 29q0 12 9.5 24t23.5 15q34 6 89 18.5t94.5 20t67.5 7.5q37 0 63.5 -17.5t26.5 -54.5q0 -39 -38 -86.5
t-92 -93l-108 -92t-92 -99.5t-38 -100q0 -50 112 -50q47 0 91 8q59 10 95.5 23t49 21t20.5 8q16 0 28 -12t12 -29q0 -42 -98.5 -70.5t-196.5 -28.5zM269 729q-16 0 -28 12t-12 28q0 25 21 35l5 4q5 3 13 9t16.5 14t17 20t13.5 24q10 26 37 26q17 0 28.5 -12.5t11.5 -28.5
q0 -6 -3 -14q-13 -32 -38.5 -60t-41.5 -39t-21 -13q-10 -5 -19 -5z" />
    <glyph glyph-name="zacute" unicode="&#x17a;" horiz-adv-x="351" 
d="M306 89q15 -1 25 -12.5t10 -26.5q0 -16 -12 -28t-28 -12h-4q-8 0 -59.5 -5.5t-84.5 -5.5h-7q-68 1 -103.5 26t-35.5 70q0 38 23.5 80.5t49 71t67 70t55.5 56.5l7 9h-6q-7 -1 -61.5 -13.5t-81.5 -12.5q-16 0 -28 11.5t-12 28.5q0 14 10 26t24 14q29 4 89.5 16t82.5 12
q33 0 54 -17t21 -46q0 -26 -22 -59.5t-54 -65l-63.5 -62.5t-53.5 -63t-22 -57q0 -15 71 -15q30 0 79.5 5.5t57.5 5.5q2 0 6 -0.5t6 -0.5zM162 519q-16 0 -28 12t-12 28q0 25 21 35l5 4q5 3 13 9t16.5 14t17 20t13.5 24q10 26 37 26q17 0 28.5 -12.5t11.5 -28.5q0 -6 -3 -14
q-13 -32 -38.5 -60t-41.5 -39t-21 -13q-10 -5 -19 -5z" />
    <glyph glyph-name="Zdotaccent" unicode="&#x17b;" horiz-adv-x="501" 
d="M199 0q-84 0 -138 32t-55 97q0 55 34.5 114.5t85.5 109.5t103 94.5t93.5 83.5t49.5 62q-35 0 -143 -23q-10 -2 -32.5 -8.5t-41 -10.5t-33.5 -4q-16 0 -29 12t-13 29q0 12 9.5 24t23.5 15q34 6 89 18.5t94.5 20t67.5 7.5q37 0 63.5 -17.5t26.5 -54.5q0 -39 -38 -86.5
t-92 -93l-108 -92t-92 -99.5t-38 -100q0 -50 112 -50q47 0 91 8q59 10 95.5 23t49 21t20.5 8q16 0 28 -12t12 -29q0 -42 -98.5 -70.5t-196.5 -28.5zM268 832q23 0 34 -25l4 -10q3 -9 3 -18q0 -15 -10 -29.5t-25 -14.5q-14 0 -29.5 15.5t-15.5 35.5t12 33t27 13z" />
    <glyph glyph-name="zdotaccent" unicode="&#x17c;" horiz-adv-x="351" 
d="M309 89q15 -1 25 -12.5t10 -26.5q0 -16 -12 -28t-28 -12h-4q-8 0 -59.5 -5.5t-84.5 -5.5h-7q-68 1 -103.5 26t-35.5 70q0 38 23.5 80.5t49 71t67 70t55.5 56.5l7 9h-6q-7 -1 -61.5 -13.5t-81.5 -12.5q-16 0 -28 11.5t-12 28.5q0 14 10 26t24 14q29 4 89.5 16t82.5 12
q33 0 54 -17t21 -46q0 -26 -22 -59.5t-54 -65l-63.5 -62.5t-53.5 -63t-22 -57q0 -15 71 -15q30 0 79.5 5.5t57.5 5.5q2 0 6 -0.5t6 -0.5zM164 622q23 0 34 -25l4 -10q3 -9 3 -18q0 -15 -10 -29.5t-25 -14.5q-14 0 -29.5 15.5t-15.5 35.5t12 33t27 13z" />
    <glyph glyph-name="Zcaron" unicode="&#x17d;" horiz-adv-x="508" 
d="M203 0q-84 0 -138 32t-55 97q0 55 34.5 114.5t85.5 109.5t103 94.5t93.5 83.5t49.5 62q-35 0 -143 -23q-10 -2 -32.5 -8.5t-41 -10.5t-33.5 -4q-16 0 -29 12t-13 29q0 12 9.5 24t23.5 15q34 6 89 18.5t94.5 20t67.5 7.5q37 0 63.5 -17.5t26.5 -54.5q0 -39 -38 -86.5
t-92 -93l-108 -92t-92 -99.5t-38 -100q0 -50 112 -50q47 0 91 8q59 10 95.5 23t49 21t20.5 8q16 0 28 -12t12 -29q0 -42 -98.5 -70.5t-196.5 -28.5zM358 922q17 0 28.5 -12.5t11.5 -28.5q0 -7 -4 -17l-12 -22q-11 -22 -25.5 -46t-37.5 -44.5t-44 -20.5q-27 0 -54 27
q-87 87 -87 106q0 20 10.5 34.5t30.5 14.5q13 0 32.5 -18t40.5 -45t25 -31q10 12 25 36q8 14 16 29.5l10.5 20.5t7.5 10.5t10 6t16 0.5z" />
    <glyph glyph-name="zcaron" unicode="&#x17e;" horiz-adv-x="358" 
d="M314 89q15 -1 25 -12.5t10 -26.5q0 -16 -12 -28t-28 -12h-4q-8 0 -59.5 -5.5t-84.5 -5.5h-7q-68 1 -103.5 26t-35.5 70q0 38 23.5 80.5t49 71t67 70t55.5 56.5l7 9h-6q-7 -1 -61.5 -13.5t-81.5 -12.5q-16 0 -28 11.5t-12 28.5q0 14 10 26t24 14q29 4 89.5 16t82.5 12
q33 0 54 -17t21 -46q0 -26 -22 -59.5t-54 -65l-63.5 -62.5t-53.5 -63t-22 -57q0 -15 71 -15q30 0 79.5 5.5t57.5 5.5q2 0 6 -0.5t6 -0.5zM255 712q17 0 28.5 -12.5t11.5 -28.5q0 -7 -4 -17l-11 -22q-12 -22 -26.5 -46t-37.5 -44.5t-44 -20.5q-27 0 -54 27q-87 87 -87 106
q0 20 10.5 34.5t30.5 14.5q13 0 32.5 -18t40.5 -45t25 -31q10 12 25 36q8 14 16 29.5l10.5 20.5t7.5 10.5t10 6t16 0.5z" />
    <glyph glyph-name="circumflex" unicode="&#x2c6;" horiz-adv-x="302" 
d="M242 515q-19 0 -27.5 10.5t-22.5 39t-35 53.5q-4 -4 -25.5 -31t-40.5 -45.5t-32 -18.5q-20 0 -30.5 15.5t-10.5 35.5q0 6 28 40q14 15 23 26q33 38 51.5 52t38.5 14q41 0 86 -73q38 -63 38 -69q0 -19 -11 -34t-30 -15z" />
    <glyph glyph-name="caron" unicode="&#x2c7;" horiz-adv-x="298" 
d="M246 709q17 0 28.5 -12.5t11.5 -28.5q0 -7 -4 -17l-12 -22q-11 -22 -25.5 -46t-37.5 -44.5t-44 -20.5q-27 0 -54 27q-87 87 -87 106q0 20 10.5 34.5t30.5 14.5q13 0 32.5 -18t40.5 -45t25 -31q10 12 25 36q8 14 16 29.5l10.5 20.5t7.5 10.5t10 6t16 0.5z" />
    <glyph glyph-name="breve" unicode="&#x2d8;" horiz-adv-x="291" 
d="M141 516q-125 0 -125 135v8q0 17 11.5 28.5t28.5 11.5t28.5 -11.5t11.5 -28.5v-10v-7q0 -18 1.5 -26t11.5 -14t32 -6q37 0 46 10t9 38v3q0 17 12 28.5t28 11.5t28 -11.5t12 -28.5v-3q0 -16 -2 -30t-10 -33t-22 -32.5t-40 -23t-61 -9.5z" />
    <glyph glyph-name="dotaccent" unicode="&#x2d9;" horiz-adv-x="107" 
d="M52 642q23 0 34 -25l4 -10q3 -9 3 -18q0 -15 -10 -29.5t-25 -14.5q-14 0 -29.5 15.5t-15.5 35.5t12 33t27 13z" />
    <glyph glyph-name="ring" unicode="&#x2da;" horiz-adv-x="250" 
d="M116 481q-45 0 -73.5 31t-28.5 76q0 60 37 103.5t86 43.5q43 0 71 -30t28 -79q0 -57 -35 -101t-85 -44zM111 562h2q2 -1 3 -1q14 0 27 21t13 44q0 29 -18 29q-17 0 -30.5 -21.5t-13.5 -43.5q0 -25 17 -28z" />
    <glyph glyph-name="ogonek" unicode="&#x2db;" horiz-adv-x="229" 
d="M101 -246q-42 0 -66.5 27.5t-24.5 72.5q0 60 58 140q30 41 55 66q14 12 29 12q20 0 30 -14.5t10 -36.5q0 -3 -0.5 -4.5t-2.5 -3t-6.5 -6l-10 -10.5t-16.5 -19.5t-24 -31.5q-42 -58 -42 -92q0 -20 10 -20q23 0 50 26q11 11 27 11t28 -12.5t12 -28.5q0 -32 -43 -54t-73 -22
z" />
    <glyph glyph-name="tilde" unicode="&#x2dc;" horiz-adv-x="318" 
d="M220 536q-27 0 -53.5 15.5t-42.5 40.5l-7 10l-11 -17q-11 -17 -25.5 -31t-28.5 -14q-17 0 -28.5 12.5t-11.5 28.5q0 9 6 20q51 84 99 84h1q42 0 73 -50q13 -19 29 -19q1 3 3.5 21t11 29.5t28.5 11.5q17 0 28.5 -12t11.5 -28q0 -33 -9.5 -55.5t-24.5 -31.5t-25.5 -12
t-19.5 -3h-4z" />
    <glyph glyph-name="hungarumlaut" unicode="&#x2dd;" horiz-adv-x="308" 
d="M60 509q-3 -1 -8 -1q-16 0 -28 12t-12 28q0 19 15 31l4 5l10.5 15t13.5 20t12.5 25t8.5 27q3 15 14 24.5t25 9.5q17 0 29 -12.5t12 -27.5q0 -2 -0.5 -4t-0.5 -3q-7 -34 -26 -69t-33.5 -52.5t-17.5 -18.5q-9 -8 -18 -9zM208 507q-2 -1 -7 -1q-16 0 -28.5 12t-12.5 28
q0 19 15 31l3 5q3 4 8 11.5t10.5 17t10.5 22.5t7 26q2 15 13.5 24.5t25.5 9.5q17 0 29 -12.5t12 -27.5q0 -2 -0.5 -4t-0.5 -3q-6 -34 -22.5 -66.5t-29 -47.5t-15.5 -16q-9 -8 -18 -9z" />
    <glyph glyph-name="Euro" unicode="&#x20ac;" horiz-adv-x="561" 
d="M280 10h-13q-73 6 -122 70t-63 168q-14 1 -23.5 2.5t-14.5 3.5t-7 3t-4 4l-2 3q-11 10 -11 28q0 16 11 28.5t28 12.5q1 0 2.5 -0.5t5.5 -1.5t10 -2q0 17 2 49q-13 1 -22 2.5t-13.5 3.5t-6.5 3t-3.5 3.5t-2.5 3.5q-11 10 -11 28q0 16 11 28.5t28 12.5l3 -1q2 -1 10.5 -2
t21.5 -2q29 102 96.5 161t147.5 59q63 0 107.5 -48.5t44.5 -123.5q0 -38 -18 -74t-46 -36q-17 0 -29 11.5t-12 27.5q0 10 12.5 31t12.5 41q0 11 -2.5 23.5t-9 29.5t-22 27.5t-38.5 10.5q-53 0 -95.5 -38.5t-64.5 -103.5h3q30 0 65.5 6t36.5 6q17 0 28.5 -11.5t11.5 -27.5
q0 -33 -38.5 -43t-108.5 -10h-16q-3 -24 -3 -49l24 -1q30 -1 64.5 6t37.5 6q17 0 28.5 -11.5t11.5 -27.5q0 -33 -38.5 -43t-108.5 -10h-13q11 -72 41.5 -114t74.5 -42q50 0 102 54.5t83 157.5q8 28 39 28q17 0 28 -12t11 -28q0 -7 -1 -11q-36 -122 -107 -195.5t-154 -73.5z
" />
    </font>
</defs>
</svg>
